{
.appVersion = "1075";
classes = (
{
automatic = 1;

glyphs = (
{
glyphname = A;
layers = (
{
anchors = (
{
name = bottom;
position = "{340, 0}";
},
{
name = ogonek;
position = "{664, 10}";
},
{
name = top;
position = "{395, 705}";
}
);
background = {
anchors = (
{
name = bottom;
position = "{359, 0}";
},
{
name = ogonek;
position = "{683, 10}";
},
{
name = top;
position = "{414, 705}";
}
);
paths = (
{
closed = 1;
nodes = (
"406 666 LINE",
"381 666 LINE",
"616 12 LINE SMOOTH",
"627 -20 OFFCURVE",
"676 -2 OFFCURVE",
"665 28 CURVE SMOOTH",
"425 691 LINE SMOOTH",
"417 716 OFFCURVE",
"378 718 OFFCURVE",
"365 691 CURVE SMOOTH",
"19 28 LINE SMOOTH",
"4 -2 OFFCURVE",
"50 -20 OFFCURVE",
"67 12 CURVE SMOOTH"
);
},
{
closed = 1;
nodes = (
"562 191 LINE",
"549 239 LINE",
"171 239 LINE",
"151 191 LINE"
);
}
);
};
layerId = "9E718F8A-2CEA-4931-B05D-987794BD97DA";
paths = (
{
closed = 1;
nodes = (
"400 658 LINE",
"383 659 LINE",
"612 15 LINE SMOOTH",
"625 -22 OFFCURVE",
"675 -5 OFFCURVE",
"662 32 CURVE SMOOTH",
"428 684 LINE SMOOTH",
"416 717 OFFCURVE",
"376 718 OFFCURVE",
"361 688 CURVE SMOOTH",
"25 35 LINE SMOOTH",
"8 2 OFFCURVE",
"54 -22 OFFCURVE",
"71 11 CURVE SMOOTH"
);
},
{
closed = 1;
nodes = (
"562 191 LINE",
"549 239 LINE",
"171 239 LINE",
"151 191 LINE"
);
}
);
width = 718;
}
);
leftKerningGroup = A;
rightKerningGroup = A;
unicode = 0041;
userData = {
anchors = (
);
b = {
};
com.typemytype.robofont.layerData = {
b = {
anchors = (
);
components = (
);
contours = (
{
points = (
{
segmentType = line;
smooth = 0;
x = 403;
y = 502;
},
{
segmentType = line;
smooth = 0;
x = 703;
y = 1275;
},
{
segmentType = line;
smooth = 0;
x = 705;
y = 1275;
},
{
segmentType = line;
smooth = 0;
x = 1004;
y = 502;
}
);
},
{
points = (
{
segmentType = curve;
smooth = 1;
x = 150;
y = 0;
},
{
smooth = 0;
x = 181;
y = 0;
},
{
smooth = 0;
x = 214;
y = 15;
},
{
segmentType = curve;
smooth = 1;
x = 229;
y = 53;
},
{
segmentType = line;
smooth = 0;
x = 356;
y = 373;
},
{
segmentType = line;
smooth = 0;
x = 1051;
y = 373;
},
{
segmentType = line;
smooth = 1;
x = 1179;
y = 53;
},
{
smooth = 0;
x = 1193;
y = 17;
},
{
smooth = 0;
x = 1228;
y = 0;
},
{
segmentType = curve;
smooth = 1;
x = 1260;
y = 0;
},
{
smooth = 0;
x = 1306;
y = 0;
},
{
smooth = 0;
x = 1354;
y = 31;
},
{
segmentType = curve;
smooth = 1;
x = 1354;
y = 80;
},
{
smooth = 0;
x = 1354;
y = 87;
},
{
smooth = 0;
x = 1352;
y = 97;
},
{
segmentType = curve;
smooth = 0;
x = 1349;
y = 108;
},
{
segmentType = line;
smooth = 1;
x = 871;
y = 1288;
},
{
smooth = 0;
x = 817;
y = 1420;
},
{
smooth = 0;
x = 777;
y = 1430;
},
{
segmentType = curve;
smooth = 1;
x = 710;
y = 1430;
},
{
smooth = 0;
x = 644;
y = 1430;
},
{
smooth = 0;
x = 596;
y = 1413;
},
{
segmentType = curve;
smooth = 1;
x = 542;
y = 1280;
},
{
segmentType = line;
smooth = 1;
x = 66;
y = 108;
},
{
smooth = 0;
x = 62;
y = 97;
},
{
smooth = 0;
x = 60;
y = 87;
},
{
segmentType = curve;
smooth = 1;
x = 60;
y = 78;
},
{
smooth = 0;
x = 60;
y = 32;
},
{
smooth = 0;
x = 106;
y = 0;
}
);
}
);
lib = {
};
name = A;
unicodes = (
);
width = 1414;
};
};
components = (
);
contours = {
};
lib = {
};
name = A;
points = {
};
segmentType = line;
unicodes = (
);
width = 1445;
x = 718;
y = 1232;
};
},
{
glyphname = Aogonek;
layers = (
{
background = {
paths = (
{
closed = 1;
nodes = (
"562 191 LINE",
"549 239 LINE",
"171 239 LINE",
"151 191 LINE"
);
},
{
closed = 1;
nodes = (
"658 -144 OFFCURVE",
"639 -148 OFFCURVE",
"627 -148 CURVE SMOOTH",
"588 -148 OFFCURVE",
"565 -127 OFFCURVE",
"565 -86 CURVE SMOOTH",
"565 -41 OFFCURVE",
"594 -6 OFFCURVE",
"640 -6 CURVE",
"656 -5 OFFCURVE",
"670 10 OFFCURVE",
"662 32 CURVE SMOOTH",
"428 684 LINE SMOOTH",
"416 717 OFFCURVE",
"376 718 OFFCURVE",
"361 688 CURVE SMOOTH",
"25 35 LINE SMOOTH",
"8 2 OFFCURVE",
"54 -22 OFFCURVE",
"71 11 CURVE SMOOTH",
"400 658 LINE",
"383 659 LINE",
"607 30 LINE",
"546 9 OFFCURVE",
"514 -36 OFFCURVE",
"514 -95 CURVE SMOOTH",
"514 -152 OFFCURVE",
"555 -191 OFFCURVE",
"619 -191 CURVE SMOOTH",
"644 -191 OFFCURVE",
"667 -186 OFFCURVE",
"689 -174 CURVE SMOOTH",
"714 -160 OFFCURVE",
"709 -119 OFFCURVE",
"676 -135 CURVE SMOOTH"
);
}
);
};
layerId = "9E718F8A-2CEA-4931-B05D-987794BD97DA";
paths = (
{
closed = 1;
nodes = (
"643 -191 OFFCURVE",
"666 -186 OFFCURVE",
"688 -174 CURVE SMOOTH",
"713 -160 OFFCURVE",
"708 -119 OFFCURVE",
"675 -135 CURVE SMOOTH",
"657 -144 OFFCURVE",
"638 -148 OFFCURVE",
"626 -148 CURVE SMOOTH",
"587 -148 OFFCURVE",
"564 -127 OFFCURVE",
"564 -86 CURVE SMOOTH",
"564 -41 OFFCURVE",
"593 -6 OFFCURVE",
"639 -6 CURVE SMOOTH",
"655 -6 OFFCURVE",
"669 10 OFFCURVE",
"661 32 CURVE SMOOTH",
"427 684 LINE SMOOTH",
"415 717 OFFCURVE",
"375 718 OFFCURVE",
"360 688 CURVE SMOOTH",
"24 35 LINE SMOOTH",
"7 2 OFFCURVE",
"53 -22 OFFCURVE",
"70 11 CURVE SMOOTH",
"399 658 LINE",
"382 659 LINE",
"614 7 LINE",
"625 34 LINE",
"551 18 OFFCURVE",
"513 -30 OFFCURVE",
"513 -95 CURVE SMOOTH",
"513 -152 OFFCURVE",
"554 -191 OFFCURVE",
"618 -191 CURVE SMOOTH"
);
},
{
closed = 1;
nodes = (
"561 191 LINE",
"548 239 LINE",
"170 239 LINE",
"150 191 LINE"
);
}
);
width = 718;
}
);
leftKerningGroup = A;
rightKerningGroup = A;
unicode = 0104;
},
{
glyphname = Aring;
layers = (
{
background = {
paths = (
{
closed = 1;
nodes = (
"406 666 LINE",
"381 666 LINE",
"616 12 LINE SMOOTH",
"627 -20 OFFCURVE",
"676 -2 OFFCURVE",
"665 28 CURVE SMOOTH",
"425 691 LINE",
"365 691 LINE",
"19 28 LINE SMOOTH",
"4 -2 OFFCURVE",
"50 -20 OFFCURVE",
"67 12 CURVE SMOOTH"
);
},
{
closed = 1;
nodes = (
"562 191 LINE",
"549 239 LINE",
"171 239 LINE",
"151 191 LINE"
);
},
{
closed = 1;
nodes = (
"448 675 OFFCURVE",
"495 717 OFFCURVE",
"499 771 CURVE SMOOTH",
"504 825 OFFCURVE",
"463 867 OFFCURVE",
"409 867 CURVE SMOOTH",
"355 867 OFFCURVE",
"308 825 OFFCURVE",
"303 771 CURVE SMOOTH",
"299 717 OFFCURVE",
"340 675 OFFCURVE",
"394 675 CURVE SMOOTH"
);
},
{
closed = 1;
nodes = (
"368 719 OFFCURVE",
"349 742 OFFCURVE",
"351 771 CURVE SMOOTH",
"354 800 OFFCURVE",
"376 823 OFFCURVE",
"405 823 CURVE SMOOTH",
"434 823 OFFCURVE",
"454 800 OFFCURVE",
"451 771 CURVE SMOOTH",
"449 742 OFFCURVE",
"426 719 OFFCURVE",
"397 719 CURVE SMOOTH"
);
}
);
};
layerId = "9E718F8A-2CEA-4931-B05D-987794BD97DA";
paths = (
{
closed = 1;
nodes = (
"452 675 OFFCURVE",
"496 717 OFFCURVE",
"496 771 CURVE SMOOTH",
"496 825 OFFCURVE",
"452 867 OFFCURVE",
"398 867 CURVE SMOOTH",
"344 867 OFFCURVE",
"300 825 OFFCURVE",
"300 771 CURVE SMOOTH",
"300 717 OFFCURVE",
"344 675 OFFCURVE",
"398 675 CURVE SMOOTH"
);
},
{
closed = 1;
nodes = (
"369 719 OFFCURVE",
"348 742 OFFCURVE",
"348 771 CURVE SMOOTH",
"348 800 OFFCURVE",
"369 823 OFFCURVE",
"398 823 CURVE SMOOTH",
"427 823 OFFCURVE",
"448 800 OFFCURVE",
"448 771 CURVE SMOOTH",
"448 742 OFFCURVE",
"427 719 OFFCURVE",
"398 719 CURVE SMOOTH"
);
},
{
closed = 1;
nodes = (
"400 658 LINE",
"383 659 LINE",
"612 15 LINE SMOOTH",
"625 -22 OFFCURVE",
"675 -5 OFFCURVE",
"662 32 CURVE SMOOTH",
"428 684 LINE",
"361 688 LINE",
"25 35 LINE SMOOTH",
"8 2 OFFCURVE",
"54 -22 OFFCURVE",
"71 11 CURVE SMOOTH"
);
},
{
closed = 1;
nodes = (
"562 191 LINE",
"549 239 LINE",
"171 239 LINE",
"151 191 LINE"
);
}
);
width = 718;
}
);
leftKerningGroup = A;
rightKerningGroup = A;
unicode = 00C5;
},
{
glyphname = Aringacute;
layers = (
{
background = {
paths = (
{
closed = 1;
nodes = (
"406 666 LINE",
"381 666 LINE",
"616 12 LINE SMOOTH",
"627 -20 OFFCURVE",
"676 -2 OFFCURVE",
"665 28 CURVE SMOOTH",
"425 691 LINE",
"365 691 LINE",
"19 28 LINE SMOOTH",
"4 -2 OFFCURVE",
"50 -20 OFFCURVE",
"67 12 CURVE SMOOTH"
);
},
{
closed = 1;
nodes = (
"562 191 LINE",
"549 239 LINE",
"171 239 LINE",
"151 191 LINE"
);
},
{
closed = 1;
nodes = (
"448 675 OFFCURVE",
"495 717 OFFCURVE",
"499 771 CURVE SMOOTH",
"504 825 OFFCURVE",
"463 867 OFFCURVE",
"409 867 CURVE SMOOTH",
"355 867 OFFCURVE",
"308 825 OFFCURVE",
"303 771 CURVE SMOOTH",
"299 717 OFFCURVE",
"340 675 OFFCURVE",
"394 675 CURVE SMOOTH"
);
},
{
closed = 1;
nodes = (
"368 719 OFFCURVE",
"349 742 OFFCURVE",
"351 771 CURVE SMOOTH",
"354 800 OFFCURVE",
"376 823 OFFCURVE",
"405 823 CURVE SMOOTH",
"434 823 OFFCURVE",
"454 800 OFFCURVE",
"451 771 CURVE SMOOTH",
"449 742 OFFCURVE",
"426 719 OFFCURVE",
"397 719 CURVE SMOOTH"
);
},
{
closed = 1;
nodes = (
"606 879 LINE SMOOTH",
"657 905 OFFCURVE",
"618 968 OFFCURVE",
"574 934 CURVE SMOOTH",
"448 836 LINE SMOOTH",
"430 822 OFFCURVE",
"445 799 OFFCURVE",
"465 809 CURVE SMOOTH"
);
}
);
};
layerId = "9E718F8A-2CEA-4931-B05D-987794BD97DA";
paths = (
{
closed = 1;
nodes = (
"400 658 LINE",
"383 659 LINE",
"612 15 LINE SMOOTH",
"625 -22 OFFCURVE",
"675 -5 OFFCURVE",
"662 32 CURVE SMOOTH",
"428 684 LINE",
"361 688 LINE",
"25 35 LINE SMOOTH",
"8 2 OFFCURVE",
"54 -22 OFFCURVE",
"71 11 CURVE SMOOTH"
);
},
{
closed = 1;
nodes = (
"562 191 LINE",
"549 239 LINE",
"171 239 LINE",
"151 191 LINE"
);
},
{
closed = 1;
nodes = (
"452 675 OFFCURVE",
"496 717 OFFCURVE",
"496 771 CURVE SMOOTH",
"496 825 OFFCURVE",
"452 867 OFFCURVE",
"398 867 CURVE SMOOTH",
"344 867 OFFCURVE",
"300 825 OFFCURVE",
"300 771 CURVE SMOOTH",
"300 717 OFFCURVE",
"344 675 OFFCURVE",
"398 675 CURVE SMOOTH"
);
},
{
closed = 1;
nodes = (
"369 719 OFFCURVE",
"348 742 OFFCURVE",
"348 771 CURVE SMOOTH",
"348 800 OFFCURVE",
"369 823 OFFCURVE",
"398 823 CURVE SMOOTH",
"427 823 OFFCURVE",
"448 800 OFFCURVE",
"448 771 CURVE SMOOTH",
"448 742 OFFCURVE",
"427 719 OFFCURVE",
"398 719 CURVE SMOOTH"
);
},
{
closed = 1;
nodes = (
"606 879 LINE SMOOTH",
"657 905 OFFCURVE",
"618 968 OFFCURVE",
"574 934 CURVE SMOOTH",
"448 836 LINE SMOOTH",
"430 822 OFFCURVE",
"445 799 OFFCURVE",
"465 809 CURVE SMOOTH"
);
}
);
width = 718;
}
);
leftKerningGroup = A;
rightKerningGroup = A;
unicode = 01FA;
},
{
glyphname = AE;
layers = (
{
anchors = (
{
name = bottom;
position = "{478, 0}";
},
{
name = top;
position = "{532, 705}";
}
);
background = {
anchors = (
{
name = bottom;
position = "{497, 0}";
},
{
name = top;
position = "{551, 705}";
}
);
paths = (
{
closed = 1;
nodes = (
"896 0 LINE SMOOTH",
"910 0 OFFCURVE",
"921 9 OFFCURVE",
"922 24 CURVE SMOOTH",
"923 40 OFFCURVE",
"914 49 OFFCURVE",
"900 49 CURVE SMOOTH",
"603 49 LINE",
"518 682 LINE",
"508 656 LINE",
"948 656 LINE SMOOTH",
"962 656 OFFCURVE",
"973 665 OFFCURVE",
"974 681 CURVE SMOOTH",
"975 696 OFFCURVE",
"966 705 OFFCURVE",
"952 705 CURVE SMOOTH",
"492 705 LINE SMOOTH",
"480 705 OFFCURVE",
"468 703 OFFCURVE",
"459 691 CURVE SMOOTH",
"2 28 LINE SMOOTH",
"-19 -3 OFFCURVE",
"26 -21 OFFCURVE",
"49 12 CURVE SMOOTH",
"495 665 LINE",
"471 665 LINE",
"554 30 LINE SMOOTH",
"557 14 OFFCURVE",
"565 0 OFFCURVE",
"582 0 CURVE SMOOTH"
);
},
{
closed = 1;
nodes = (
"555 191 LINE",
"540 239 LINE",
"162 239 LINE",
"142 191 LINE"
);
},
{
closed = 1;
nodes = (
"903 334 LINE SMOOTH",
"917 334 OFFCURVE",
"927 343 OFFCURVE",
"928 358 CURVE SMOOTH",
"930 373 OFFCURVE",
"920 382 OFFCURVE",
"906 382 CURVE SMOOTH",
"549 382 LINE",
"546 334 LINE"
);
}
);
};
layerId = "9E718F8A-2CEA-4931-B05D-987794BD97DA";
paths = (
{
closed = 1;
nodes = (
"897 0 LINE SMOOTH",
"912 0 OFFCURVE",
"922 11 OFFCURVE",
"922 24 CURVE SMOOTH",
"922 38 OFFCURVE",
"912 49 OFFCURVE",
"897 49 CURVE SMOOTH",
"602 49 LINE",
"520 663 LINE",
"514 656 LINE",
"949 656 LINE SMOOTH",
"964 656 OFFCURVE",
"973 667 OFFCURVE",
"973 680 CURVE SMOOTH",
"973 694 OFFCURVE",
"964 705 OFFCURVE",
"949 705 CURVE SMOOTH",
"490 705 LINE SMOOTH",
"475 705 OFFCURVE",
"464 699 OFFCURVE",
"456 687 CURVE SMOOTH",
"14 36 LINE SMOOTH",
"-7 4 OFFCURVE",
"37 -23 OFFCURVE",
"58 9 CURVE SMOOTH",
"489 652 LINE",
"471 656 LINE",
"554 26 LINE SMOOTH",
"556 9 OFFCURVE",
"568 0 OFFCURVE",
"585 0 CURVE SMOOTH"
);
},
{
closed = 1;
nodes = (
"555 191 LINE",
"540 239 LINE",
"162 239 LINE",
"142 191 LINE"
);
},
{
closed = 1;
nodes = (
"904 334 LINE SMOOTH",
"919 334 OFFCURVE",
"928 345 OFFCURVE",
"928 358 CURVE SMOOTH",
"928 371 OFFCURVE",
"919 382 OFFCURVE",
"904 382 CURVE SMOOTH",
"548 382 LINE",
"548 334 LINE"
);
}
);
width = 988;
}
);
leftKerningGroup = A;
rightKerningGroup = E;
unicode = 00C6;
userData = {
com.typemytype.robofont.layerData = {
b = {
anchors = (
);
components = (
);
contours = (
);
lib = {
};
name = AE;
unicodes = (
);
width = 1976;
};
};
};
},
{
glyphname = B;
layers = (
{
anchors = (
{
name = bottom;
position = "{319, 0}";
},
{
name = top;
position = "{373, 705}";
}
);
background = {
anchors = (
{
name = bottom;
position = "{338, 0}";
},
{
name = top;
position = "{392, 705}";
}
);
paths = (
{
closed = 1;
nodes = (
"352 0 LINE SMOOTH",
"499 0 OFFCURVE",
"587 66 OFFCURVE",
"597 191 CURVE SMOOTH",
"605 285 OFFCURVE",
"557 348 OFFCURVE",
"469 364 CURVE",
"468 356 LINE",
"548 380 OFFCURVE",
"601 438 OFFCURVE",
"607 520 CURVE SMOOTH",
"617 640 OFFCURVE",
"540 705 OFFCURVE",
"397 705 CURVE SMOOTH",
"160 705 LINE SMOOTH",
"143 705 OFFCURVE",
"129 693 OFFCURVE",
"128 677 CURVE SMOOTH",
"76 28 LINE SMOOTH",
"75 13 OFFCURVE",
"87 0 OFFCURVE",
"104 0 CURVE SMOOTH"
);
},
{
closed = 1;
nodes = (
"155 334 LINE",
"376 334 LINE SMOOTH",
"495 334 OFFCURVE",
"550 284 OFFCURVE",
"542 188 CURVE SMOOTH",
"534 93 OFFCURVE",
"474 48 OFFCURVE",
"353 48 CURVE SMOOTH",
"132 48 LINE"
);
},
{
closed = 1;
nodes = (
"180 657 LINE",
"386 657 LINE SMOOTH",
"505 657 OFFCURVE",
"560 612 OFFCURVE",
"553 523 CURVE SMOOTH",
"545 432 OFFCURVE",
"480 382 OFFCURVE",
"364 382 CURVE SMOOTH",
"158 382 LINE"
);
}
);
};
layerId = "9E718F8A-2CEA-4931-B05D-987794BD97DA";
paths = (
{
closed = 1;
nodes = (
"362 0 LINE SMOOTH",
"512 0 OFFCURVE",
"598 75 OFFCURVE",
"598 204 CURVE SMOOTH",
"598 290 OFFCURVE",
"551 348 OFFCURVE",
"459 363 CURVE",
"470 356 LINE",
"562 383 OFFCURVE",
"608 448 OFFCURVE",
"608 533 CURVE SMOOTH",
"608 644 OFFCURVE",
"533 705 OFFCURVE",
"386 705 CURVE SMOOTH",
"157 705 LINE SMOOTH",
"141 705 OFFCURVE",
"128 694 OFFCURVE",
"127 677 CURVE SMOOTH",
"77 34 LINE SMOOTH",
"76 15 OFFCURVE",
"89 0 OFFCURVE",
"108 0 CURVE SMOOTH"
);
},
{
closed = 1;
nodes = (
"180 657 LINE",
"386 657 LINE SMOOTH",
"497 657 OFFCURVE",
"553 615 OFFCURVE",
"553 533 CURVE SMOOTH",
"553 435 OFFCURVE",
"486 382 OFFCURVE",
"374 382 CURVE SMOOTH",
"146 382 LINE",
"142 334 LINE",
"375 334 LINE SMOOTH",
"489 334 OFFCURVE",
"543 287 OFFCURVE",
"543 198 CURVE SMOOTH",
"543 98 OFFCURVE",
"479 48 OFFCURVE",
"363 48 CURVE SMOOTH",
"132 48 LINE"
);
}
);
width = 668;
}
);
leftKerningGroup = H;
rightKerningGroup = B;
unicode = 0042;
userData = {
anchors = (
);
b = {
};
com.typemytype.robofont.layerData = {
b = {
anchors = (
);
components = (
);
contours = (
{
points = (
{
segmentType = curve;
smooth = 1;
x = 266;
y = 0;
},
{
segmentType = line;
smooth = 1;
x = 1035;
y = 0;
},
{
smooth = 0;
x = 1084;
y = 0;
},
{
smooth = 0;
x = 1108;
y = 36;
},
{
segmentType = curve;
smooth = 1;
x = 1108;
y = 73;
},
{
smooth = 0;
x = 1108;
y = 109;
},
{
smooth = 0;
x = 1084;
y = 145;
},
{
segmentType = curve;
smooth = 1;
x = 1035;
y = 145;
},
{
segmentType = line;
smooth = 0;
x = 353;
y = 145;
},
{
segmentType = line;
smooth = 0;
x = 353;
y = 662;
},
{
segmentType = line;
smooth = 1;
x = 975;
y = 662;
},
{
smooth = 0;
x = 1024;
y = 662;
},
{
smooth = 0;
x = 1049;
y = 698;
},
{
segmentType = curve;
smooth = 1;
x = 1049;
y = 734;
},
{
smooth = 0;
x = 1049;
y = 770;
},
{
smooth = 0;
x = 1026;
y = 806;
},
{
segmentType = curve;
smooth = 1;
x = 975;
y = 806;
},
{
segmentType = line;
smooth = 0;
x = 353;
y = 806;
},
{
segmentType = line;
smooth = 0;
x = 353;
y = 1281;
},
{
segmentType = line;
smooth = 1;
x = 1007;
y = 1281;
},
{
smooth = 0;
x = 1056;
y = 1281;
},
{
smooth = 0;
x = 1080;
y = 1317;
},
{
segmentType = curve;
smooth = 1;
x = 1080;
y = 1354;
},
{
smooth = 0;
x = 1080;
y = 1390;
},
{
smooth = 0;
x = 1056;
y = 1426;
},
{
segmentType = curve;
smooth = 1;
x = 1007;
y = 1426;
},
{
segmentType = line;
smooth = 1;
x = 261;
y = 1426;
},
{
smooth = 0;
x = 213;
y = 1426;
},
{
smooth = 0;
x = 178;
y = 1383;
},
{
segmentType = curve;
smooth = 1;
x = 178;
y = 1340;
},
{
segmentType = line;
smooth = 1;
x = 178;
y = 86;
},
{
smooth = 0;
x = 178;
y = 41;
},
{
smooth = 0;
x = 222;
y = 0;
}
);
}
);
lib = {
};
name = B;
unicodes = (
);
width = 1292;
};
};
components = (
);
contours = {
};
lib = {
};
name = B;
points = {
};
segmentType = curve;
unicodes = (
);
width = 1395;
x = 676;
y = 1260;
};
},
{
glyphname = C;
layers = (
{
anchors = (
{
name = bottom;
position = "{363, 0}";
},
{
name = top;
position = "{419, 705}";
}
);
background = {
anchors = (
{
name = bottom;
position = "{982, 0}";
},
{
name = top;
position = "{1038, 705}";
}
);
paths = (
{
closed = 1;
nodes = (
"452 -8 OFFCURVE",
"541 24 OFFCURVE",
"601 80 CURVE SMOOTH",
"611 89 OFFCURVE",
"615 98 OFFCURVE",
"615 107 CURVE SMOOTH",
"617 121 OFFCURVE",
"609 131 OFFCURVE",
"599 131 CURVE SMOOTH",
"592 131 OFFCURVE",
"586 128 OFFCURVE",
"578 122 CURVE SMOOTH",
"499 61 OFFCURVE",
"445 42 OFFCURVE",
"366 42 CURVE SMOOTH",
"201 42 OFFCURVE",
"116 155 OFFCURVE",
"132 353 CURVE SMOOTH",
"148 550 OFFCURVE",
"252 663 OFFCURVE",
"416 663 CURVE SMOOTH",
"495 663 OFFCURVE",
"545 644 OFFCURVE",
"614 583 CURVE SMOOTH",
"623 575 OFFCURVE",
"629 574 OFFCURVE",
"635 574 CURVE SMOOTH",
"645 574 OFFCURVE",
"653 585 OFFCURVE",
"654 598 CURVE SMOOTH",
"655 607 OFFCURVE",
"653 616 OFFCURVE",
"645 625 CURVE SMOOTH",
"593 681 OFFCURVE",
"510 713 OFFCURVE",
"421 713 CURVE SMOOTH",
"224 713 OFFCURVE",
"92 576 OFFCURVE",
"74 353 CURVE SMOOTH",
"56 129 OFFCURVE",
"166 -8 OFFCURVE",
"363 -8 CURVE SMOOTH"
);
}
);
};
layerId = "9E718F8A-2CEA-4931-B05D-987794BD97DA";
paths = (
{
closed = 1;
nodes = (
"464 -8 OFFCURVE",
"546 24 OFFCURVE",
"611 85 CURVE SMOOTH",
"634 106 OFFCURVE",
"612 150 OFFCURVE",
"580 120 CURVE SMOOTH",
"521 66 OFFCURVE",
"449 42 OFFCURVE",
"376 42 CURVE SMOOTH",
"219 42 OFFCURVE",
"130 142 OFFCURVE",
"130 320 CURVE SMOOTH",
"130 534 OFFCURVE",
"230 663 OFFCURVE",
"401 663 CURVE SMOOTH",
"498 663 OFFCURVE",
"561 638 OFFCURVE",
"620 582 CURVE SMOOTH",
"647 556 OFFCURVE",
"675 597 OFFCURVE",
"653 620 CURVE SMOOTH",
"594 682 OFFCURVE",
"507 713 OFFCURVE",
"403 713 CURVE SMOOTH",
"199 713 OFFCURVE",
"73 560 OFFCURVE",
"73 321 CURVE SMOOTH",
"73 116 OFFCURVE",
"188 -8 OFFCURVE",
"363 -8 CURVE SMOOTH"
);
}
);
width = 677;
}
);
leftKerningGroup = O;
rightKerningGroup = C;
unicode = 0043;
userData = {
anchors = (
);
b = {
};
com.typemytype.robofont.layerData = {
b = {
anchors = (
);
components = (
);
contours = (
);
lib = {
};
name = C;
unicodes = (
);
width = 1353.89001;
};
};
components = (
);
contours = (
);
lib = {
};
name = C;
unicodes = (
);
width = 1354;
};
},
{
glyphname = D;
layers = (
{
anchors = (
{
name = bottom;
position = "{346, 0}";
},
{
name = center;
position = "{374, 353}";
},
{
name = top;
position = "{400, 705}";
}
);
background = {
paths = (
{
closed = 1;
nodes = (
"297 0 LINE SMOOTH",
"518 0 OFFCURVE",
"655 126 OFFCURVE",
"673 353 CURVE SMOOTH",
"691 581 OFFCURVE",
"574 705 OFFCURVE",
"353 705 CURVE SMOOTH",
"160 705 LINE SMOOTH",
"143 705 OFFCURVE",
"129 693 OFFCURVE",
"128 677 CURVE SMOOTH",
"76 28 LINE SMOOTH",
"75 13 OFFCURVE",
"87 0 OFFCURVE",
"104 0 CURVE SMOOTH"
);
},
{
closed = 1;
nodes = (
"180 657 LINE",
"347 657 LINE SMOOTH",
"551 657 OFFCURVE",
"631 546 OFFCURVE",
"616 353 CURVE SMOOTH",
"601 160 OFFCURVE",
"503 48 OFFCURVE",
"299 48 CURVE SMOOTH",
"132 48 LINE"
);
}
);
};
guideLines = (
{
angle = 88.6493;
position = "{361, 353}";
}
);
layerId = "9E718F8A-2CEA-4931-B05D-987794BD97DA";
paths = (
{
closed = 1;
nodes = (
"323 0 LINE SMOOTH",
"548 0 OFFCURVE",
"673 145 OFFCURVE",
"673 383 CURVE SMOOTH",
"673 589 OFFCURVE",
"559 705 OFFCURVE",
"347 705 CURVE SMOOTH",
"157 705 LINE SMOOTH",
"141 705 OFFCURVE",
"128 694 OFFCURVE",
"127 677 CURVE SMOOTH",
"77 34 LINE SMOOTH",
"76 15 OFFCURVE",
"89 0 OFFCURVE",
"108 0 CURVE SMOOTH"
);
},
{
closed = 1;
nodes = (
"180 657 LINE",
"346 657 LINE SMOOTH",
"528 657 OFFCURVE",
"616 563 OFFCURVE",
"616 384 CURVE SMOOTH",
"616 171 OFFCURVE",
"517 48 OFFCURVE",
"322 48 CURVE SMOOTH",
"132 48 LINE"
);
}
);
width = 729;
}
);
leftKerningGroup = H;
rightKerningGroup = O;
unicode = 0044;
userData = {
anchors = (
);
b = {
};
com.typemytype.robofont.layerData = {
b = {
anchors = (
);
components = (
);
contours = (
{
points = (
{
segmentType = curve;
smooth = 1;
x = 266;
y = 0;
},
{
segmentType = line;
smooth = 1;
x = 1035;
y = 0;
},
{
smooth = 0;
x = 1084;
y = 0;
},
{
smooth = 0;
x = 1108;
y = 34;
},
{
segmentType = curve;
smooth = 1;
x = 1108;
y = 71;
},
{
smooth = 0;
x = 1108;
y = 107;
},
{
smooth = 0;
x = 1084;
y = 141;
},
{
segmentType = curve;
smooth = 1;
x = 1035;
y = 141;
},
{
segmentType = line;
smooth = 0;
x = 356;
y = 141;
},
{
segmentType = line;
smooth = 0;
x = 356;
y = 665;
},
{
segmentType = line;
smooth = 1;
x = 975;
y = 665;
},
{
smooth = 0;
x = 1024;
y = 665;
},
{
smooth = 0;
x = 1049;
y = 698;
},
{
segmentType = curve;
smooth = 1;
x = 1049;
y = 734;
},
{
smooth = 0;
x = 1049;
y = 770;
},
{
smooth = 0;
x = 1026;
y = 803;
},
{
segmentType = curve;
smooth = 1;
x = 975;
y = 803;
},
{
segmentType = line;
smooth = 0;
x = 356;
y = 803;
},
{
segmentType = line;
smooth = 0;
x = 356;
y = 1285;
},
{
segmentType = line;
smooth = 1;
x = 1007;
y = 1285;
},
{
smooth = 0;
x = 1056;
y = 1285;
},
{
smooth = 0;
x = 1080;
y = 1319;
},
{
segmentType = curve;
smooth = 1;
x = 1080;
y = 1356;
},
{
smooth = 0;
x = 1080;
y = 1392;
},
{
smooth = 0;
x = 1056;
y = 1426;
},
{
segmentType = curve;
smooth = 1;
x = 1007;
y = 1426;
},
{
segmentType = line;
smooth = 1;
x = 261;
y = 1426;
},
{
smooth = 0;
x = 213;
y = 1426;
},
{
smooth = 0;
x = 178;
y = 1383;
},
{
segmentType = curve;
smooth = 1;
x = 178;
y = 1340;
},
{
segmentType = line;
smooth = 1;
x = 178;
y = 86;
},
{
smooth = 0;
x = 178;
y = 41;
},
{
smooth = 0;
x = 222;
y = 0;
}
);
}
);
lib = {
};
name = D;
unicodes = (
);
width = 1499;
};
};
components = (
);
contours = (
);
lib = {
};
name = D;
unicodes = (
);
width = 1535;
};
},
{
glyphname = Eth;
layers = (
{
background = {
paths = (
{
closed = 1;
nodes = (
"304 0 LINE SMOOTH",
"525 0 OFFCURVE",
"662 126 OFFCURVE",
"680 353 CURVE SMOOTH",
"698 581 OFFCURVE",
"581 705 OFFCURVE",
"360 705 CURVE SMOOTH",
"167 705 LINE SMOOTH",
"150 705 OFFCURVE",
"136 693 OFFCURVE",
"135 677 CURVE SMOOTH",
"83 28 LINE SMOOTH",
"82 13 OFFCURVE",
"94 0 OFFCURVE",
"111 0 CURVE SMOOTH"
);
},
{
closed = 1;
nodes = (
"339 335 LINE SMOOTH",
"353 335 OFFCURVE",
"362 343 OFFCURVE",
"363 358 CURVE SMOOTH",
"365 373 OFFCURVE",
"356 381 OFFCURVE",
"342 381 CURVE SMOOTH",
"36 381 LINE SMOOTH",
"22 381 OFFCURVE",
"11 373 OFFCURVE",
"9 358 CURVE SMOOTH",
"8 343 OFFCURVE",
"19 335 OFFCURVE",
"33 335 CURVE SMOOTH"
);
},
{
closed = 1;
nodes = (
"187 657 LINE",
"354 657 LINE SMOOTH",
"558 657 OFFCURVE",
"638 546 OFFCURVE",
"623 353 CURVE SMOOTH",
"608 160 OFFCURVE",
"510 48 OFFCURVE",
"306 48 CURVE SMOOTH",
"139 48 LINE"
);
}
);
};
layerId = "9E718F8A-2CEA-4931-B05D-987794BD97DA";
paths = (
{
closed = 1;
nodes = (
"337 335 LINE SMOOTH",
"355 335 OFFCURVE",
"363 345 OFFCURVE",
"363 358 CURVE SMOOTH",
"363 371 OFFCURVE",
"355 381 OFFCURVE",
"335 381 CURVE SMOOTH",
"35 381 LINE SMOOTH",
"19 381 OFFCURVE",
"9 371 OFFCURVE",
"9 358 CURVE SMOOTH",
"9 345 OFFCURVE",
"19 335 OFFCURVE",
"37 335 CURVE SMOOTH"
);
},
{
closed = 1;
nodes = (
"330 0 LINE SMOOTH",
"555 0 OFFCURVE",
"680 145 OFFCURVE",
"680 383 CURVE SMOOTH",
"680 589 OFFCURVE",
"566 705 OFFCURVE",
"354 705 CURVE SMOOTH",
"164 705 LINE SMOOTH",
"148 705 OFFCURVE",
"135 694 OFFCURVE",
"134 677 CURVE SMOOTH",
"84 34 LINE SMOOTH",
"83 15 OFFCURVE",
"96 0 OFFCURVE",
"115 0 CURVE SMOOTH"
);
},
{
closed = 1;
nodes = (
"187 657 LINE",
"353 657 LINE SMOOTH",
"535 657 OFFCURVE",
"623 563 OFFCURVE",
"623 384 CURVE SMOOTH",
"623 171 OFFCURVE",
"524 48 OFFCURVE",
"329 48 CURVE SMOOTH",
"139 48 LINE"
);
}
);
width = 736;
}
);
leftKerningGroup = H;
rightKerningGroup = O;
unicode = 00D0;
},
{
glyphname = E;
layers = (
{
anchors = (
{
name = bottom;
position = "{302, 0}";
},
{
name = ogonek;
position = "{487, 10}";
},
{
name = top;
position = "{357, 705}";
},
{
name = topleft;
position = "{62, 705}";
}
);
background = {
anchors = (
{
name = bottom;
position = "{321, 0}";
},
{
name = ogonek;
position = "{506, 10}";
},
{
name = top;
position = "{376, 705}";
},
{
name = topleft;
position = "{81, 705}";
}
);
paths = (
{
closed = 1;
nodes = (
"486 0 LINE SMOOTH",
"500 0 OFFCURVE",
"511 9 OFFCURVE",
"512 24 CURVE SMOOTH",
"513 40 OFFCURVE",
"504 48 OFFCURVE",
"490 48 CURVE SMOOTH",
"132 48 LINE",
"155 334 LINE",
"493 334 LINE SMOOTH",
"507 334 OFFCURVE",
"517 343 OFFCURVE",
"518 358 CURVE SMOOTH",
"520 373 OFFCURVE",
"510 382 OFFCURVE",
"496 382 CURVE SMOOTH",
"158 382 LINE",
"180 657 LINE",
"538 657 LINE SMOOTH",
"552 657 OFFCURVE",
"563 666 OFFCURVE",
"564 681 CURVE SMOOTH",
"565 696 OFFCURVE",
"556 705 OFFCURVE",
"542 705 CURVE SMOOTH",
"160 705 LINE SMOOTH",
"143 705 OFFCURVE",
"129 693 OFFCURVE",
"128 677 CURVE SMOOTH",
"76 28 LINE SMOOTH",
"75 13 OFFCURVE",
"87 0 OFFCURVE",
"104 0 CURVE SMOOTH"
);
}
);
};
guideLines = (
{
angle = 90;
position = "{473, 247}";
}
);
layerId = "9E718F8A-2CEA-4931-B05D-987794BD97DA";
paths = (
{
closed = 1;
nodes = (
"488 0 LINE SMOOTH",
"503 0 OFFCURVE",
"512 11 OFFCURVE",
"512 24 CURVE SMOOTH",
"512 37 OFFCURVE",
"503 48 OFFCURVE",
"488 48 CURVE SMOOTH",
"132 48 LINE",
"180 657 LINE",
"539 657 LINE SMOOTH",
"554 657 OFFCURVE",
"563 668 OFFCURVE",
"563 681 CURVE SMOOTH",
"563 694 OFFCURVE",
"554 705 OFFCURVE",
"539 705 CURVE SMOOTH",
"156 705 LINE SMOOTH",
"138 705 OFFCURVE",
"128 696 OFFCURVE",
"127 678 CURVE SMOOTH",
"76 30 LINE SMOOTH",
"75 11 OFFCURVE",
"85 0 OFFCURVE",
"104 0 CURVE SMOOTH"
);
},
{
closed = 1;
nodes = (
"494 334 LINE SMOOTH",
"509 334 OFFCURVE",
"518 345 OFFCURVE",
"518 358 CURVE SMOOTH",
"518 371 OFFCURVE",
"509 382 OFFCURVE",
"494 382 CURVE SMOOTH",
"145 382 LINE",
"145 334 LINE"
);
}
);
width = 578;
}
);
leftKerningGroup = H;
rightKerningGroup = E;
unicode = 0045;
userData = {
anchors = (
);
b = {
};
com.typemytype.robofont.layerData = {
b = {
anchors = (
);
components = (
);
contours = (
);
lib = {
};
name = E;
unicodes = (
);
width = 1234;
};
};
components = (
);
contours = (
);
lib = {
};
name = E;
unicodes = (
);
width = 1258;
};
},
{
glyphname = Eogonek;
layers = (
{
anchors = (
{
name = top;
position = "{376, 705}";
}
);
background = {
anchors = (
{
name = top;
position = "{357, 705}";
}
);
paths = (
{
closed = 1;
nodes = (
"142 334 LINE",
"511 334 LINE",
"515 382 LINE",
"146 382 LINE"
);
},
{
closed = 1;
nodes = (
"180 657 LINE",
"557 657 LINE",
"560 705 LINE",
"129 705 LINE",
"74 0 LINE",
"429 0 LINE",
"410 19 LINE",
"364 -5 OFFCURVE",
"337 -44 OFFCURVE",
"337 -95 CURVE SMOOTH",
"337 -152 OFFCURVE",
"378 -191 OFFCURVE",
"444 -191 CURVE SMOOTH",
"475 -191 OFFCURVE",
"506 -180 OFFCURVE",
"524 -168 CURVE",
"511 -129 LINE",
"489 -142 OFFCURVE",
"466 -148 OFFCURVE",
"450 -148 CURVE SMOOTH",
"411 -148 OFFCURVE",
"388 -127 OFFCURVE",
"388 -85 CURVE SMOOTH",
"388 -40 OFFCURVE",
"417 0 OFFCURVE",
"492 0 CURVE SMOOTH",
"505 0 LINE",
"509 48 LINE",
"132 48 LINE"
);
}
);
};
layerId = "9E718F8A-2CEA-4931-B05D-987794BD97DA";
paths = (
{
closed = 1;
nodes = (
"467 -191 OFFCURVE",
"490 -186 OFFCURVE",
"512 -174 CURVE SMOOTH",
"537 -160 OFFCURVE",
"532 -119 OFFCURVE",
"499 -135 CURVE SMOOTH",
"481 -144 OFFCURVE",
"462 -148 OFFCURVE",
"450 -148 CURVE SMOOTH",
"411 -148 OFFCURVE",
"388 -127 OFFCURVE",
"388 -86 CURVE SMOOTH",
"388 -41 OFFCURVE",
"417 0 OFFCURVE",
"488 0 CURVE SMOOTH",
"503 0 OFFCURVE",
"512 11 OFFCURVE",
"512 24 CURVE SMOOTH",
"512 37 OFFCURVE",
"503 48 OFFCURVE",
"488 48 CURVE SMOOTH",
"132 48 LINE",
"180 657 LINE",
"539 657 LINE SMOOTH",
"554 657 OFFCURVE",
"563 668 OFFCURVE",
"563 681 CURVE SMOOTH",
"563 694 OFFCURVE",
"554 705 OFFCURVE",
"539 705 CURVE SMOOTH",
"156 705 LINE SMOOTH",
"138 705 OFFCURVE",
"128 696 OFFCURVE",
"127 678 CURVE SMOOTH",
"76 30 LINE SMOOTH",
"75 11 OFFCURVE",
"85 0 OFFCURVE",
"104 0 CURVE SMOOTH",
"429 0 LINE",
"410 19 LINE",
"364 -5 OFFCURVE",
"337 -44 OFFCURVE",
"337 -95 CURVE SMOOTH",
"337 -152 OFFCURVE",
"378 -191 OFFCURVE",
"442 -191 CURVE SMOOTH"
);
},
{
closed = 1;
nodes = (
"494 334 LINE SMOOTH",
"509 334 OFFCURVE",
"518 345 OFFCURVE",
"518 358 CURVE SMOOTH",
"518 371 OFFCURVE",
"509 382 OFFCURVE",
"494 382 CURVE SMOOTH",
"145 382 LINE",
"145 334 LINE"
);
}
);
width = 578;
}
);
leftKerningGroup = H;
rightKerningGroup = E;
unicode = 0118;
userData = {
com.typemytype.robofont.layerData = {
b = {
anchors = (
);
components = (
);
contours = (
);
lib = {
};
name = Eogonek;
unicodes = (
);
width = 1234;
};
};
};
},
{
glyphname = F;
layers = (
{
anchors = (
{
name = bottom;
position = "{287, 0}";
},
{
name = top;
position = "{321, 705}";
}
);
background = {
anchors = (
{
name = bottom;
position = "{306, 0}";
},
{
name = top;
position = "{340, 705}";
}
);
paths = (
{
closed = 1;
nodes = (
"120 -5 OFFCURVE",
"129 7 OFFCURVE",
"130 24 CURVE SMOOTH",
"155 334 LINE",
"483 334 LINE SMOOTH",
"497 334 OFFCURVE",
"507 343 OFFCURVE",
"508 358 CURVE SMOOTH",
"510 373 OFFCURVE",
"500 382 OFFCURVE",
"486 382 CURVE SMOOTH",
"158 382 LINE",
"180 657 LINE",
"528 657 LINE SMOOTH",
"542 657 OFFCURVE",
"553 666 OFFCURVE",
"554 681 CURVE SMOOTH",
"555 696 OFFCURVE",
"546 705 OFFCURVE",
"532 705 CURVE SMOOTH",
"160 705 LINE SMOOTH",
"143 705 OFFCURVE",
"129 693 OFFCURVE",
"128 677 CURVE SMOOTH",
"76 24 LINE SMOOTH",
"75 7 OFFCURVE",
"85 -5 OFFCURVE",
"101 -5 CURVE SMOOTH"
);
}
);
};
layerId = "9E718F8A-2CEA-4931-B05D-987794BD97DA";
paths = (
{
closed = 1;
nodes = (
"145 334 LINE",
"484 334 LINE SMOOTH",
"499 334 OFFCURVE",
"508 345 OFFCURVE",
"508 358 CURVE SMOOTH",
"508 371 OFFCURVE",
"499 382 OFFCURVE",
"484 382 CURVE SMOOTH",
"145 382 LINE"
);
},
{
closed = 1;
nodes = (
"180 657 LINE",
"529 657 LINE SMOOTH",
"544 657 OFFCURVE",
"553 668 OFFCURVE",
"553 681 CURVE SMOOTH",
"553 694 OFFCURVE",
"544 705 OFFCURVE",
"529 705 CURVE SMOOTH",
"157 705 LINE SMOOTH",
"139 705 OFFCURVE",
"128 696 OFFCURVE",
"127 678 CURVE SMOOTH",
"75 24 LINE SMOOTH",
"74 6 OFFCURVE",
"87 -5 OFFCURVE",
"102 -5 CURVE SMOOTH",
"116 -5 OFFCURVE",
"128 4 OFFCURVE",
"129 20 CURVE SMOOTH"
);
}
);
width = 551;
}
);
leftKerningGroup = H;
rightKerningGroup = F;
unicode = 0046;
userData = {
anchors = (
);
b = {
};
com.typemytype.robofont.layerData = {
b = {
anchors = (
);
components = (
);
contours = (
{
points = (
{
segmentType = curve;
smooth = 1;
x = 266;
y = 0;
},
{
segmentType = line;
smooth = 1;
x = 1035;
y = 0;
},
{
smooth = 0;
x = 1084;
y = 0;
},
{
smooth = 0;
x = 1108;
y = 34;
},
{
segmentType = curve;
smooth = 1;
x = 1108;
y = 71;
},
{
smooth = 0;
x = 1108;
y = 107;
},
{
smooth = 0;
x = 1084;
y = 141;
},
{
segmentType = curve;
smooth = 1;
x = 1035;
y = 141;
},
{
segmentType = line;
smooth = 0;
x = 353;
y = 141;
},
{
segmentType = line;
smooth = 0;
x = 353;
y = 665;
},
{
segmentType = line;
smooth = 1;
x = 975;
y = 665;
},
{
smooth = 0;
x = 1024;
y = 665;
},
{
smooth = 0;
x = 1049;
y = 698;
},
{
segmentType = curve;
smooth = 1;
x = 1049;
y = 734;
},
{
smooth = 0;
x = 1049;
y = 770;
},
{
smooth = 0;
x = 1026;
y = 803;
},
{
segmentType = curve;
smooth = 1;
x = 975;
y = 803;
},
{
segmentType = line;
smooth = 0;
x = 353;
y = 803;
},
{
segmentType = line;
smooth = 0;
x = 353;
y = 1285;
},
{
segmentType = line;
smooth = 1;
x = 1007;
y = 1285;
},
{
smooth = 0;
x = 1056;
y = 1285;
},
{
smooth = 0;
x = 1080;
y = 1319;
},
{
segmentType = curve;
smooth = 1;
x = 1080;
y = 1356;
},
{
smooth = 0;
x = 1080;
y = 1392;
},
{
smooth = 0;
x = 1056;
y = 1426;
},
{
segmentType = curve;
smooth = 1;
x = 1007;
y = 1426;
},
{
segmentType = line;
smooth = 1;
x = 261;
y = 1426;
},
{
smooth = 0;
x = 213;
y = 1426;
},
{
smooth = 0;
x = 178;
y = 1383;
},
{
segmentType = curve;
smooth = 1;
x = 178;
y = 1340;
},
{
segmentType = line;
smooth = 1;
x = 178;
y = 86;
},
{
smooth = 0;
x = 178;
y = 41;
},
{
smooth = 0;
x = 222;
y = 0;
}
);
}
);
lib = {
};
name = F;
unicodes = (
);
width = 1142;
};
};
components = (
);
contours = (
);
lib = {
};
name = F;
unicodes = (
);
width = 1175;
};
},
{
glyphname = G;
layers = (
{
anchors = (
{
name = bottom;
position = "{374, 0}";
},
{
name = top;
position = "{422, 705}";
}
);
background = {
anchors = (
{
name = bottom;
position = "{393, 0}";
},
{
name = top;
position = "{441, 705}";
}
);
paths = (
{
closed = 1;
nodes = (
"455 -8 OFFCURVE",
"542 8 OFFCURVE",
"598 34 CURVE SMOOTH",
"611 40 OFFCURVE",
"618 50 OFFCURVE",
"619 64 CURVE SMOOTH",
"641 334 LINE SMOOTH",
"642 349 OFFCURVE",
"633 359 OFFCURVE",
"619 359 CURVE SMOOTH",
"426 359 LINE SMOOTH",
"409 359 OFFCURVE",
"398 349 OFFCURVE",
"397 335 CURVE SMOOTH",
"396 322 OFFCURVE",
"405 311 OFFCURVE",
"422 311 CURVE SMOOTH",
"589 311 LINE",
"567 43 LINE",
"585 82 LINE",
"529 56 OFFCURVE",
"453 41 OFFCURVE",
"377 41 CURVE SMOOTH",
"202 41 OFFCURVE",
"116 151 OFFCURVE",
"132 353 CURVE SMOOTH",
"148 551 OFFCURVE",
"252 663 OFFCURVE",
"420 663 CURVE SMOOTH",
"499 663 OFFCURVE",
"549 644 OFFCURVE",
"618 583 CURVE SMOOTH",
"628 575 OFFCURVE",
"633 574 OFFCURVE",
"638 574 CURVE SMOOTH",
"649 574 OFFCURVE",
"657 585 OFFCURVE",
"658 598 CURVE SMOOTH",
"659 607 OFFCURVE",
"656 616 OFFCURVE",
"649 625 CURVE SMOOTH",
"600 681 OFFCURVE",
"517 713 OFFCURVE",
"424 713 CURVE SMOOTH",
"225 713 OFFCURVE",
"92 577 OFFCURVE",
"74 353 CURVE SMOOTH",
"56 125 OFFCURVE",
"167 -8 OFFCURVE",
"373 -8 CURVE SMOOTH"
);
}
);
};
layerId = "9E718F8A-2CEA-4931-B05D-987794BD97DA";
paths = (
{
closed = 1;
nodes = (
"457 -8 OFFCURVE",
"543 9 OFFCURVE",
"600 33 CURVE SMOOTH",
"611 37 OFFCURVE",
"618 47 OFFCURVE",
"619 61 CURVE SMOOTH",
"639 325 LINE SMOOTH",
"640 344 OFFCURVE",
"627 359 OFFCURVE",
"608 359 CURVE SMOOTH",
"425 359 LINE SMOOTH",
"408 359 OFFCURVE",
"397 350 OFFCURVE",
"397 335 CURVE SMOOTH",
"397 322 OFFCURVE",
"408 311 OFFCURVE",
"425 311 CURVE SMOOTH",
"588 311 LINE",
"567 41 LINE",
"584 80 LINE",
"529 56 OFFCURVE",
"453 41 OFFCURVE",
"387 41 CURVE SMOOTH",
"214 41 OFFCURVE",
"129 142 OFFCURVE",
"129 315 CURVE SMOOTH",
"129 533 OFFCURVE",
"236 663 OFFCURVE",
"416 663 CURVE SMOOTH",
"498 663 OFFCURVE",
"560 638 OFFCURVE",
"623 581 CURVE SMOOTH",
"651 556 OFFCURVE",
"680 598 OFFCURVE",
"652 625 CURVE SMOOTH",
"594 682 OFFCURVE",
"513 712 OFFCURVE",
"416 712 CURVE SMOOTH",
"205 712 OFFCURVE",
"72 557 OFFCURVE",
"72 311 CURVE SMOOTH",
"72 112 OFFCURVE",
"181 -8 OFFCURVE",
"388 -8 CURVE SMOOTH"
);
}
);
width = 718;
}
);
leftKerningGroup = O;
rightKerningGroup = G;
unicode = 0047;
userData = {
anchors = (
);
b = {
};
com.typemytype.robofont.layerData = {
b = {
anchors = (
);
components = (
);
contours = (
{
points = (
{
segmentType = curve;
smooth = 1;
x = 783;
y = "-22";
},
{
smooth = 0;
x = 965;
y = "-22";
},
{
smooth = 0;
x = 1086;
y = 34;
},
{
segmentType = curve;
smooth = 1;
x = 1166;
y = 86;
},
{
smooth = 0;
x = 1270;
y = 154;
},
{
smooth = 0;
x = 1186;
y = 258;
},
{
segmentType = curve;
smooth = 1;
x = 1112;
y = 214;
},
{
smooth = 0;
x = 1024;
y = 162;
},
{
smooth = 0;
x = 939;
y = 120;
},
{
segmentType = curve;
smooth = 1;
x = 806;
y = 120;
},
{
smooth = 0;
x = 446;
y = 120;
},
{
smooth = 0;
x = 316;
y = 406;
},
{
segmentType = curve;
smooth = 1;
x = 316;
y = 706;
},
{
smooth = 0;
x = 316;
y = 1005;
},
{
smooth = 0;
x = 450;
y = 1296;
},
{
segmentType = curve;
smooth = 1;
x = 801;
y = 1296;
},
{
smooth = 0;
x = 980;
y = 1296;
},
{
smooth = 0;
x = 1053;
y = 1246;
},
{
segmentType = curve;
smooth = 1;
x = 1094;
y = 1225;
},
{
smooth = 0;
x = 1174;
y = 1184;
},
{
smooth = 0;
x = 1231;
y = 1300;
},
{
segmentType = curve;
smooth = 1;
x = 1156;
y = 1343;
},
{
smooth = 0;
x = 1106;
y = 1372;
},
{
smooth = 0;
x = 995;
y = 1438;
},
{
segmentType = curve;
smooth = 1;
x = 797;
y = 1438;
},
{
smooth = 0;
x = 359;
y = 1438;
},
{
smooth = 0;
x = 128;
y = 1093;
},
{
segmentType = curve;
smooth = 1;
x = 128;
y = 704;
},
{
smooth = 0;
x = 128;
y = 307;
},
{
smooth = 0;
x = 350;
y = "-22";
}
);
}
);
lib = {
};
name = G;
unicodes = (
);
width = 1448;
};
};
components = (
);
contours = (
);
lib = {
};
name = G;
unicodes = (
);
width = 1538;
};
},
{
glyphname = H;
layers = (
{
anchors = (
{
name = bottom;
position = "{358, 0}";
},
{
name = center;
position = "{386, 358}";
},
{
name = top;
position = "{412, 705}";
},
{
name = topleft;
position = "{62, 705}";
}
);
background = {
anchors = (
{
name = bottom;
position = "{377, 0}";
},
{
name = center;
position = "{405, 358}";
},
{
name = top;
position = "{431, 705}";
},
{
name = topleft;
position = "{81, 705}";
}
);
paths = (
{
closed = 1;
nodes = (
"631 -5 OFFCURVE",
"642 7 OFFCURVE",
"643 24 CURVE SMOOTH",
"695 681 LINE SMOOTH",
"696 698 OFFCURVE",
"687 710 OFFCURVE",
"670 710 CURVE SMOOTH",
"653 710 OFFCURVE",
"642 698 OFFCURVE",
"641 681 CURVE SMOOTH",
"589 24 LINE SMOOTH",
"588 7 OFFCURVE",
"597 -5 OFFCURVE",
"614 -5 CURVE SMOOTH"
);
},
{
closed = 1;
nodes = (
"118 -5 OFFCURVE",
"129 7 OFFCURVE",
"130 24 CURVE SMOOTH",
"182 681 LINE SMOOTH",
"183 698 OFFCURVE",
"174 710 OFFCURVE",
"157 710 CURVE SMOOTH",
"140 710 OFFCURVE",
"129 698 OFFCURVE",
"128 681 CURVE SMOOTH",
"76 24 LINE SMOOTH",
"75 7 OFFCURVE",
"84 -5 OFFCURVE",
"101 -5 CURVE SMOOTH"
);
},
{
closed = 1;
nodes = (
"623 334 LINE",
"626 382 LINE",
"138 382 LINE",
"135 334 LINE"
);
}
);
};
layerId = "9E718F8A-2CEA-4931-B05D-987794BD97DA";
paths = (
{
closed = 1;
nodes = (
"629 -5 OFFCURVE",
"641 4 OFFCURVE",
"642 20 CURVE SMOOTH",
"694 681 LINE SMOOTH",
"695 699 OFFCURVE",
"682 710 OFFCURVE",
"667 710 CURVE SMOOTH",
"653 710 OFFCURVE",
"641 701 OFFCURVE",
"640 685 CURVE SMOOTH",
"588 24 LINE SMOOTH",
"587 6 OFFCURVE",
"600 -5 OFFCURVE",
"615 -5 CURVE SMOOTH"
);
},
{
closed = 1;
nodes = (
"117 -5 OFFCURVE",
"129 4 OFFCURVE",
"130 20 CURVE SMOOTH",
"182 681 LINE SMOOTH",
"183 699 OFFCURVE",
"170 710 OFFCURVE",
"155 710 CURVE SMOOTH",
"141 710 OFFCURVE",
"129 701 OFFCURVE",
"128 685 CURVE SMOOTH",
"76 24 LINE SMOOTH",
"75 6 OFFCURVE",
"88 -5 OFFCURVE",
"103 -5 CURVE SMOOTH"
);
},
{
closed = 1;
nodes = (
"633 334 LINE",
"633 382 LINE",
"137 382 LINE",
"137 334 LINE"
);
}
);
width = 753;
}
);
leftKerningGroup = H;
rightKerningGroup = H;
unicode = 0048;
userData = {
anchors = (
);
b = {
};
com.typemytype.robofont.layerData = {
b = {
anchors = (
);
components = (
);
contours = (
);
lib = {
};
name = H;
unicodes = (
);
width = 1464;
};
};
components = (
);
contours = (
);
lib = {
};
name = H;
unicodes = (
);
width = 1524;
};
},
{
glyphname = Hbar;
layers = (
{
background = {
paths = (
{
closed = 1;
nodes = (
"638 -5 OFFCURVE",
"649 7 OFFCURVE",
"650 24 CURVE SMOOTH",
"702 681 LINE SMOOTH",
"703 698 OFFCURVE",
"694 710 OFFCURVE",
"677 710 CURVE SMOOTH",
"660 710 OFFCURVE",
"649 698 OFFCURVE",
"648 681 CURVE SMOOTH",
"596 24 LINE SMOOTH",
"595 7 OFFCURVE",
"604 -5 OFFCURVE",
"621 -5 CURVE SMOOTH"
);
},
{
closed = 1;
nodes = (
"125 -5 OFFCURVE",
"136 7 OFFCURVE",
"137 24 CURVE SMOOTH",
"189 681 LINE SMOOTH",
"190 698 OFFCURVE",
"181 710 OFFCURVE",
"164 710 CURVE SMOOTH",
"147 710 OFFCURVE",
"136 698 OFFCURVE",
"135 681 CURVE SMOOTH",
"83 24 LINE SMOOTH",
"82 7 OFFCURVE",
"91 -5 OFFCURVE",
"108 -5 CURVE SMOOTH"
);
},
{
closed = 1;
nodes = (
"630 334 LINE",
"633 382 LINE",
"145 382 LINE",
"142 334 LINE"
);
},
{
closed = 1;
nodes = (
"767 525 LINE SMOOTH",
"781 525 OFFCURVE",
"790 533 OFFCURVE",
"792 548 CURVE SMOOTH",
"793 563 OFFCURVE",
"784 571 OFFCURVE",
"770 571 CURVE SMOOTH",
"51 571 LINE SMOOTH",
"37 571 OFFCURVE",
"26 563 OFFCURVE",
"25 548 CURVE SMOOTH",
"23 533 OFFCURVE",
"34 525 OFFCURVE",
"48 525 CURVE SMOOTH"
);
}
);
};
layerId = "9E718F8A-2CEA-4931-B05D-987794BD97DA";
paths = (
{
closed = 1;
nodes = (
"768 525 LINE SMOOTH",
"780 525 OFFCURVE",
"791 535 OFFCURVE",
"791 548 CURVE SMOOTH",
"791 561 OFFCURVE",
"780 571 OFFCURVE",
"768 571 CURVE SMOOTH",
"47 571 LINE SMOOTH",
"35 571 OFFCURVE",
"24 561 OFFCURVE",
"24 548 CURVE SMOOTH",
"24 535 OFFCURVE",
"35 525 OFFCURVE",
"47 525 CURVE SMOOTH"
);
},
{
closed = 1;
nodes = (
"637 -5 OFFCURVE",
"649 4 OFFCURVE",
"650 20 CURVE SMOOTH",
"702 681 LINE SMOOTH",
"703 699 OFFCURVE",
"690 710 OFFCURVE",
"675 710 CURVE SMOOTH",
"661 710 OFFCURVE",
"649 701 OFFCURVE",
"648 685 CURVE SMOOTH",
"596 24 LINE SMOOTH",
"595 6 OFFCURVE",
"608 -5 OFFCURVE",
"623 -5 CURVE SMOOTH"
);
},
{
closed = 1;
nodes = (
"125 -5 OFFCURVE",
"137 4 OFFCURVE",
"138 20 CURVE SMOOTH",
"190 681 LINE SMOOTH",
"191 699 OFFCURVE",
"178 710 OFFCURVE",
"163 710 CURVE SMOOTH",
"149 710 OFFCURVE",
"137 701 OFFCURVE",
"136 685 CURVE SMOOTH",
"84 24 LINE SMOOTH",
"83 6 OFFCURVE",
"96 -5 OFFCURVE",
"111 -5 CURVE SMOOTH"
);
},
{
closed = 1;
nodes = (
"641 334 LINE",
"641 382 LINE",
"145 382 LINE",
"145 334 LINE"
);
}
);
width = 767;
}
);
leftKerningGroup = H;
rightKerningGroup = H;
unicode = 0126;
userData = {
com.typemytype.robofont.layerData = {
b = {
anchors = (
);
components = (
);
contours = (
);
lib = {
};
name = Hbar;
unicodes = (
);
width = 1464;
};
};
};
},
{
glyphname = I;
layers = (
{
anchors = (
{
name = bottom;
position = "{101, 0}";
},
{
name = ogonek;
position = "{126, 10}";
},
{
name = top;
position = "{156, 705}";
},
{
name = topleft;
position = "{62, 705}";
}
);
background = {
anchors = (
{
name = bottom;
position = "{120, 0}";
},
{
name = ogonek;
position = "{145, 10}";
},
{
name = top;
position = "{175, 705}";
},
{
name = topleft;
position = "{81, 705}";
}
);
paths = (
{
closed = 1;
nodes = (
"118 -5 OFFCURVE",
"129 7 OFFCURVE",
"130 24 CURVE SMOOTH",
"182 681 LINE SMOOTH",
"183 698 OFFCURVE",
"174 710 OFFCURVE",
"157 710 CURVE SMOOTH",
"140 710 OFFCURVE",
"129 698 OFFCURVE",
"128 681 CURVE SMOOTH",
"76 24 LINE SMOOTH",
"75 7 OFFCURVE",
"84 -5 OFFCURVE",
"101 -5 CURVE SMOOTH"
);
}
);
};
layerId = "9E718F8A-2CEA-4931-B05D-987794BD97DA";
paths = (
{
closed = 1;
nodes = (
"117 -5 OFFCURVE",
"129 4 OFFCURVE",
"130 20 CURVE SMOOTH",
"182 681 LINE SMOOTH",
"183 699 OFFCURVE",
"170 710 OFFCURVE",
"155 710 CURVE SMOOTH",
"141 710 OFFCURVE",
"129 701 OFFCURVE",
"128 685 CURVE SMOOTH",
"76 24 LINE SMOOTH",
"75 6 OFFCURVE",
"88 -5 OFFCURVE",
"103 -5 CURVE SMOOTH"
);
}
);
width = 240;
}
);
leftKerningGroup = H;
rightKerningGroup = H;
unicode = 0049;
userData = {
anchors = (
);
b = {
};
com.typemytype.robofont.layerData = {
b = {
anchors = (
);
components = (
);
contours = (
);
lib = {
};
name = I;
unicodes = (
);
width = 592;
};
};
components = (
);
contours = (
);
lib = {
};
name = I;
unicodes = (
);
width = 637;
};
},
{
glyphname = Iogonek;
layers = (
{
background = {
paths = (
{
closed = 1;
nodes = (
"117 -5 OFFCURVE",
"129 4 OFFCURVE",
"130 20 CURVE SMOOTH",
"182 681 LINE SMOOTH",
"183 699 OFFCURVE",
"170 710 OFFCURVE",
"155 710 CURVE SMOOTH",
"141 710 OFFCURVE",
"129 701 OFFCURVE",
"128 685 CURVE SMOOTH",
"76 24 LINE SMOOTH",
"75 6 OFFCURVE",
"88 -5 OFFCURVE",
"103 -5 CURVE SMOOTH"
);
},
{
closed = 1;
nodes = (
"105 -191 OFFCURVE",
"128 -186 OFFCURVE",
"150 -174 CURVE SMOOTH",
"175 -160 OFFCURVE",
"170 -119 OFFCURVE",
"137 -135 CURVE SMOOTH",
"119 -144 OFFCURVE",
"100 -148 OFFCURVE",
"88 -148 CURVE SMOOTH",
"49 -148 OFFCURVE",
"26 -127 OFFCURVE",
"26 -86 CURVE SMOOTH",
"26 -41 OFFCURVE",
"52 -5 OFFCURVE",
"103 -5 CURVE",
"107 31 LINE",
"26 26 OFFCURVE",
"-25 -26 OFFCURVE",
"-25 -95 CURVE SMOOTH",
"-25 -152 OFFCURVE",
"16 -191 OFFCURVE",
"80 -191 CURVE SMOOTH"
);
}
);
};
layerId = "9E718F8A-2CEA-4931-B05D-987794BD97DA";
paths = (
{
closed = 1;
nodes = (
"105 -191 OFFCURVE",
"128 -186 OFFCURVE",
"150 -174 CURVE SMOOTH",
"175 -160 OFFCURVE",
"170 -119 OFFCURVE",
"137 -135 CURVE SMOOTH",
"119 -144 OFFCURVE",
"100 -148 OFFCURVE",
"88 -148 CURVE SMOOTH",
"49 -148 OFFCURVE",
"26 -127 OFFCURVE",
"26 -86 CURVE SMOOTH",
"26 -41 OFFCURVE",
"52 -9 OFFCURVE",
"101 -5 CURVE SMOOTH",
"117 -4 OFFCURVE",
"129 4 OFFCURVE",
"130 20 CURVE SMOOTH",
"182 681 LINE SMOOTH",
"183 699 OFFCURVE",
"170 710 OFFCURVE",
"155 710 CURVE SMOOTH",
"141 710 OFFCURVE",
"129 701 OFFCURVE",
"128 685 CURVE SMOOTH",
"76 26 LINE SMOOTH",
"75 16 OFFCURVE",
"78 7 OFFCURVE",
"87 0 CURVE",
"107 36 LINE",
"26 31 OFFCURVE",
"-25 -21 OFFCURVE",
"-25 -95 CURVE SMOOTH",
"-25 -152 OFFCURVE",
"16 -191 OFFCURVE",
"80 -191 CURVE SMOOTH"
);
}
);
width = 240;
}
);
leftKerningGroup = H;
rightKerningGroup = H;
unicode = 012E;
},
{
glyphname = J;
layers = (
{
anchors = (
{
name = bottom;
position = "{167, 0}";
},
{
name = top;
position = "{222, 705}";
}
);
background = {
anchors = (
{
name = bottom;
position = "{167, 0}";
},
{
name = top;
position = "{222, 705}";
}
);
paths = (
{
closed = 1;
nodes = (
"36 -3 LINE SMOOTH",
"141 4 OFFCURVE",
"199 58 OFFCURVE",
"208 180 CURVE SMOOTH",
"248 681 LINE SMOOTH",
"249 698 OFFCURVE",
"241 710 OFFCURVE",
"223 710 CURVE SMOOTH",
"209 710 OFFCURVE",
"195 698 OFFCURVE",
"194 681 CURVE SMOOTH",
"154 182 LINE SMOOTH",
"147 83 OFFCURVE",
"106 49 OFFCURVE",
"31 44 CURVE SMOOTH",
"2 42 LINE SMOOTH",
"-17 41 OFFCURVE",
"-26 31 OFFCURVE",
"-27 18 CURVE SMOOTH",
"-28 4 OFFCURVE",
"-18 -7 OFFCURVE",
"6 -5 CURVE SMOOTH"
);
}
);
};
layerId = "9E718F8A-2CEA-4931-B05D-987794BD97DA";
paths = (
{
closed = 1;
nodes = (
"31 -3 LINE SMOOTH",
"138 3 OFFCURVE",
"199 65 OFFCURVE",
"208 180 CURVE SMOOTH",
"248 682 LINE SMOOTH",
"249 699 OFFCURVE",
"240 710 OFFCURVE",
"223 710 CURVE SMOOTH",
"207 710 OFFCURVE",
"195 699 OFFCURVE",
"194 682 CURVE SMOOTH",
"154 182 LINE SMOOTH",
"147 97 OFFCURVE",
"104 49 OFFCURVE",
"29 44 CURVE SMOOTH",
"-3 42 LINE SMOOTH",
"-18 41 OFFCURVE",
"-26 30 OFFCURVE",
"-26 20 CURVE SMOOTH",
"-27 7 OFFCURVE",
"-19 -6 OFFCURVE",
"-2 -5 CURVE SMOOTH"
);
}
);
width = 306;
}
);
leftKerningGroup = J;
rightKerningGroup = J;
unicode = 004A;
userData = {
anchors = (
);
b = {
};
com.typemytype.robofont.layerData = {
b = {
anchors = (
);
components = (
);
contours = (
);
lib = {
};
name = J;
unicodes = (
);
width = 1003;
};
};
components = (
);
contours = (
);
lib = {
};
name = J;
unicodes = (
);
width = 1126;
};
},
{
glyphname = K;
layers = (
{
anchors = (
{
name = bottom;
position = "{287, 0}";
},
{
name = top;
position = "{341, 705}";
}
);
background = {
anchors = (
{
name = bottom;
position = "{287, 0}";
},
{
name = top;
position = "{341, 705}";
}
);
paths = (
{
closed = 1;
nodes = (
"1250 -18 OFFCURVE",
"1286 17 OFFCURVE",
"1260 41 CURVE SMOOTH",
"888 379 LINE",
"885 339 LINE",
"1291 665 LINE SMOOTH",
"1319 688 OFFCURVE",
"1289 724 OFFCURVE",
"1262 702 CURVE SMOOTH",
"834 357 LINE",
"1227 2 LINE SMOOTH"
);
},
{
closed = 1;
nodes = (
"818 -5 OFFCURVE",
"829 7 OFFCURVE",
"830 24 CURVE SMOOTH",
"882 681 LINE SMOOTH",
"883 698 OFFCURVE",
"874 710 OFFCURVE",
"857 710 CURVE SMOOTH",
"840 710 OFFCURVE",
"829 698 OFFCURVE",
"828 681 CURVE SMOOTH",
"776 24 LINE SMOOTH",
"775 7 OFFCURVE",
"784 -5 OFFCURVE",
"801 -5 CURVE SMOOTH"
);
},
{
closed = 1;
nodes = (
"598 0 LINE",
"191 376 LINE",
"181 339 LINE",
"641 705 LINE",
"564 705 LINE",
"134 360 LINE",
"528 0 LINE"
);
},
{
closed = 1;
nodes = (
"128 0 LINE",
"183 705 LINE",
"129 705 LINE",
"74 0 LINE"
);
}
);
};
layerId = "9E718F8A-2CEA-4931-B05D-987794BD97DA";
paths = (
{
closed = 1;
nodes = (
"551 -19 OFFCURVE",
"584 15 OFFCURVE",
"560 37 CURVE SMOOTH",
"191 375 LINE",
"181 339 LINE",
"593 667 LINE SMOOTH",
"619 687 OFFCURVE",
"587 723 OFFCURVE",
"563 704 CURVE SMOOTH",
"134 360 LINE",
"528 2 LINE SMOOTH"
);
},
{
closed = 1;
nodes = (
"117 -5 OFFCURVE",
"129 7 OFFCURVE",
"130 20 CURVE SMOOTH",
"182 681 LINE SMOOTH",
"183 696 OFFCURVE",
"170 710 OFFCURVE",
"155 710 CURVE SMOOTH",
"141 710 OFFCURVE",
"129 698 OFFCURVE",
"128 685 CURVE SMOOTH",
"76 24 LINE SMOOTH",
"75 9 OFFCURVE",
"88 -5 OFFCURVE",
"103 -5 CURVE SMOOTH"
);
}
);
width = 608;
}
);
leftKerningGroup = H;
rightKerningGroup = K;
unicode = 004B;
userData = {
anchors = (
);
b = {
};
com.typemytype.robofont.layerData = {
b = {
anchors = (
);
components = (
);
contours = (
);
lib = {
};
name = K;
unicodes = (
);
width = 1210;
};
};
components = (
);
contours = (
);
lib = {
};
name = K;
unicodes = (
);
width = 1329;
};
},
{
glyphname = L;
layers = (
{
anchors = (
{
name = bottom;
position = "{288, 0}";
},
{
name = center;
position = "{343, 353}";
},
{
name = top;
position = "{156, 705}";
},
{
name = topright;
position = "{273, 705}";
}
);
background = {
anchors = (
{
name = bottom;
position = "{288, 0}";
},
{
name = center;
position = "{343, 353}";
},
{
name = top;
position = "{156, 705}";
},
{
name = topright;
position = "{273, 705}";
}
);
paths = (
{
closed = 1;
nodes = (
"477 0 LINE SMOOTH",
"491 0 OFFCURVE",
"502 9 OFFCURVE",
"503 24 CURVE SMOOTH",
"504 39 OFFCURVE",
"495 48 OFFCURVE",
"481 48 CURVE SMOOTH",
"132 48 LINE",
"182 681 LINE SMOOTH",
"183 698 OFFCURVE",
"175 710 OFFCURVE",
"157 710 CURVE SMOOTH",
"140 710 OFFCURVE",
"129 698 OFFCURVE",
"128 681 CURVE SMOOTH",
"76 25 LINE SMOOTH",
"75 11 OFFCURVE",
"88 0 OFFCURVE",
"102 0 CURVE SMOOTH"
);
}
);
};
layerId = "9E718F8A-2CEA-4931-B05D-987794BD97DA";
paths = (
{
closed = 1;
nodes = (
"479 0 LINE SMOOTH",
"494 0 OFFCURVE",
"503 11 OFFCURVE",
"503 24 CURVE SMOOTH",
"503 37 OFFCURVE",
"494 48 OFFCURVE",
"479 48 CURVE SMOOTH",
"132 48 LINE",
"182 681 LINE SMOOTH",
"183 699 OFFCURVE",
"172 710 OFFCURVE",
"156 710 CURVE SMOOTH",
"141 710 OFFCURVE",
"129 701 OFFCURVE",
"128 685 CURVE SMOOTH",
"76 30 LINE SMOOTH",
"74 11 OFFCURVE",
"85 0 OFFCURVE",
"104 0 CURVE SMOOTH"
);
}
);
width = 531;
}
);
leftKerningGroup = H;
rightKerningGroup = L;
unicode = 004C;
userData = {
anchors = (
);
b = {
};
com.typemytype.robofont.layerData = {
b = {
anchors = (
);
components = (
);
contours = (
{
points = (
{
segmentType = curve;
smooth = 1;
x = 266;
y = 0;
},
{
segmentType = line;
smooth = 1;
x = 1035;
y = 0;
},
{
smooth = 0;
x = 1084;
y = 0;
},
{
smooth = 0;
x = 1108;
y = 34;
},
{
segmentType = curve;
smooth = 1;
x = 1108;
y = 71;
},
{
smooth = 0;
x = 1108;
y = 107;
},
{
smooth = 0;
x = 1084;
y = 141;
},
{
segmentType = curve;
smooth = 1;
x = 1035;
y = 141;
},
{
segmentType = line;
smooth = 0;
x = 356;
y = 141;
},
{
segmentType = line;
smooth = 0;
x = 356;
y = 665;
},
{
segmentType = line;
smooth = 1;
x = 975;
y = 665;
},
{
smooth = 0;
x = 1024;
y = 665;
},
{
smooth = 0;
x = 1049;
y = 698;
},
{
segmentType = curve;
smooth = 1;
x = 1049;
y = 734;
},
{
smooth = 0;
x = 1049;
y = 770;
},
{
smooth = 0;
x = 1026;
y = 803;
},
{
segmentType = curve;
smooth = 1;
x = 975;
y = 803;
},
{
segmentType = line;
smooth = 0;
x = 356;
y = 803;
},
{
segmentType = line;
smooth = 0;
x = 356;
y = 1285;
},
{
segmentType = line;
smooth = 1;
x = 1007;
y = 1285;
},
{
smooth = 0;
x = 1056;
y = 1285;
},
{
smooth = 0;
x = 1080;
y = 1319;
},
{
segmentType = curve;
smooth = 1;
x = 1080;
y = 1356;
},
{
smooth = 0;
x = 1080;
y = 1392;
},
{
smooth = 0;
x = 1056;
y = 1426;
},
{
segmentType = curve;
smooth = 1;
x = 1007;
y = 1426;
},
{
segmentType = line;
smooth = 1;
x = 261;
y = 1426;
},
{
smooth = 0;
x = 213;
y = 1426;
},
{
smooth = 0;
x = 178;
y = 1383;
},
{
segmentType = curve;
smooth = 1;
x = 178;
y = 1340;
},
{
segmentType = line;
smooth = 1;
x = 178;
y = 86;
},
{
smooth = 0;
x = 178;
y = 41;
},
{
smooth = 0;
x = 222;
y = 0;
}
);
}
);
lib = {
};
name = L;
unicodes = (
);
width = 1095;
};
};
components = (
);
contours = (
);
lib = {
};
name = L;
unicodes = (
);
width = 1169;
};
},
{
glyphname = LJ;
layers = (
{
background = {
paths = (
{
closed = 1;
nodes = (
"560 -2 LINE SMOOTH",
"667 6 OFFCURVE",
"728 65 OFFCURVE",
"737 180 CURVE SMOOTH",
"778 705 LINE",
"724 705 LINE",
"683 182 LINE SMOOTH",
"676 97 OFFCURVE",
"633 51 OFFCURVE",
"558 45 CURVE SMOOTH",
"504 41 LINE",
"505 -6 LINE"
);
},
{
closed = 1;
nodes = (
"449 0 LINE SMOOTH",
"464 0 OFFCURVE",
"473 11 OFFCURVE",
"473 24 CURVE SMOOTH",
"473 37 OFFCURVE",
"464 48 OFFCURVE",
"449 48 CURVE SMOOTH",
"132 48 LINE",
"182 681 LINE SMOOTH",
"183 699 OFFCURVE",
"172 710 OFFCURVE",
"156 710 CURVE SMOOTH",
"141 710 OFFCURVE",
"129 701 OFFCURVE",
"128 685 CURVE SMOOTH",
"76 30 LINE SMOOTH",
"74 11 OFFCURVE",
"85 0 OFFCURVE",
"104 0 CURVE SMOOTH"
);
}
);
};
layerId = "9E718F8A-2CEA-4931-B05D-987794BD97DA";
paths = (
{
closed = 1;
nodes = (
"449 0 LINE SMOOTH",
"464 0 OFFCURVE",
"473 11 OFFCURVE",
"473 24 CURVE SMOOTH",
"473 37 OFFCURVE",
"464 48 OFFCURVE",
"449 48 CURVE SMOOTH",
"132 48 LINE",
"182 681 LINE SMOOTH",
"183 699 OFFCURVE",
"172 710 OFFCURVE",
"156 710 CURVE SMOOTH",
"141 710 OFFCURVE",
"129 701 OFFCURVE",
"128 685 CURVE SMOOTH",
"76 30 LINE SMOOTH",
"74 11 OFFCURVE",
"85 0 OFFCURVE",
"104 0 CURVE SMOOTH"
);
},
{
closed = 1;
nodes = (
"560 -3 LINE SMOOTH",
"667 3 OFFCURVE",
"728 65 OFFCURVE",
"737 180 CURVE SMOOTH",
"777 682 LINE SMOOTH",
"778 699 OFFCURVE",
"769 710 OFFCURVE",
"752 710 CURVE SMOOTH",
"736 710 OFFCURVE",
"724 699 OFFCURVE",
"723 682 CURVE SMOOTH",
"683 182 LINE SMOOTH",
"676 97 OFFCURVE",
"633 48 OFFCURVE",
"558 44 CURVE SMOOTH",
"524 42 LINE SMOOTH",
"510 41 OFFCURVE",
"503 31 OFFCURVE",
"502 20 CURVE SMOOTH",
"501 7 OFFCURVE",
"509 -6 OFFCURVE",
"525 -5 CURVE SMOOTH"
);
}
);
width = 835;
}
);
leftKerningGroup = H;
rightKerningGroup = J;
unicode = 01C7;
},
{
glyphname = Lslash;
layers = (
{
background = {
paths = (
{
closed = 1;
nodes = (
"484 0 LINE SMOOTH",
"498 0 OFFCURVE",
"509 9 OFFCURVE",
"510 24 CURVE SMOOTH",
"511 39 OFFCURVE",
"502 48 OFFCURVE",
"488 48 CURVE SMOOTH",
"139 48 LINE",
"189 681 LINE SMOOTH",
"190 698 OFFCURVE",
"182 710 OFFCURVE",
"164 710 CURVE SMOOTH",
"147 710 OFFCURVE",
"136 698 OFFCURVE",
"135 681 CURVE SMOOTH",
"83 25 LINE SMOOTH",
"82 11 OFFCURVE",
"95 0 OFFCURVE",
"109 0 CURVE SMOOTH"
);
},
{
closed = 1;
nodes = (
"355 452 LINE SMOOTH",
"383 468 OFFCURVE",
"362 507 OFFCURVE",
"334 492 CURVE SMOOTH",
"19 319 LINE SMOOTH",
"-11 302 OFFCURVE",
"9 261 OFFCURVE",
"40 278 CURVE SMOOTH"
);
}
);
};
guideLines = (
{
position = "{345, 358}";
},
{
angle = 90;
position = "{-75, 125}";
},
{
angle = 90;
position = "{179, 125}";
},
{
angle = 90;
position = "{279, 125}";
}
);
layerId = "9E718F8A-2CEA-4931-B05D-987794BD97DA";
paths = (
{
closed = 1;
nodes = (
"486 0 LINE SMOOTH",
"501 0 OFFCURVE",
"510 11 OFFCURVE",
"510 24 CURVE SMOOTH",
"510 37 OFFCURVE",
"501 48 OFFCURVE",
"486 48 CURVE SMOOTH",
"139 48 LINE",
"189 681 LINE SMOOTH",
"190 699 OFFCURVE",
"179 710 OFFCURVE",
"163 710 CURVE SMOOTH",
"148 710 OFFCURVE",
"136 701 OFFCURVE",
"135 685 CURVE SMOOTH",
"83 30 LINE SMOOTH",
"81 11 OFFCURVE",
"92 0 OFFCURVE",
"111 0 CURVE SMOOTH"
);
},
{
closed = 1;
nodes = (
"355 452 LINE SMOOTH",
"381 466 OFFCURVE",
"360 506 OFFCURVE",
"334 492 CURVE SMOOTH",
"19 319 LINE SMOOTH",
"-9 304 OFFCURVE",
"11 262 OFFCURVE",
"40 278 CURVE SMOOTH"
);
}
);
width = 538;
}
);
leftKerningGroup = L;
rightKerningGroup = L;
unicode = 0141;
},
{
glyphname = M;
layers = (
{
anchors = (
{
name = bottom;
position = "{401, 0}";
},
{
name = top;
position = "{456, 705}";
}
);
background = {
paths = (
{
closed = 1;
nodes = (
"126 0 LINE",
"177 646 LINE",
"150 644 LINE",
"390 111 LINE",
"432 111 LINE",
"754 643 LINE",
"727 646 LINE",
"676 0 LINE",
"728 0 LINE",
"783 705 LINE",
"737 705 LINE",
"400 139 LINE",
"426 139 LINE",
"176 705 LINE",
"129 705 LINE",
"74 0 LINE"
);
}
);
};
layerId = "9E718F8A-2CEA-4931-B05D-987794BD97DA";
paths = (
{
closed = 1;
nodes = (
"115 -5 OFFCURVE",
"127 3 OFFCURVE",
"128 19 CURVE SMOOTH",
"177 646 LINE",
"150 644 LINE",
"383 127 LINE SMOOTH",
"388 115 OFFCURVE",
"399 108 OFFCURVE",
"412 108 CURVE SMOOTH",
"424 108 OFFCURVE",
"435 115 OFFCURVE",
"440 124 CURVE",
"754 643 LINE",
"727 646 LINE",
"677 23 LINE SMOOTH",
"676 6 OFFCURVE",
"688 -5 OFFCURVE",
"703 -5 CURVE SMOOTH",
"716 -5 OFFCURVE",
"728 3 OFFCURVE",
"729 19 CURVE SMOOTH",
"782 690 LINE SMOOTH",
"783 703 OFFCURVE",
"775 712 OFFCURVE",
"760 712 CURVE SMOOTH",
"745 712 OFFCURVE",
"737 706 OFFCURVE",
"731 695 CURVE SMOOTH",
"400 139 LINE",
"426 139 LINE",
"183 689 LINE SMOOTH",
"177 703 OFFCURVE",
"168 710 OFFCURVE",
"156 710 CURVE SMOOTH",
"139 710 OFFCURVE",
"129 698 OFFCURVE",
"128 683 CURVE SMOOTH",
"76 23 LINE SMOOTH",
"75 6 OFFCURVE",
"87 -5 OFFCURVE",
"102 -5 CURVE SMOOTH"
);
}
);
width = 840;
}
);
leftKerningGroup = H;
rightKerningGroup = H;
unicode = 004D;
userData = {
anchors = (
);
b = {
};
com.typemytype.robofont.layerData = {
b = {
anchors = (
);
components = (
);
contours = (
);
lib = {
};
name = M;
unicodes = (
);
width = 1899;
};
};
components = (
);
contours = (
);
lib = {
};
name = M;
unicodes = (
);
width = 1984;
};
},
{
glyphname = N;
layers = (
{
anchors = (
{
name = bottom;
position = "{348, 0}";
},
{
name = top;
position = "{403, 705}";
}
);
background = {
paths = (
{
closed = 1;
nodes = (
"125 0 LINE",
"176 644 LINE",
"155 643 LINE",
"579 0 LINE",
"622 0 LINE",
"677 705 LINE",
"626 705 LINE",
"575 61 LINE",
"598 62 LINE",
"173 705 LINE",
"129 705 LINE",
"74 0 LINE"
);
}
);
};
layerId = "9E718F8A-2CEA-4931-B05D-987794BD97DA";
paths = (
{
closed = 1;
nodes = (
"114 -5 OFFCURVE",
"125 3 OFFCURVE",
"126 19 CURVE SMOOTH",
"176 644 LINE",
"155 643 LINE",
"572 11 LINE SMOOTH",
"577 4 OFFCURVE",
"584 -5 OFFCURVE",
"600 -5 CURVE SMOOTH",
"616 -5 OFFCURVE",
"623 6 OFFCURVE",
"624 21 CURVE SMOOTH",
"676 682 LINE SMOOTH",
"677 698 OFFCURVE",
"665 710 OFFCURVE",
"651 710 CURVE SMOOTH",
"637 710 OFFCURVE",
"626 702 OFFCURVE",
"625 686 CURVE SMOOTH",
"575 61 LINE",
"598 62 LINE",
"180 694 LINE SMOOTH",
"173 705 OFFCURVE",
"166 710 OFFCURVE",
"154 710 CURVE SMOOTH",
"139 710 OFFCURVE",
"128 701 OFFCURVE",
"127 683 CURVE SMOOTH",
"75 23 LINE SMOOTH",
"74 7 OFFCURVE",
"86 -5 OFFCURVE",
"100 -5 CURVE SMOOTH"
);
}
);
width = 734;
}
);
leftKerningGroup = H;
rightKerningGroup = H;
unicode = 004E;
userData = {
anchors = (
);
b = {
};
com.typemytype.robofont.layerData = {
b = {
anchors = (
);
components = (
);
contours = (
);
lib = {
};
name = N;
unicodes = (
);
width = 1499;
};
};
components = (
);
contours = (
);
lib = {
};
name = N;
unicodes = (
);
width = 1557;
};
},
{
glyphname = Eng;
layers = (
{
background = {
paths = (
{
closed = 1;
nodes = (
"575 61 LINE",
"598 62 LINE",
"173 705 LINE",
"129 705 LINE",
"74 0 LINE",
"125 0 LINE",
"176 644 LINE",
"155 643 LINE",
"579 0 LINE",
"574 38 LINE",
"570 -13 LINE SMOOTH",
"564 -90 OFFCURVE",
"519 -129 OFFCURVE",
"442 -135 CURVE SMOOTH",
"389 -139 LINE",
"389 -186 LINE",
"445 -182 LINE SMOOTH",
"561 -174 OFFCURVE",
"614 -108 OFFCURVE",
"621 -9 CURVE SMOOTH",
"677 705 LINE",
"626 705 LINE"
);
}
);
};
layerId = "9E718F8A-2CEA-4931-B05D-987794BD97DA";
paths = (
{
closed = 1;
nodes = (
"445 -183 LINE SMOOTH",
"552 -177 OFFCURVE",
"613 -115 OFFCURVE",
"622 0 CURVE SMOOTH",
"676 682 LINE SMOOTH",
"677 698 OFFCURVE",
"665 710 OFFCURVE",
"651 710 CURVE SMOOTH",
"637 710 OFFCURVE",
"626 702 OFFCURVE",
"625 686 CURVE SMOOTH",
"575 61 LINE",
"598 62 LINE",
"180 694 LINE SMOOTH",
"173 705 OFFCURVE",
"166 710 OFFCURVE",
"154 710 CURVE SMOOTH",
"139 710 OFFCURVE",
"128 701 OFFCURVE",
"127 683 CURVE SMOOTH",
"75 23 LINE SMOOTH",
"74 7 OFFCURVE",
"86 -5 OFFCURVE",
"100 -5 CURVE SMOOTH",
"114 -5 OFFCURVE",
"125 3 OFFCURVE",
"126 19 CURVE SMOOTH",
"176 644 LINE",
"155 643 LINE",
"579 0 LINE",
"574 38 LINE",
"571 2 LINE SMOOTH",
"564 -83 OFFCURVE",
"518 -133 OFFCURVE",
"451 -136 CURVE SMOOTH",
"409 -138 LINE SMOOTH",
"395 -138 OFFCURVE",
"388 -149 OFFCURVE",
"387 -160 CURVE SMOOTH",
"386 -173 OFFCURVE",
"394 -186 OFFCURVE",
"410 -185 CURVE SMOOTH"
);
}
);
width = 734;
}
);
leftKerningGroup = H;
rightKerningGroup = H;
unicode = 014A;
userData = {
com.typemytype.robofont.layerData = {
b = {
anchors = (
);
components = (
);
contours = (
);
lib = {
};
name = Eng;
unicodes = (
);
width = 1495;
};
};
};
},
{
glyphname = O;
layers = (
{
anchors = (
{
name = bottom;
position = "{358, 0}";
},
{
name = center;
position = "{387, 353}";
},
{
name = ogonek;
position = "{464, 10}";
},
{
name = top;
position = "{413, 705}";
},
{
name = topleft;
position = "{62, 705}";
},
{
name = topright;
position = "{443, 705}";
}
);
background = {
anchors = (
{
name = bottom;
position = "{1158, 0}";
},
{
name = center;
position = "{1215, 353}";
},
{
name = ogonek;
position = "{1265, 10}";
},
{
name = top;
position = "{1268, 705}";
},
{
name = topleft;
position = "{917, 705}";
},
{
name = topright;
position = "{1298, 705}";
}
);
paths = (
{
closed = 1;
nodes = (
"550 -8 OFFCURVE",
"681 130 OFFCURVE",
"699 353 CURVE SMOOTH",
"717 576 OFFCURVE",
"609 713 OFFCURVE",
"415 713 CURVE SMOOTH",
"221 713 OFFCURVE",
"92 576 OFFCURVE",
"74 352 CURVE SMOOTH",
"56 130 OFFCURVE",
"165 -8 OFFCURVE",
"357 -8 CURVE SMOOTH"
);
},
{
closed = 1;
nodes = (
"200 42 OFFCURVE",
"115 156 OFFCURVE",
"131 353 CURVE SMOOTH",
"147 550 OFFCURVE",
"250 663 OFFCURVE",
"411 663 CURVE SMOOTH",
"574 663 OFFCURVE",
"658 551 OFFCURVE",
"642 353 CURVE SMOOTH",
"626 155 OFFCURVE",
"523 42 OFFCURVE",
"361 42 CURVE SMOOTH"
);
}
);
};
layerId = "9E718F8A-2CEA-4931-B05D-987794BD97DA";
paths = (
{
closed = 1;
nodes = (
"573 -8 OFFCURVE",
"699 145 OFFCURVE",
"699 383 CURVE SMOOTH",
"699 589 OFFCURVE",
"584 713 OFFCURVE",
"394 713 CURVE SMOOTH",
"199 713 OFFCURVE",
"73 560 OFFCURVE",
"73 321 CURVE SMOOTH",
"73 116 OFFCURVE",
"188 -8 OFFCURVE",
"377 -8 CURVE SMOOTH"
);
},
{
closed = 1;
nodes = (
"219 43 OFFCURVE",
"130 142 OFFCURVE",
"130 320 CURVE SMOOTH",
"130 534 OFFCURVE",
"230 662 OFFCURVE",
"394 662 CURVE SMOOTH",
"553 662 OFFCURVE",
"642 563 OFFCURVE",
"642 384 CURVE SMOOTH",
"642 171 OFFCURVE",
"542 43 OFFCURVE",
"378 43 CURVE SMOOTH"
);
}
);
width = 755;
}
);
leftKerningGroup = O;
rightKerningGroup = O;
unicode = 004F;
userData = {
anchors = (
);
b = {
};
com.typemytype.robofont.guides = (
);
com.typemytype.robofont.layerData = {
b = {
anchors = (
);
components = (
);
contours = (
);
lib = {
};
name = O;
unicodes = (
);
width = 1597;
};
};
components = (
);
contours = (
);
lib = {
};
name = O;
unicodes = (
);
width = 1604;
};
},
{
glyphname = Ohorn;
layers = (
{
anchors = (
{
name = bottom;
position = "{359, 0}";
},
{
name = top;
position = "{413, 705}";
}
);
background = {
anchors = (
{
name = bottom;
position = "{1059, 0}";
},
{
name = top;
position = "{1113, 705}";
}
);
paths = (
{
closed = 1;
nodes = (
"550 -8 OFFCURVE",
"681 130 OFFCURVE",
"699 353 CURVE SMOOTH",
"711 508 OFFCURVE",
"663 621 OFFCURVE",
"564 676 CURVE",
"569 663 LINE",
"667 663 OFFCURVE",
"728 717 OFFCURVE",
"735 808 CURVE SMOOTH",
"737 834 OFFCURVE",
"730 846 OFFCURVE",
"713 846 CURVE SMOOTH",
"697 846 OFFCURVE",
"687 834 OFFCURVE",
"685 813 CURVE SMOOTH",
"674 729 OFFCURVE",
"646 705 OFFCURVE",
"559 705 CURVE SMOOTH",
"519 705 OFFCURVE",
"468 713 OFFCURVE",
"419 713 CURVE SMOOTH",
"221 713 OFFCURVE",
"92 576 OFFCURVE",
"74 352 CURVE SMOOTH",
"56 130 OFFCURVE",
"165 -8 OFFCURVE",
"357 -8 CURVE SMOOTH"
);
},
{
closed = 1;
nodes = (
"200 42 OFFCURVE",
"115 156 OFFCURVE",
"131 353 CURVE SMOOTH",
"147 550 OFFCURVE",
"250 663 OFFCURVE",
"411 663 CURVE SMOOTH",
"574 663 OFFCURVE",
"658 551 OFFCURVE",
"642 353 CURVE SMOOTH",
"626 155 OFFCURVE",
"523 42 OFFCURVE",
"361 42 CURVE SMOOTH"
);
}
);
};
guideLines = (
{
angle = 90;
position = "{668, 464}";
}
);
layerId = "9E718F8A-2CEA-4931-B05D-987794BD97DA";
paths = (
{
closed = 1;
nodes = (
"573 -8 OFFCURVE",
"699 145 OFFCURVE",
"699 383 CURVE SMOOTH",
"699 538 OFFCURVE",
"633 632 OFFCURVE",
"559 673 CURVE",
"563 663 LINE",
"676 663 OFFCURVE",
"735 724 OFFCURVE",
"735 816 CURVE SMOOTH",
"735 836 OFFCURVE",
"727 846 OFFCURVE",
"711 846 CURVE SMOOTH",
"695 846 OFFCURVE",
"686 836 OFFCURVE",
"685 818 CURVE SMOOTH",
"678 737 OFFCURVE",
"645 705 OFFCURVE",
"558 705 CURVE SMOOTH",
"498 705 OFFCURVE",
"452 713 OFFCURVE",
"404 713 CURVE SMOOTH",
"197 713 OFFCURVE",
"73 560 OFFCURVE",
"73 321 CURVE SMOOTH",
"73 116 OFFCURVE",
"188 -8 OFFCURVE",
"377 -8 CURVE SMOOTH"
);
},
{
closed = 1;
nodes = (
"219 43 OFFCURVE",
"130 142 OFFCURVE",
"130 320 CURVE SMOOTH",
"130 534 OFFCURVE",
"230 662 OFFCURVE",
"394 662 CURVE SMOOTH",
"553 662 OFFCURVE",
"642 563 OFFCURVE",
"642 384 CURVE SMOOTH",
"642 171 OFFCURVE",
"542 43 OFFCURVE",
"378 43 CURVE SMOOTH"
);
}
);
width = 755;
}
);
leftKerningGroup = O;
rightKerningGroup = O;
unicode = 01A0;
},
{
glyphname = Oogonek;
layers = (
{
anchors = (
{
name = top;
position = "{413, 705}";
}
);
background = {
anchors = (
{
name = top;
position = "{1213, 705}";
}
);
paths = (
{
closed = 1;
nodes = (
"444 -191 OFFCURVE",
"467 -186 OFFCURVE",
"489 -174 CURVE SMOOTH",
"514 -160 OFFCURVE",
"509 -119 OFFCURVE",
"476 -135 CURVE SMOOTH",
"458 -144 OFFCURVE",
"439 -148 OFFCURVE",
"427 -148 CURVE SMOOTH",
"388 -148 OFFCURVE",
"365 -127 OFFCURVE",
"365 -86 CURVE SMOOTH",
"365 -41 OFFCURVE",
"399 -2 OFFCURVE",
"464 10 CURVE",
"454 41 LINE",
"365 26 OFFCURVE",
"314 -26 OFFCURVE",
"314 -95 CURVE SMOOTH",
"314 -152 OFFCURVE",
"355 -191 OFFCURVE",
"419 -191 CURVE SMOOTH"
);
}
);
};
layerId = "9E718F8A-2CEA-4931-B05D-987794BD97DA";
paths = (
{
closed = 1;
nodes = (
"594 33 OFFCURVE",
"699 161 OFFCURVE",
"699 383 CURVE SMOOTH",
"699 589 OFFCURVE",
"584 713 OFFCURVE",
"394 713 CURVE SMOOTH",
"199 713 OFFCURVE",
"73 560 OFFCURVE",
"73 321 CURVE SMOOTH",
"73 116 OFFCURVE",
"188 -7 OFFCURVE",
"370 -7 CURVE",
"378 10 LINE",
"339 -9 OFFCURVE",
"314 -46 OFFCURVE",
"314 -93 CURVE SMOOTH",
"314 -152 OFFCURVE",
"355 -191 OFFCURVE",
"421 -191 CURVE SMOOTH",
"444 -191 OFFCURVE",
"467 -186 OFFCURVE",
"489 -174 CURVE SMOOTH",
"514 -160 OFFCURVE",
"509 -119 OFFCURVE",
"476 -135 CURVE SMOOTH",
"458 -144 OFFCURVE",
"439 -148 OFFCURVE",
"427 -148 CURVE SMOOTH",
"388 -148 OFFCURVE",
"365 -127 OFFCURVE",
"365 -86 CURVE SMOOTH",
"365 -44 OFFCURVE",
"392 -13 OFFCURVE",
"450 0 CURVE SMOOTH"
);
},
{
closed = 1;
nodes = (
"219 43 OFFCURVE",
"130 142 OFFCURVE",
"130 320 CURVE SMOOTH",
"130 534 OFFCURVE",
"230 662 OFFCURVE",
"394 662 CURVE SMOOTH",
"553 662 OFFCURVE",
"642 563 OFFCURVE",
"642 384 CURVE SMOOTH",
"642 171 OFFCURVE",
"542 43 OFFCURVE",
"378 43 CURVE SMOOTH"
);
}
);
width = 755;
}
);
leftKerningGroup = O;
rightKerningGroup = O;
unicode = 01EA;
},
{
glyphname = Oslash;
layers = (
{
anchors = (
{
name = bottom;
position = "{358, 0}";
},
{
name = top;
position = "{413, 705}";
}
);
background = {
anchors = (
{
name = bottom;
position = "{358, 0}";
},
{
name = top;
position = "{413, 705}";
}
);
paths = (
{
closed = 1;
nodes = (
"550 -8 OFFCURVE",
"681 130 OFFCURVE",
"699 353 CURVE SMOOTH",
"717 576 OFFCURVE",
"609 713 OFFCURVE",
"415 713 CURVE SMOOTH",
"221 713 OFFCURVE",
"92 576 OFFCURVE",
"74 352 CURVE SMOOTH",
"56 130 OFFCURVE",
"165 -8 OFFCURVE",
"357 -8 CURVE SMOOTH"
);
},
{
closed = 1;
nodes = (
"646 703 LINE SMOOTH",
"664 730 OFFCURVE",
"626 753 OFFCURVE",
"608 726 CURVE SMOOTH",
"128 3 LINE SMOOTH",
"109 -27 OFFCURVE",
"148 -48 OFFCURVE",
"166 -20 CURVE SMOOTH"
);
},
{
closed = 1;
nodes = (
"200 42 OFFCURVE",
"115 156 OFFCURVE",
"131 353 CURVE SMOOTH",
"147 550 OFFCURVE",
"250 663 OFFCURVE",
"411 663 CURVE SMOOTH",
"574 663 OFFCURVE",
"658 551 OFFCURVE",
"642 353 CURVE SMOOTH",
"626 155 OFFCURVE",
"523 42 OFFCURVE",
"361 42 CURVE SMOOTH"
);
},
{
closed = 1;
nodes = (
"644 696 LINE SMOOTH",
"663 727 OFFCURVE",
"623 751 OFFCURVE",
"604 722 CURVE SMOOTH",
"130 9 LINE SMOOTH",
"111 -22 OFFCURVE",
"150 -45 OFFCURVE",
"169 -17 CURVE SMOOTH"
);
}
);
};
layerId = "9E718F8A-2CEA-4931-B05D-987794BD97DA";
paths = (
{
closed = 1;
nodes = (
"573 -8 OFFCURVE",
"699 145 OFFCURVE",
"699 383 CURVE SMOOTH",
"699 589 OFFCURVE",
"584 713 OFFCURVE",
"394 713 CURVE SMOOTH",
"199 713 OFFCURVE",
"73 560 OFFCURVE",
"73 321 CURVE SMOOTH",
"73 116 OFFCURVE",
"188 -8 OFFCURVE",
"377 -8 CURVE SMOOTH"
);
},
{
closed = 1;
nodes = (
"219 43 OFFCURVE",
"130 142 OFFCURVE",
"130 320 CURVE SMOOTH",
"130 534 OFFCURVE",
"230 662 OFFCURVE",
"394 662 CURVE SMOOTH",
"553 662 OFFCURVE",
"642 563 OFFCURVE",
"642 384 CURVE SMOOTH",
"642 171 OFFCURVE",
"542 43 OFFCURVE",
"378 43 CURVE SMOOTH"
);
},
{
closed = 1;
nodes = (
"646 699 LINE SMOOTH",
"666 729 OFFCURVE",
"625 754 OFFCURVE",
"606 725 CURVE SMOOTH",
"128 6 LINE SMOOTH",
"108 -24 OFFCURVE",
"148 -48 OFFCURVE",
"167 -20 CURVE SMOOTH"
);
}
);
width = 755;
}
);
leftKerningGroup = O;
rightKerningGroup = O;
unicode = 00D8;
userData = {
com.typemytype.robofont.layerData = {
b = {
anchors = (
);
components = (
);
contours = (
);
lib = {
};
name = Oslash;
unicodes = (
);
width = 1597;
};
};
};
},
{
glyphname = OE;
layers = (
{
anchors = (
{
name = bottom;
position = "{513, 0}";
},
{
name = top;
position = "{567, 705}";
}
);
background = {
anchors = (
{
name = bottom;
position = "{1313, 0}";
},
{
name = top;
position = "{1367, 705}";
}
);
paths = (
{
closed = 1;
nodes = (
"954 0 LINE SMOOTH",
"968 0 OFFCURVE",
"979 9 OFFCURVE",
"980 24 CURVE SMOOTH",
"981 40 OFFCURVE",
"972 48 OFFCURVE",
"958 48 CURVE SMOOTH",
"599 48 LINE",
"622 334 LINE",
"961 334 LINE SMOOTH",
"975 334 OFFCURVE",
"985 343 OFFCURVE",
"986 358 CURVE SMOOTH",
"988 373 OFFCURVE",
"978 382 OFFCURVE",
"964 382 CURVE SMOOTH",
"625 382 LINE",
"647 657 LINE",
"1006 657 LINE SMOOTH",
"1020 657 OFFCURVE",
"1031 665 OFFCURVE",
"1032 681 CURVE SMOOTH",
"1033 696 OFFCURVE",
"1024 705 OFFCURVE",
"1009 705 CURVE SMOOTH",
"449 705 LINE SMOOTH",
"228 705 OFFCURVE",
"92 581 OFFCURVE",
"74 353 CURVE SMOOTH",
"56 126 OFFCURVE",
"172 0 OFFCURVE",
"393 0 CURVE SMOOTH"
);
},
{
closed = 1;
nodes = (
"196 48 OFFCURVE",
"116 162 OFFCURVE",
"131 353 CURVE SMOOTH",
"146 545 OFFCURVE",
"244 657 OFFCURVE",
"448 657 CURVE SMOOTH",
"594 657 LINE",
"546 48 LINE",
"400 48 LINE SMOOTH"
);
}
);
};
layerId = "9E718F8A-2CEA-4931-B05D-987794BD97DA";
paths = (
{
closed = 1;
nodes = (
"423 705 LINE SMOOTH",
"198 705 OFFCURVE",
"73 560 OFFCURVE",
"73 322 CURVE SMOOTH",
"73 116 OFFCURVE",
"187 0 OFFCURVE",
"399 0 CURVE SMOOTH",
"957 0 LINE SMOOTH",
"972 0 OFFCURVE",
"981 11 OFFCURVE",
"981 24 CURVE SMOOTH",
"981 37 OFFCURVE",
"972 48 OFFCURVE",
"957 48 CURVE SMOOTH",
"599 48 LINE",
"647 657 LINE",
"1008 657 LINE SMOOTH",
"1023 657 OFFCURVE",
"1032 668 OFFCURVE",
"1032 681 CURVE SMOOTH",
"1032 694 OFFCURVE",
"1023 705 OFFCURVE",
"1008 705 CURVE SMOOTH"
);
},
{
closed = 1;
nodes = (
"400 48 LINE SMOOTH",
"218 48 OFFCURVE",
"130 142 OFFCURVE",
"130 321 CURVE SMOOTH",
"130 534 OFFCURVE",
"229 657 OFFCURVE",
"424 657 CURVE SMOOTH",
"594 657 LINE",
"546 48 LINE"
);
},
{
closed = 1;
nodes = (
"614 334 LINE",
"963 334 LINE SMOOTH",
"978 334 OFFCURVE",
"987 345 OFFCURVE",
"987 358 CURVE SMOOTH",
"987 371 OFFCURVE",
"978 382 OFFCURVE",
"963 382 CURVE SMOOTH",
"614 382 LINE"
);
}
);
width = 1046;
}
);
leftKerningGroup = O;
rightKerningGroup = E;
unicode = 0152;
},
{
glyphname = P;
layers = (
{
anchors = (
{
name = bottom;
position = "{299, 0}";
},
{
name = top;
position = "{354, 705}";
}
);
background = {
anchors = (
{
name = bottom;
position = "{299, 0}";
},
{
name = top;
position = "{409, 705}";
}
);
paths = (
{
closed = 1;
nodes = (
"118 -5 OFFCURVE",
"128 6 OFFCURVE",
"130 24 CURVE SMOOTH",
"152 299 LINE",
"360 299 LINE SMOOTH",
"505 299 OFFCURVE",
"596 373 OFFCURVE",
"606 503 CURVE SMOOTH",
"616 633 OFFCURVE",
"538 705 OFFCURVE",
"392 705 CURVE SMOOTH",
"160 705 LINE SMOOTH",
"143 705 OFFCURVE",
"129 693 OFFCURVE",
"128 677 CURVE SMOOTH",
"76 24 LINE SMOOTH",
"74 6 OFFCURVE",
"85 -5 OFFCURVE",
"101 -5 CURVE SMOOTH"
);
},
{
closed = 1;
nodes = (
"180 657 LINE",
"385 657 LINE SMOOTH",
"504 657 OFFCURVE",
"559 605 OFFCURVE",
"551 503 CURVE SMOOTH",
"543 401 OFFCURVE",
"480 347 OFFCURVE",
"361 347 CURVE SMOOTH",
"156 347 LINE"
);
}
);
};
layerId = "9E718F8A-2CEA-4931-B05D-987794BD97DA";
paths = (
{
closed = 1;
nodes = (
"179 657 LINE",
"385 657 LINE SMOOTH",
"500 657 OFFCURVE",
"552 603 OFFCURVE",
"552 514 CURVE SMOOTH",
"552 398 OFFCURVE",
"482 347 OFFCURVE",
"360 347 CURVE SMOOTH",
"143 347 LINE",
"143 299 LINE",
"360 299 LINE SMOOTH",
"510 299 OFFCURVE",
"607 369 OFFCURVE",
"607 515 CURVE SMOOTH",
"607 630 OFFCURVE",
"532 705 OFFCURVE",
"386 705 CURVE SMOOTH",
"156 705 LINE SMOOTH",
"138 705 OFFCURVE",
"128 696 OFFCURVE",
"127 678 CURVE SMOOTH",
"75 24 LINE SMOOTH",
"74 6 OFFCURVE",
"87 -5 OFFCURVE",
"102 -5 CURVE SMOOTH",
"116 -5 OFFCURVE",
"128 5 OFFCURVE",
"129 20 CURVE SMOOTH"
);
}
);
width = 636;
}
);
leftKerningGroup = H;
rightKerningGroup = P;
unicode = 0050;
userData = {
anchors = (
);
b = {
};
com.typemytype.robofont.layerData = {
b = {
anchors = (
);
components = (
);
contours = (
{
points = (
{
segmentType = curve;
smooth = 1;
x = 266;
y = 0;
},
{
segmentType = line;
smooth = 1;
x = 1035;
y = 0;
},
{
smooth = 0;
x = 1084;
y = 0;
},
{
smooth = 0;
x = 1108;
y = 34;
},
{
segmentType = curve;
smooth = 1;
x = 1108;
y = 71;
},
{
smooth = 0;
x = 1108;
y = 107;
},
{
smooth = 0;
x = 1084;
y = 141;
},
{
segmentType = curve;
smooth = 1;
x = 1035;
y = 141;
},
{
segmentType = line;
smooth = 0;
x = 356;
y = 141;
},
{
segmentType = line;
smooth = 0;
x = 356;
y = 665;
},
{
segmentType = line;
smooth = 1;
x = 975;
y = 665;
},
{
smooth = 0;
x = 1024;
y = 665;
},
{
smooth = 0;
x = 1049;
y = 698;
},
{
segmentType = curve;
smooth = 1;
x = 1049;
y = 734;
},
{
smooth = 0;
x = 1049;
y = 770;
},
{
smooth = 0;
x = 1026;
y = 803;
},
{
segmentType = curve;
smooth = 1;
x = 975;
y = 803;
},
{
segmentType = line;
smooth = 0;
x = 356;
y = 803;
},
{
segmentType = line;
smooth = 0;
x = 356;
y = 1285;
},
{
segmentType = line;
smooth = 1;
x = 1007;
y = 1285;
},
{
smooth = 0;
x = 1056;
y = 1285;
},
{
smooth = 0;
x = 1080;
y = 1319;
},
{
segmentType = curve;
smooth = 1;
x = 1080;
y = 1356;
},
{
smooth = 0;
x = 1080;
y = 1392;
},
{
smooth = 0;
x = 1056;
y = 1426;
},
{
segmentType = curve;
smooth = 1;
x = 1007;
y = 1426;
},
{
segmentType = line;
smooth = 1;
x = 261;
y = 1426;
},
{
smooth = 0;
x = 213;
y = 1426;
},
{
smooth = 0;
x = 178;
y = 1383;
},
{
segmentType = curve;
smooth = 1;
x = 178;
y = 1340;
},
{
segmentType = line;
smooth = 1;
x = 178;
y = 86;
},
{
smooth = 0;
x = 178;
y = 41;
},
{
smooth = 0;
x = 222;
y = 0;
}
);
}
);
lib = {
};
name = P;
unicodes = (
);
width = 1201;
};
};
components = (
);
contours = (
);
lib = {
};
name = P;
unicodes = (
);
width = 1319;
};
},
{
glyphname = Thorn;
layers = (
{
anchors = (
{
name = bottom;
position = "{299, 0}";
},
{
name = top;
position = "{354, 705}";
}
);
background = {
paths = (
{
closed = 1;
nodes = (
"360 172 LINE SMOOTH",
"499 172 OFFCURVE",
"585 241 OFFCURVE",
"595 360 CURVE SMOOTH",
"604 478 OFFCURVE",
"530 545 OFFCURVE",
"389 545 CURVE SMOOTH",
"160 545 LINE",
"156 497 LINE",
"382 497 LINE SMOOTH",
"496 497 OFFCURVE",
"547 453 OFFCURVE",
"540 360 CURVE SMOOTH",
"532 266 OFFCURVE",
"473 220 OFFCURVE",
"360 220 CURVE SMOOTH",
"134 220 LINE",
"131 172 LINE"
);
},
{
closed = 1;
nodes = (
"117 -5 OFFCURVE",
"128 6 OFFCURVE",
"130 24 CURVE SMOOTH",
"182 681 LINE SMOOTH",
"184 699 OFFCURVE",
"173 710 OFFCURVE",
"157 710 CURVE SMOOTH",
"141 710 OFFCURVE",
"130 699 OFFCURVE",
"128 681 CURVE SMOOTH",
"76 24 LINE SMOOTH",
"74 6 OFFCURVE",
"85 -5 OFFCURVE",
"101 -5 CURVE SMOOTH"
);
}
);
};
layerId = "9E718F8A-2CEA-4931-B05D-987794BD97DA";
paths = (
{
closed = 1;
nodes = (
"362 172 LINE SMOOTH",
"516 172 OFFCURVE",
"595 248 OFFCURVE",
"595 369 CURVE SMOOTH",
"595 486 OFFCURVE",
"518 545 OFFCURVE",
"384 545 CURVE SMOOTH",
"160 545 LINE",
"156 497 LINE",
"382 497 LINE SMOOTH",
"484 497 OFFCURVE",
"540 459 OFFCURVE",
"540 368 CURVE SMOOTH",
"540 271 OFFCURVE",
"484 220 OFFCURVE",
"360 220 CURVE SMOOTH",
"134 220 LINE",
"131 172 LINE"
);
},
{
closed = 1;
nodes = (
"117 -5 OFFCURVE",
"129 4 OFFCURVE",
"130 20 CURVE SMOOTH",
"182 681 LINE SMOOTH",
"183 699 OFFCURVE",
"170 710 OFFCURVE",
"155 710 CURVE SMOOTH",
"141 710 OFFCURVE",
"129 701 OFFCURVE",
"128 685 CURVE SMOOTH",
"76 24 LINE SMOOTH",
"75 6 OFFCURVE",
"88 -5 OFFCURVE",
"103 -5 CURVE SMOOTH"
);
}
);
width = 636;
}
);
leftKerningGroup = H;
rightKerningGroup = THORN;
unicode = 00DE;
},
{
glyphname = Q;
layers = (
{
anchors = (
{
name = bottom;
position = "{358, 0}";
},
{
name = top;
position = "{413, 705}";
}
);
background = {
anchors = (
{
name = bottom;
position = "{1158, 0}";
},
{
name = top;
position = "{1213, 705}";
}
);
paths = (
{
closed = 1;
nodes = (
"545 -202 OFFCURVE",
"593 -181 OFFCURVE",
"576 -149 CURVE SMOOTH",
"531 -64 LINE SMOOTH",
"499 -3 OFFCURVE",
"471 15 OFFCURVE",
"408 15 CURVE",
"435 0 LINE",
"586 32 OFFCURVE",
"684 163 OFFCURVE",
"699 353 CURVE SMOOTH",
"717 576 OFFCURVE",
"608 713 OFFCURVE",
"415 713 CURVE SMOOTH",
"222 713 OFFCURVE",
"92 576 OFFCURVE",
"74 352 CURVE SMOOTH",
"56 130 OFFCURVE",
"166 -8 OFFCURVE",
"357 -8 CURVE SMOOTH",
"411 -8 OFFCURVE",
"453 -30 OFFCURVE",
"474 -71 CURVE SMOOTH",
"524 -163 LINE SMOOTH"
);
},
{
closed = 1;
nodes = (
"200 42 OFFCURVE",
"115 156 OFFCURVE",
"131 353 CURVE SMOOTH",
"147 550 OFFCURVE",
"250 663 OFFCURVE",
"411 663 CURVE SMOOTH",
"574 663 OFFCURVE",
"658 551 OFFCURVE",
"642 353 CURVE SMOOTH",
"626 155 OFFCURVE",
"523 42 OFFCURVE",
"361 42 CURVE SMOOTH"
);
}
);
};
layerId = "9E718F8A-2CEA-4931-B05D-987794BD97DA";
paths = (
{
closed = 1;
nodes = (
"544 -200 OFFCURVE",
"592 -180 OFFCURVE",
"575 -147 CURVE SMOOTH",
"531 -64 LINE SMOOTH",
"498 -2 OFFCURVE",
"471 16 OFFCURVE",
"408 16 CURVE",
"445 1 LINE",
"612 33 OFFCURVE",
"699 184 OFFCURVE",
"699 383 CURVE SMOOTH",
"699 589 OFFCURVE",
"584 713 OFFCURVE",
"394 713 CURVE SMOOTH",
"199 713 OFFCURVE",
"73 560 OFFCURVE",
"73 321 CURVE SMOOTH",
"73 116 OFFCURVE",
"188 -1 OFFCURVE",
"357 -7 CURVE SMOOTH",
"412 -9 OFFCURVE",
"452 -30 OFFCURVE",
"474 -71 CURVE SMOOTH",
"526 -167 LINE SMOOTH"
);
},
{
closed = 1;
nodes = (
"219 43 OFFCURVE",
"130 142 OFFCURVE",
"130 320 CURVE SMOOTH",
"130 534 OFFCURVE",
"230 662 OFFCURVE",
"394 662 CURVE SMOOTH",
"553 662 OFFCURVE",
"642 563 OFFCURVE",
"642 384 CURVE SMOOTH",
"642 171 OFFCURVE",
"542 43 OFFCURVE",
"378 43 CURVE SMOOTH"
);
}
);
width = 755;
}
);
leftKerningGroup = O;
rightKerningGroup = O;
unicode = 0051;
userData = {
anchors = (
);
b = {
};
com.typemytype.robofont.layerData = {
b = {
anchors = (
);
components = (
);
contours = (
);
lib = {
};
name = Q;
unicodes = (
);
width = 1597;
};
};
components = (
);
contours = (
);
lib = {
};
name = Q;
unicodes = (
);
width = 1604;
};
},
{
glyphname = R;
layers = (
{
anchors = (
{
name = bottom;
position = "{317, 0}";
},
{
name = top;
position = "{372, 705}";
}
);
background = {
paths = (
{
closed = 1;
nodes = (
"117 -5 OFFCURVE",
"128 6 OFFCURVE",
"130 24 CURVE SMOOTH",
"152 308 LINE",
"294 308 LINE SMOOTH",
"368 308 OFFCURVE",
"402 289 OFFCURVE",
"436 226 CURVE SMOOTH",
"555 8 LINE SMOOTH",
"571 -22 OFFCURVE",
"616 2 OFFCURVE",
"600 32 CURVE SMOOTH",
"488 238 LINE SMOOTH",
"454 301 OFFCURVE",
"420 323 OFFCURVE",
"359 323 CURVE",
"376 314 LINE",
"522 314 OFFCURVE",
"612 384 OFFCURVE",
"622 508 CURVE SMOOTH",
"633 638 OFFCURVE",
"554 705 OFFCURVE",
"408 705 CURVE SMOOTH",
"160 705 LINE SMOOTH",
"143 705 OFFCURVE",
"129 693 OFFCURVE",
"128 677 CURVE SMOOTH",
"76 24 LINE SMOOTH",
"74 6 OFFCURVE",
"85 -5 OFFCURVE",
"101 -5 CURVE SMOOTH"
);
},
{
closed = 1;
nodes = (
"180 657 LINE",
"402 657 LINE SMOOTH",
"522 657 OFFCURVE",
"575 609 OFFCURVE",
"567 509 CURVE SMOOTH",
"559 407 OFFCURVE",
"496 356 OFFCURVE",
"378 356 CURVE SMOOTH",
"156 356 LINE"
);
}
);
};
layerId = "9E718F8A-2CEA-4931-B05D-987794BD97DA";
paths = (
{
closed = 1;
nodes = (
"180 657 LINE",
"402 657 LINE SMOOTH",
"511 657 OFFCURVE",
"568 614 OFFCURVE",
"568 519 CURVE SMOOTH",
"568 408 OFFCURVE",
"506 356 OFFCURVE",
"378 356 CURVE SMOOTH",
"144 356 LINE",
"140 308 LINE",
"295 308 LINE SMOOTH",
"369 308 OFFCURVE",
"403 289 OFFCURVE",
"437 226 CURVE SMOOTH",
"553 12 LINE SMOOTH",
"570 -20 OFFCURVE",
"620 0 OFFCURVE",
"602 32 CURVE SMOOTH",
"489 238 LINE SMOOTH",
"457 296 OFFCURVE",
"431 323 OFFCURVE",
"370 323 CURVE",
"383 314 LINE",
"541 314 OFFCURVE",
"623 392 OFFCURVE",
"623 522 CURVE SMOOTH",
"623 643 OFFCURVE",
"543 705 OFFCURVE",
"402 705 CURVE SMOOTH",
"157 705 LINE SMOOTH",
"141 705 OFFCURVE",
"128 694 OFFCURVE",
"127 677 CURVE SMOOTH",
"76 25 LINE SMOOTH",
"74 5 OFFCURVE",
"86 -5 OFFCURVE",
"102 -5 CURVE SMOOTH",
"118 -5 OFFCURVE",
"129 4 OFFCURVE",
"130 20 CURVE SMOOTH"
);
}
);
width = 680;
}
);
leftKerningGroup = H;
rightKerningGroup = R;
unicode = 0052;
userData = {
anchors = (
);
b = {
};
com.typemytype.robofont.guides = (
);
com.typemytype.robofont.layerData = {
b = {
anchors = (
);
components = (
);
contours = (
{
points = (
{
segmentType = curve;
smooth = 1;
x = 267;
y = 0;
},
{
smooth = 0;
x = 311;
y = 0;
},
{
smooth = 0;
x = 356;
y = 27;
},
{
segmentType = curve;
smooth = 1;
x = 356;
y = 84;
},
{
segmentType = line;
smooth = 0;
x = 356;
y = 628;
},
{
segmentType = line;
smooth = 1;
x = 669;
y = 628;
},
{
smooth = 0;
x = 962;
y = 628;
},
{
smooth = 0;
x = 1182;
y = 722;
},
{
segmentType = curve;
smooth = 1;
x = 1182;
y = 1026;
},
{
smooth = 0;
x = 1182;
y = 1324;
},
{
smooth = 0;
x = 993;
y = 1426;
},
{
segmentType = curve;
smooth = 1;
x = 684;
y = 1426;
},
{
segmentType = line;
smooth = 1;
x = 268;
y = 1426;
},
{
smooth = 0;
x = 217;
y = 1426;
},
{
smooth = 0;
x = 178;
y = 1387;
},
{
segmentType = curve;
smooth = 1;
x = 178;
y = 1339;
},
{
segmentType = line;
smooth = 1;
x = 178;
y = 84;
},
{
smooth = 0;
x = 178;
y = 28;
},
{
smooth = 0;
x = 222;
y = 0;
}
);
},
{
points = (
{
segmentType = line;
smooth = 0;
x = 356;
y = 764;
},
{
segmentType = line;
smooth = 0;
x = 356;
y = 1285;
},
{
segmentType = line;
smooth = 1;
x = 684;
y = 1285;
},
{
smooth = 0;
x = 914;
y = 1285;
},
{
smooth = 0;
x = 1008;
y = 1210;
},
{
segmentType = curve;
smooth = 1;
x = 1008;
y = 1026;
},
{
smooth = 0;
x = 1008;
y = 838;
},
{
smooth = 0;
x = 901;
y = 764;
},
{
segmentType = curve;
smooth = 1;
x = 670;
y = 764;
}
);
}
);
lib = {
};
name = R;
unicodes = (
);
width = 1363;
};
};
components = (
);
contours = (
);
lib = {
};
name = R;
unicodes = (
);
width = 1408;
};
},
{
glyphname = S;
layers = (
{
anchors = (
{
name = bottom;
position = "{288, 0}";
},
{
name = top;
position = "{338, 705}";
}
);
background = {
anchors = (
{
name = bottom;
position = "{288, 0}";
},
{
name = top;
position = "{393, 705}";
}
);
paths = (
{
closed = 1;
nodes = (
"435 -8 OFFCURVE",
"543 70 OFFCURVE",
"552 185 CURVE SMOOTH",
"563 325 OFFCURVE",
"420 345 OFFCURVE",
"300 375 CURVE SMOOTH",
"210 398 OFFCURVE",
"132 426 OFFCURVE",
"139 515 CURVE SMOOTH",
"146 609 OFFCURVE",
"222 663 OFFCURVE",
"344 663 CURVE SMOOTH",
"423 663 OFFCURVE",
"471 644 OFFCURVE",
"540 583 CURVE SMOOTH",
"548 576 OFFCURVE",
"555 574 OFFCURVE",
"561 574 CURVE SMOOTH",
"571 574 OFFCURVE",
"580 585 OFFCURVE",
"581 598 CURVE SMOOTH",
"582 608 OFFCURVE",
"579 616 OFFCURVE",
"572 625 CURVE SMOOTH",
"523 681 OFFCURVE",
"440 713 OFFCURVE",
"348 713 CURVE SMOOTH",
"200 713 OFFCURVE",
"93 634 OFFCURVE",
"84 515 CURVE SMOOTH",
"73 374 OFFCURVE",
"203 345 OFFCURVE",
"320 317 CURVE SMOOTH",
"416 294 OFFCURVE",
"504 271 OFFCURVE",
"497 186 CURVE SMOOTH",
"489 93 OFFCURVE",
"415 42 OFFCURVE",
"291 42 CURVE SMOOTH",
"208 42 OFFCURVE",
"136 68 OFFCURVE",
"76 122 CURVE SMOOTH",
"68 128 OFFCURVE",
"61 131 OFFCURVE",
"55 131 CURVE SMOOTH",
"45 131 OFFCURVE",
"37 121 OFFCURVE",
"35 107 CURVE SMOOTH",
"35 97 OFFCURVE",
"38 87 OFFCURVE",
"44 80 CURVE SMOOTH",
"93 26 OFFCURVE",
"189 -8 OFFCURVE",
"287 -8 CURVE SMOOTH"
);
}
);
};
layerId = "9E718F8A-2CEA-4931-B05D-987794BD97DA";
paths = (
{
closed = 1;
nodes = (
"454 -8 OFFCURVE",
"552 66 OFFCURVE",
"552 183 CURVE SMOOTH",
"552 420 OFFCURVE",
"140 319 OFFCURVE",
"140 520 CURVE SMOOTH",
"140 609 OFFCURVE",
"207 664 OFFCURVE",
"335 664 CURVE SMOOTH",
"416 664 OFFCURVE",
"487 635 OFFCURVE",
"540 586 CURVE SMOOTH",
"572 557 OFFCURVE",
"602 598 OFFCURVE",
"577 623 CURVE SMOOTH",
"518 680 OFFCURVE",
"432 713 OFFCURVE",
"335 713 CURVE SMOOTH",
"182 713 OFFCURVE",
"84 637 OFFCURVE",
"84 519 CURVE SMOOTH",
"84 266 OFFCURVE",
"496 365 OFFCURVE",
"496 181 CURVE SMOOTH",
"496 94 OFFCURVE",
"429 41 OFFCURVE",
"301 41 CURVE SMOOTH",
"207 41 OFFCURVE",
"138 66 OFFCURVE",
"71 124 CURVE SMOOTH",
"47 145 OFFCURVE",
"15 106 OFFCURVE",
"49 76 CURVE SMOOTH",
"110 21 OFFCURVE",
"190 -8 OFFCURVE",
"301 -8 CURVE SMOOTH"
);
}
);
width = 604;
}
);
leftKerningGroup = S;
rightKerningGroup = S;
unicode = 0053;
userData = {
anchors = (
);
b = {
};
com.typemytype.robofont.layerData = {
b = {
anchors = (
);
components = (
);
contours = (
);
lib = {
};
name = S;
unicodes = (
);
width = 1274;
};
};
components = (
);
contours = (
);
lib = {
};
name = S;
unicodes = (
);
width = 1317;
};
},
{
glyphname = Germandbls;
layers = (
{
background = {
paths = (
{
closed = 1;
nodes = (
"115 -6 OFFCURVE",
"127 5 OFFCURVE",
"128 23 CURVE SMOOTH",
"162 455 LINE SMOOTH",
"173 597 OFFCURVE",
"242 662 OFFCURVE",
"378 662 CURVE SMOOTH",
"482 662 OFFCURVE",
"540 612 OFFCURVE",
"533 526 CURVE SMOOTH",
"526 435 OFFCURVE",
"459 383 OFFCURVE",
"352 383 CURVE SMOOTH",
"273 383 LINE SMOOTH",
"236 383 OFFCURVE",
"232 333 OFFCURVE",
"269 333 CURVE SMOOTH",
"383 333 LINE SMOOTH",
"501 333 OFFCURVE",
"560 285 OFFCURVE",
"552 193 CURVE SMOOTH",
"544 98 OFFCURVE",
"479 43 OFFCURVE",
"377 43 CURVE SMOOTH",
"331 43 OFFCURVE",
"292 55 OFFCURVE",
"250 87 CURVE SMOOTH",
"238 96 OFFCURVE",
"228 103 OFFCURVE",
"220 103 CURVE SMOOTH",
"209 103 OFFCURVE",
"199 93 OFFCURVE",
"198 81 CURVE SMOOTH",
"197 67 OFFCURVE",
"204 58 OFFCURVE",
"229 38 CURVE SMOOTH",
"265 9 OFFCURVE",
"320 -5 OFFCURVE",
"377 -5 CURVE SMOOTH",
"506 -5 OFFCURVE",
"598 73 OFFCURVE",
"607 193 CURVE SMOOTH",
"614 290 OFFCURVE",
"561 354 OFFCURVE",
"458 370 CURVE",
"449 359 LINE",
"528 379 OFFCURVE",
"581 440 OFFCURVE",
"588 526 CURVE SMOOTH",
"597 641 OFFCURVE",
"518 712 OFFCURVE",
"382 712 CURVE SMOOTH",
"213 712 OFFCURVE",
"122 629 OFFCURVE",
"109 462 CURVE SMOOTH",
"74 23 LINE SMOOTH",
"73 5 OFFCURVE",
"83 -6 OFFCURVE",
"99 -6 CURVE SMOOTH"
);
}
);
};
layerId = "9E718F8A-2CEA-4931-B05D-987794BD97DA";
paths = (
{
closed = 1;
nodes = (
"115 -6 OFFCURVE",
"127 5 OFFCURVE",
"128 23 CURVE SMOOTH",
"162 455 LINE SMOOTH",
"173 597 OFFCURVE",
"235 662 OFFCURVE",
"376 662 CURVE SMOOTH",
"472 662 OFFCURVE",
"534 616 OFFCURVE",
"534 538 CURVE SMOOTH",
"534 439 OFFCURVE",
"468 382 OFFCURVE",
"354 382 CURVE SMOOTH",
"271 382 LINE SMOOTH",
"234 382 OFFCURVE",
"235 334 OFFCURVE",
"273 334 CURVE SMOOTH",
"383 334 LINE SMOOTH",
"495 334 OFFCURVE",
"554 291 OFFCURVE",
"554 207 CURVE SMOOTH",
"554 103 OFFCURVE",
"487 43 OFFCURVE",
"377 43 CURVE SMOOTH",
"326 43 OFFCURVE",
"279 62 OFFCURVE",
"241 93 CURVE SMOOTH",
"212 117 OFFCURVE",
"182 77 OFFCURVE",
"207 54 CURVE SMOOTH",
"248 17 OFFCURVE",
"311 -7 OFFCURVE",
"382 -7 CURVE SMOOTH",
"517 -7 OFFCURVE",
"609 79 OFFCURVE",
"609 206 CURVE SMOOTH",
"609 298 OFFCURVE",
"555 355 OFFCURVE",
"456 370 CURVE",
"446 359 LINE",
"536 378 OFFCURVE",
"589 445 OFFCURVE",
"589 540 CURVE SMOOTH",
"589 647 OFFCURVE",
"506 712 OFFCURVE",
"377 712 CURVE SMOOTH",
"212 712 OFFCURVE",
"122 631 OFFCURVE",
"109 466 CURVE SMOOTH",
"74 23 LINE SMOOTH",
"73 5 OFFCURVE",
"83 -6 OFFCURVE",
"99 -6 CURVE SMOOTH"
);
}
);
width = 680;
}
);
leftKerningGroup = H;
rightKerningGroup = Germandbls;
unicode = 1E9E;
},
{
glyphname = Schwa;
layers = (
{
anchors = (
{
name = bottom;
position = "{347, 0}";
},
{
name = top;
position = "{402, 705}";
}
);
background = {
anchors = (
{
name = bottom;
position = "{1047, 0}";
},
{
name = top;
position = "{1102, 705}";
}
);
paths = (
{
closed = 1;
nodes = (
"531 -8 OFFCURVE",
"658 130 OFFCURVE",
"676 353 CURVE SMOOTH",
"694 577 OFFCURVE",
"583 713 OFFCURVE",
"383 713 CURVE SMOOTH",
"290 713 OFFCURVE",
"202 683 OFFCURVE",
"135 625 CURVE SMOOTH",
"126 618 OFFCURVE",
"121 609 OFFCURVE",
"120 598 CURVE SMOOTH",
"119 585 OFFCURVE",
"127 574 OFFCURVE",
"137 574 CURVE SMOOTH",
"143 574 OFFCURVE",
"148 575 OFFCURVE",
"158 583 CURVE SMOOTH",
"245 646 OFFCURVE",
"297 664 OFFCURVE",
"380 664 CURVE SMOOTH",
"548 664 OFFCURVE",
"636 551 OFFCURVE",
"620 353 CURVE SMOOTH",
"604 156 OFFCURVE",
"505 42 OFFCURVE",
"350 42 CURVE SMOOTH",
"196 42 OFFCURVE",
"114 157 OFFCURVE",
"130 353 CURVE",
"113 333 LINE",
"649 333 LINE",
"653 383 LINE",
"114 383 LINE SMOOTH",
"90 383 OFFCURVE",
"75 370 OFFCURVE",
"73 345 CURVE SMOOTH",
"56 129 OFFCURVE",
"162 -8 OFFCURVE",
"346 -8 CURVE SMOOTH"
);
}
);
};
layerId = "9E718F8A-2CEA-4931-B05D-987794BD97DA";
paths = (
{
closed = 1;
nodes = (
"551 -8 OFFCURVE",
"676 145 OFFCURVE",
"676 383 CURVE SMOOTH",
"676 589 OFFCURVE",
"562 713 OFFCURVE",
"381 713 CURVE SMOOTH",
"276 713 OFFCURVE",
"189 681 OFFCURVE",
"129 625 CURVE SMOOTH",
"102 599 OFFCURVE",
"122 556 OFFCURVE",
"155 585 CURVE SMOOTH",
"218 639 OFFCURVE",
"289 663 OFFCURVE",
"371 663 CURVE SMOOTH",
"531 663 OFFCURVE",
"619 563 OFFCURVE",
"619 384 CURVE SMOOTH",
"619 171 OFFCURVE",
"520 43 OFFCURVE",
"353 42 CURVE SMOOTH",
"186 41 OFFCURVE",
"115 164 OFFCURVE",
"131 353 CURVE",
"114 333 LINE",
"648 333 LINE",
"652 383 LINE",
"104 383 LINE SMOOTH",
"88 383 OFFCURVE",
"76 372 OFFCURVE",
"75 356 CURVE SMOOTH",
"73 338 OFFCURVE",
"72 325 OFFCURVE",
"72 299 CURVE SMOOTH",
"72 120 OFFCURVE",
"167 -8 OFFCURVE",
"348 -8 CURVE SMOOTH"
);
}
);
width = 732;
}
);
leftKerningGroup = O;
rightKerningGroup = O;
unicode = 018F;
},
{
glyphname = T;
layers = (
{
anchors = (
{
name = bottom;
position = "{275, 0}";
},
{
name = center;
position = "{303, 353}";
},
{
name = top;
position = "{330, 705}";
}
);
background = {
anchors = (
{
name = bottom;
position = "{275, 0}";
},
{
name = center;
position = "{303, 353}";
},
{
name = top;
position = "{330, 705}";
}
);
paths = (
{
closed = 1;
nodes = (
"292 -5 OFFCURVE",
"303 7 OFFCURVE",
"304 24 CURVE SMOOTH",
"354 657 LINE",
"589 657 LINE SMOOTH",
"603 657 OFFCURVE",
"615 666 OFFCURVE",
"616 681 CURVE SMOOTH",
"617 696 OFFCURVE",
"607 705 OFFCURVE",
"593 705 CURVE SMOOTH",
"68 705 LINE SMOOTH",
"54 705 OFFCURVE",
"43 696 OFFCURVE",
"42 681 CURVE SMOOTH",
"41 666 OFFCURVE",
"50 657 OFFCURVE",
"64 657 CURVE SMOOTH",
"300 657 LINE",
"250 24 LINE SMOOTH",
"249 7 OFFCURVE",
"258 -5 OFFCURVE",
"275 -5 CURVE SMOOTH"
);
}
);
};
layerId = "9E718F8A-2CEA-4931-B05D-987794BD97DA";
paths = (
{
closed = 1;
nodes = (
"291 -5 OFFCURVE",
"303 5 OFFCURVE",
"304 20 CURVE SMOOTH",
"354 657 LINE",
"592 657 LINE SMOOTH",
"607 657 OFFCURVE",
"616 668 OFFCURVE",
"616 681 CURVE SMOOTH",
"616 694 OFFCURVE",
"607 705 OFFCURVE",
"592 705 CURVE SMOOTH",
"66 705 LINE SMOOTH",
"51 705 OFFCURVE",
"42 694 OFFCURVE",
"42 681 CURVE SMOOTH",
"42 668 OFFCURVE",
"51 657 OFFCURVE",
"66 657 CURVE SMOOTH",
"300 657 LINE",
"250 24 LINE SMOOTH",
"249 7 OFFCURVE",
"262 -5 OFFCURVE",
"277 -5 CURVE SMOOTH"
);
}
);
width = 588;
}
);
leftKerningGroup = T;
rightKerningGroup = T;
unicode = 0054;
userData = {
anchors = (
);
b = {
};
com.typemytype.robofont.layerData = {
b = {
anchors = (
);
components = (
);
contours = (
{
points = (
{
segmentType = curve;
smooth = 1;
x = 581;
y = 0;
},
{
segmentType = line;
smooth = 1;
x = 1350;
y = 0;
},
{
smooth = 0;
x = 1399;
y = 0;
},
{
smooth = 0;
x = 1423;
y = 34;
},
{
segmentType = curve;
smooth = 1;
x = 1423;
y = 71;
},
{
smooth = 0;
x = 1423;
y = 107;
},
{
smooth = 0;
x = 1399;
y = 141;
},
{
segmentType = curve;
smooth = 1;
x = 1350;
y = 141;
},
{
segmentType = line;
smooth = 0;
x = 671;
y = 141;
},
{
segmentType = line;
smooth = 0;
x = 671;
y = 665;
},
{
segmentType = line;
smooth = 1;
x = 1290;
y = 665;
},
{
smooth = 0;
x = 1339;
y = 665;
},
{
smooth = 0;
x = 1364;
y = 698;
},
{
segmentType = curve;
smooth = 1;
x = 1364;
y = 734;
},
{
smooth = 0;
x = 1364;
y = 770;
},
{
smooth = 0;
x = 1341;
y = 803;
},
{
segmentType = curve;
smooth = 1;
x = 1290;
y = 803;
},
{
segmentType = line;
smooth = 0;
x = 671;
y = 803;
},
{
segmentType = line;
smooth = 0;
x = 671;
y = 1285;
},
{
segmentType = line;
smooth = 1;
x = 1322;
y = 1285;
},
{
smooth = 0;
x = 1371;
y = 1285;
},
{
smooth = 0;
x = 1395;
y = 1319;
},
{
segmentType = curve;
smooth = 1;
x = 1395;
y = 1356;
},
{
smooth = 0;
x = 1395;
y = 1392;
},
{
smooth = 0;
x = 1371;
y = 1426;
},
{
segmentType = curve;
smooth = 1;
x = 1322;
y = 1426;
},
{
segmentType = line;
smooth = 1;
x = 576;
y = 1426;
},
{
smooth = 0;
x = 528;
y = 1426;
},
{
smooth = 0;
x = 493;
y = 1383;
},
{
segmentType = curve;
smooth = 1;
x = 493;
y = 1340;
},
{
segmentType = line;
smooth = 1;
x = 493;
y = 86;
},
{
smooth = 0;
x = 493;
y = 41;
},
{
smooth = 0;
x = 537;
y = 0;
}
);
}
);
lib = {
};
name = T;
unicodes = (
);
width = 1158;
};
};
components = (
);
contours = (
);
lib = {
};
name = T;
unicodes = (
);
width = 1199;
};
},
{
glyphname = Tbar;
layers = (
{
background = {
paths = (
{
closed = 1;
nodes = (
"292 -5 OFFCURVE",
"303 7 OFFCURVE",
"304 24 CURVE SMOOTH",
"354 657 LINE",
"589 657 LINE SMOOTH",
"603 657 OFFCURVE",
"615 666 OFFCURVE",
"616 681 CURVE SMOOTH",
"617 696 OFFCURVE",
"607 705 OFFCURVE",
"593 705 CURVE SMOOTH",
"68 705 LINE SMOOTH",
"54 705 OFFCURVE",
"43 696 OFFCURVE",
"42 681 CURVE SMOOTH",
"41 666 OFFCURVE",
"50 657 OFFCURVE",
"64 657 CURVE SMOOTH",
"300 657 LINE",
"250 24 LINE SMOOTH",
"249 7 OFFCURVE",
"258 -5 OFFCURVE",
"275 -5 CURVE SMOOTH"
);
},
{
closed = 1;
nodes = (
"456 335 LINE SMOOTH",
"470 335 OFFCURVE",
"479 343 OFFCURVE",
"480 358 CURVE SMOOTH",
"482 373 OFFCURVE",
"473 381 OFFCURVE",
"459 381 CURVE SMOOTH",
"153 381 LINE SMOOTH",
"139 381 OFFCURVE",
"128 373 OFFCURVE",
"126 358 CURVE SMOOTH",
"125 343 OFFCURVE",
"136 335 OFFCURVE",
"150 335 CURVE SMOOTH"
);
}
);
};
layerId = "9E718F8A-2CEA-4931-B05D-987794BD97DA";
paths = (
{
closed = 1;
nodes = (
"291 -5 OFFCURVE",
"303 5 OFFCURVE",
"304 20 CURVE SMOOTH",
"354 657 LINE",
"592 657 LINE SMOOTH",
"607 657 OFFCURVE",
"616 668 OFFCURVE",
"616 681 CURVE SMOOTH",
"616 694 OFFCURVE",
"607 705 OFFCURVE",
"592 705 CURVE SMOOTH",
"66 705 LINE SMOOTH",
"51 705 OFFCURVE",
"42 694 OFFCURVE",
"42 681 CURVE SMOOTH",
"42 668 OFFCURVE",
"51 657 OFFCURVE",
"66 657 CURVE SMOOTH",
"300 657 LINE",
"250 24 LINE SMOOTH",
"249 7 OFFCURVE",
"262 -5 OFFCURVE",
"277 -5 CURVE SMOOTH"
);
},
{
closed = 1;
nodes = (
"457 335 LINE SMOOTH",
"471 335 OFFCURVE",
"480 345 OFFCURVE",
"480 358 CURVE SMOOTH",
"480 371 OFFCURVE",
"471 381 OFFCURVE",
"457 381 CURVE SMOOTH",
"149 381 LINE SMOOTH",
"135 381 OFFCURVE",
"126 371 OFFCURVE",
"126 358 CURVE SMOOTH",
"126 345 OFFCURVE",
"135 335 OFFCURVE",
"149 335 CURVE SMOOTH"
);
}
);
width = 588;
}
);
leftKerningGroup = T;
rightKerningGroup = T;
unicode = 0166;
userData = {
com.typemytype.robofont.layerData = {
b = {
anchors = (
);
components = (
);
contours = (
);
lib = {
};
name = Tbar;
unicodes = (
);
width = 1158;
};
};
};
},
{
glyphname = U;
layers = (
{
anchors = (
{
name = bottom;
position = "{340, 0}";
},
{
name = ogonek;
position = "{453, 10}";
},
{
name = top;
position = "{395, 705}";
},
{
name = topright;
position = "{639, 705}";
}
);
background = {
anchors = (
{
name = bottom;
position = "{340, 0}";
},
{
name = ogonek;
position = "{453, 10}";
},
{
name = top;
position = "{395, 705}";
},
{
name = topright;
position = "{639, 705}";
}
);
paths = (
{
closed = 1;
nodes = (
"517 -8 OFFCURVE",
"618 87 OFFCURVE",
"632 270 CURVE SMOOTH",
"665 681 LINE SMOOTH",
"667 699 OFFCURVE",
"656 710 OFFCURVE",
"640 710 CURVE SMOOTH",
"625 710 OFFCURVE",
"612 698 OFFCURVE",
"611 681 CURVE SMOOTH",
"578 263 LINE SMOOTH",
"566 116 OFFCURVE",
"486 42 OFFCURVE",
"343 42 CURVE SMOOTH",
"199 42 OFFCURVE",
"132 116 OFFCURVE",
"144 263 CURVE SMOOTH",
"177 681 LINE SMOOTH",
"179 699 OFFCURVE",
"168 710 OFFCURVE",
"152 710 CURVE SMOOTH",
"136 710 OFFCURVE",
"125 699 OFFCURVE",
"123 681 CURVE SMOOTH",
"90 270 LINE SMOOTH",
"76 87 OFFCURVE",
"161 -8 OFFCURVE",
"339 -8 CURVE SMOOTH"
);
}
);
};
layerId = "9E718F8A-2CEA-4931-B05D-987794BD97DA";
paths = (
{
closed = 1;
nodes = (
"518 -8 OFFCURVE",
"617 83 OFFCURVE",
"632 270 CURVE SMOOTH",
"665 681 LINE SMOOTH",
"666 699 OFFCURVE",
"653 710 OFFCURVE",
"638 710 CURVE SMOOTH",
"624 710 OFFCURVE",
"612 700 OFFCURVE",
"611 685 CURVE SMOOTH",
"578 263 LINE SMOOTH",
"566 114 OFFCURVE",
"489 42 OFFCURVE",
"343 42 CURVE SMOOTH",
"199 42 OFFCURVE",
"132 119 OFFCURVE",
"144 273 CURVE SMOOTH",
"177 681 LINE SMOOTH",
"178 698 OFFCURVE",
"165 710 OFFCURVE",
"150 710 CURVE SMOOTH",
"136 710 OFFCURVE",
"124 700 OFFCURVE",
"123 685 CURVE SMOOTH",
"90 270 LINE SMOOTH",
"76 94 OFFCURVE",
"160 -8 OFFCURVE",
"343 -8 CURVE SMOOTH"
);
}
);
width = 718;
}
);
leftKerningGroup = U;
rightKerningGroup = U;
unicode = 0055;
userData = {
anchors = (
);
b = {
};
com.typemytype.robofont.layerData = {
b = {
anchors = (
);
components = (
);
contours = (
);
lib = {
};
name = U;
unicodes = (
);
width = 1490;
};
};
components = (
);
contours = (
);
lib = {
};
name = U;
unicodes = (
);
width = 1513;
};
},
{
glyphname = Uhorn;
layers = (
{
anchors = (
{
name = bottom;
position = "{340, 0}";
},
{
name = top;
position = "{395, 705}";
}
);
background = {
paths = (
{
closed = 1;
nodes = (
"518 -8 OFFCURVE",
"617 83 OFFCURVE",
"632 270 CURVE SMOOTH",
"665 681 LINE SMOOTH",
"666 699 OFFCURVE",
"653 710 OFFCURVE",
"638 710 CURVE SMOOTH",
"624 710 OFFCURVE",
"612 700 OFFCURVE",
"611 685 CURVE SMOOTH",
"578 263 LINE SMOOTH",
"566 114 OFFCURVE",
"489 42 OFFCURVE",
"343 42 CURVE SMOOTH",
"199 42 OFFCURVE",
"132 119 OFFCURVE",
"144 273 CURVE SMOOTH",
"177 681 LINE SMOOTH",
"178 698 OFFCURVE",
"165 710 OFFCURVE",
"150 710 CURVE SMOOTH",
"136 710 OFFCURVE",
"124 700 OFFCURVE",
"123 685 CURVE SMOOTH",
"90 270 LINE SMOOTH",
"76 94 OFFCURVE",
"160 -8 OFFCURVE",
"343 -8 CURVE SMOOTH"
);
},
{
closed = 1;
nodes = (
"632 -8 OFFCURVE",
"758 145 OFFCURVE",
"758 383 CURVE SMOOTH",
"758 538 OFFCURVE",
"692 632 OFFCURVE",
"618 673 CURVE",
"622 663 LINE",
"735 663 OFFCURVE",
"794 724 OFFCURVE",
"794 816 CURVE SMOOTH",
"794 836 OFFCURVE",
"786 846 OFFCURVE",
"770 846 CURVE SMOOTH",
"754 846 OFFCURVE",
"745 836 OFFCURVE",
"744 818 CURVE SMOOTH",
"739 737 OFFCURVE",
"704 705 OFFCURVE",
"617 705 CURVE SMOOTH",
"557 705 OFFCURVE",
"511 713 OFFCURVE",
"463 713 CURVE SMOOTH",
"256 713 OFFCURVE",
"132 560 OFFCURVE",
"132 321 CURVE SMOOTH",
"132 116 OFFCURVE",
"247 -8 OFFCURVE",
"436 -8 CURVE SMOOTH"
);
},
{
closed = 1;
nodes = (
"278 43 OFFCURVE",
"189 142 OFFCURVE",
"189 320 CURVE SMOOTH",
"189 534 OFFCURVE",
"289 662 OFFCURVE",
"453 662 CURVE SMOOTH",
"612 662 OFFCURVE",
"701 563 OFFCURVE",
"701 384 CURVE SMOOTH",
"701 171 OFFCURVE",
"601 43 OFFCURVE",
"437 43 CURVE SMOOTH"
);
}
);
};
layerId = "9E718F8A-2CEA-4931-B05D-987794BD97DA";
paths = (
{
closed = 1;
nodes = (
"518 -8 OFFCURVE",
"617 83 OFFCURVE",
"632 270 CURVE SMOOTH",
"665 691 LINE",
"627 663 LINE",
"735 663 OFFCURVE",
"794 724 OFFCURVE",
"794 816 CURVE SMOOTH",
"794 836 OFFCURVE",
"786 846 OFFCURVE",
"770 846 CURVE SMOOTH",
"754 846 OFFCURVE",
"745 836 OFFCURVE",
"744 818 CURVE SMOOTH",
"740 738 OFFCURVE",
"695 705 OFFCURVE",
"641 705 CURVE SMOOTH",
"619 705 OFFCURVE",
"611 697 OFFCURVE",
"610 681 CURVE SMOOTH",
"578 263 LINE SMOOTH",
"567 114 OFFCURVE",
"489 42 OFFCURVE",
"343 42 CURVE SMOOTH",
"199 42 OFFCURVE",
"132 119 OFFCURVE",
"144 273 CURVE SMOOTH",
"177 681 LINE SMOOTH",
"178 698 OFFCURVE",
"165 710 OFFCURVE",
"150 710 CURVE SMOOTH",
"136 710 OFFCURVE",
"124 700 OFFCURVE",
"123 685 CURVE SMOOTH",
"90 270 LINE SMOOTH",
"76 94 OFFCURVE",
"160 -8 OFFCURVE",
"343 -8 CURVE SMOOTH"
);
}
);
width = 718;
}
);
leftKerningGroup = U;
rightKerningGroup = Uhorn;
unicode = 01AF;
},
{
glyphname = Uogonek;
layers = (
{
background = {
paths = (
{
closed = 1;
nodes = (
"518 -8 OFFCURVE",
"617 83 OFFCURVE",
"632 270 CURVE SMOOTH",
"665 681 LINE SMOOTH",
"666 699 OFFCURVE",
"653 710 OFFCURVE",
"638 710 CURVE SMOOTH",
"624 710 OFFCURVE",
"612 700 OFFCURVE",
"611 685 CURVE SMOOTH",
"578 263 LINE SMOOTH",
"566 114 OFFCURVE",
"489 42 OFFCURVE",
"343 42 CURVE SMOOTH",
"199 42 OFFCURVE",
"132 119 OFFCURVE",
"144 273 CURVE SMOOTH",
"177 681 LINE SMOOTH",
"178 698 OFFCURVE",
"165 710 OFFCURVE",
"150 710 CURVE SMOOTH",
"136 710 OFFCURVE",
"124 700 OFFCURVE",
"123 685 CURVE SMOOTH",
"90 270 LINE SMOOTH",
"76 94 OFFCURVE",
"160 -8 OFFCURVE",
"343 -8 CURVE SMOOTH"
);
},
{
closed = 1;
nodes = (
"433 -191 OFFCURVE",
"456 -186 OFFCURVE",
"478 -174 CURVE SMOOTH",
"503 -160 OFFCURVE",
"498 -119 OFFCURVE",
"465 -135 CURVE SMOOTH",
"447 -144 OFFCURVE",
"428 -148 OFFCURVE",
"416 -148 CURVE SMOOTH",
"377 -148 OFFCURVE",
"354 -127 OFFCURVE",
"354 -86 CURVE SMOOTH",
"354 -41 OFFCURVE",
"388 -2 OFFCURVE",
"453 10 CURVE",
"443 41 LINE",
"354 26 OFFCURVE",
"303 -26 OFFCURVE",
"303 -95 CURVE SMOOTH",
"303 -152 OFFCURVE",
"344 -191 OFFCURVE",
"408 -191 CURVE SMOOTH"
);
}
);
};
layerId = "9E718F8A-2CEA-4931-B05D-987794BD97DA";
paths = (
{
closed = 1;
nodes = (
"578 263 LINE SMOOTH",
"566 114 OFFCURVE",
"489 42 OFFCURVE",
"343 42 CURVE SMOOTH",
"199 42 OFFCURVE",
"132 119 OFFCURVE",
"144 273 CURVE SMOOTH",
"177 681 LINE SMOOTH",
"178 698 OFFCURVE",
"165 710 OFFCURVE",
"150 710 CURVE SMOOTH",
"136 710 OFFCURVE",
"124 700 OFFCURVE",
"123 685 CURVE SMOOTH",
"90 270 LINE SMOOTH",
"76 94 OFFCURVE",
"160 -8 OFFCURVE",
"339 -8 CURVE SMOOTH",
"392 -8 LINE",
"382 11 LINE",
"333 -9 OFFCURVE",
"303 -39 OFFCURVE",
"303 -95 CURVE SMOOTH",
"303 -152 OFFCURVE",
"344 -191 OFFCURVE",
"410 -191 CURVE SMOOTH",
"433 -191 OFFCURVE",
"456 -186 OFFCURVE",
"478 -174 CURVE SMOOTH",
"503 -160 OFFCURVE",
"498 -119 OFFCURVE",
"465 -135 CURVE SMOOTH",
"447 -144 OFFCURVE",
"428 -148 OFFCURVE",
"416 -148 CURVE SMOOTH",
"377 -148 OFFCURVE",
"354 -127 OFFCURVE",
"354 -86 CURVE SMOOTH",
"354 -40 OFFCURVE",
"385 -13 OFFCURVE",
"447 5 CURVE SMOOTH",
"557 36 OFFCURVE",
"620 125 OFFCURVE",
"632 270 CURVE SMOOTH",
"665 681 LINE SMOOTH",
"666 699 OFFCURVE",
"653 710 OFFCURVE",
"638 710 CURVE SMOOTH",
"624 710 OFFCURVE",
"612 700 OFFCURVE",
"611 685 CURVE SMOOTH"
);
}
);
width = 718;
}
);
leftKerningGroup = U;
rightKerningGroup = U;
unicode = 0172;
},
{
glyphname = V;
layers = (
{
anchors = (
{
name = bottom;
position = "{320, 0}";
},
{
name = top;
position = "{374, 705}";
}
);
background = {
paths = (
{
closed = 1;
nodes = (
"335 -5 OFFCURVE",
"345 2 OFFCURVE",
"352 15 CURVE SMOOTH",
"687 673 LINE SMOOTH",
"698 694 OFFCURVE",
"685 710 OFFCURVE",
"665 710 CURVE SMOOTH",
"654 710 OFFCURVE",
"646 705 OFFCURVE",
"642 696 CURVE SMOOTH",
"308 37 LINE",
"335 37 LINE",
"105 692 LINE SMOOTH",
"102 702 OFFCURVE",
"94 710 OFFCURVE",
"80 710 CURVE SMOOTH",
"60 710 OFFCURVE",
"48 694 OFFCURVE",
"55 675 CURVE SMOOTH",
"287 19 LINE SMOOTH",
"293 2 OFFCURVE",
"305 -5 OFFCURVE",
"321 -5 CURVE SMOOTH"
);
}
);
};
layerId = "9E718F8A-2CEA-4931-B05D-987794BD97DA";
paths = (
{
closed = 1;
nodes = (
"687 673 LINE SMOOTH",
"705 709 OFFCURVE",
"655 722 OFFCURVE",
"642 696 CURVE SMOOTH",
"308 37 LINE",
"335 37 LINE",
"105 692 LINE SMOOTH",
"93 725 OFFCURVE",
"43 710 OFFCURVE",
"55 675 CURVE SMOOTH",
"287 19 LINE SMOOTH",
"298 -11 OFFCURVE",
"337 -15 OFFCURVE",
"352 15 CURVE SMOOTH"
);
}
);
width = 676;
}
);
leftKerningGroup = V;
rightKerningGroup = V;
unicode = 0056;
userData = {
anchors = (
);
b = {
};
com.typemytype.robofont.guides = (
);
com.typemytype.robofont.layerData = {
b = {
anchors = (
);
components = (
);
contours = (
{
points = (
{
segmentType = curve;
smooth = 1;
x = 644;
y = "-5";
},
{
smooth = 0;
x = 712;
y = "-5";
},
{
smooth = 0;
x = 764;
y = 38;
},
{
segmentType = curve;
smooth = 1;
x = 793;
y = 117;
},
{
segmentType = line;
smooth = 1;
x = 1243;
y = 1324;
},
{
smooth = 0;
x = 1247;
y = 1335;
},
{
smooth = 0;
x = 1248;
y = 1342;
},
{
segmentType = curve;
smooth = 1;
x = 1248;
y = 1351;
},
{
smooth = 0;
x = 1248;
y = 1395;
},
{
smooth = 0;
x = 1203;
y = 1427;
},
{
segmentType = curve;
smooth = 1;
x = 1160;
y = 1427;
},
{
smooth = 0;
x = 1125;
y = 1427;
},
{
smooth = 0;
x = 1090;
y = 1408;
},
{
segmentType = curve;
smooth = 1;
x = 1076;
y = 1369;
},
{
segmentType = line;
smooth = 0;
x = 651;
y = 192;
},
{
segmentType = line;
smooth = 0;
x = 650;
y = 190;
},
{
segmentType = line;
smooth = 1;
x = 214;
y = 1370;
},
{
smooth = 0;
x = 200;
y = 1407;
},
{
smooth = 0;
x = 170;
y = 1427;
},
{
segmentType = curve;
smooth = 1;
x = 135;
y = 1427;
},
{
smooth = 0;
x = 90;
y = 1427;
},
{
smooth = 0;
x = 43;
y = 1392;
},
{
segmentType = curve;
smooth = 1;
x = 43;
y = 1344;
},
{
smooth = 0;
x = 43;
y = 1336;
},
{
smooth = 0;
x = 44;
y = 1326;
},
{
segmentType = curve;
smooth = 0;
x = 48;
y = 1318;
},
{
segmentType = line;
smooth = 1;
x = 501;
y = 117;
},
{
smooth = 0;
x = 532;
y = 35;
},
{
smooth = 0;
x = 581;
y = "-5";
}
);
}
);
lib = {
};
name = V;
unicodes = (
);
width = 1289;
};
};
components = (
);
contours = (
);
lib = {
};
name = V;
unicodes = (
);
width = 1365;
};
},
{
glyphname = W;
layers = (
{
anchors = (
{
name = bottom;
position = "{529, 0}";
},
{
name = top;
position = "{583, 705}";
}
);
background = {
paths = (
{
closed = 1;
nodes = (
"313 0 LINE",
"590 649 LINE",
"569 649 LINE",
"744 0 LINE",
"792 0 LINE",
"1092 705 LINE",
"1038 705 LINE",
"754 35 LINE",
"784 35 LINE",
"606 704 LINE",
"562 705 LINE",
"277 35 LINE",
"306 35 LINE",
"129 705 LINE",
"75 705 LINE",
"265 0 LINE"
);
}
);
};
layerId = "9E718F8A-2CEA-4931-B05D-987794BD97DA";
paths = (
{
closed = 1;
nodes = (
"268 -12 OFFCURVE",
"307 -13 OFFCURVE",
"319 15 CURVE SMOOTH",
"590 649 LINE",
"569 649 LINE",
"739 19 LINE SMOOTH",
"747 -12 OFFCURVE",
"786 -13 OFFCURVE",
"798 15 CURVE SMOOTH",
"1079 675 LINE SMOOTH",
"1094 710 OFFCURVE",
"1046 723 OFFCURVE",
"1034 695 CURVE SMOOTH",
"754 35 LINE",
"784 35 LINE",
"610 687 LINE SMOOTH",
"603 714 OFFCURVE",
"568 720 OFFCURVE",
"554 687 CURVE SMOOTH",
"277 35 LINE",
"306 35 LINE",
"133 690 LINE SMOOTH",
"124 723 OFFCURVE",
"73 712 OFFCURVE",
"82 677 CURVE SMOOTH",
"260 19 LINE SMOOTH"
);
}
);
width = 1095;
}
);
leftKerningGroup = V;
rightKerningGroup = V;
unicode = 0057;
userData = {
anchors = (
);
b = {
};
com.typemytype.robofont.layerData = {
b = {
anchors = (
);
components = (
);
contours = (
);
lib = {
};
name = W;
unicodes = (
);
width = 2126;
};
};
components = (
);
contours = (
);
lib = {
};
name = W;
unicodes = (
);
width = 2070;
};
},
{
glyphname = X;
layers = (
{
anchors = (
{
name = bottom;
position = "{299, 0}";
},
{
name = top;
position = "{354, 705}";
}
);
background = {
paths = (
{
closed = 1;
nodes = (
"49 -5 OFFCURVE",
"56 0 OFFCURVE",
"60 5 CURVE SMOOTH",
"325 320 LINE",
"358 361 LINE",
"616 668 LINE SMOOTH",
"631 686 OFFCURVE",
"620 710 OFFCURVE",
"598 710 CURVE SMOOTH",
"587 710 OFFCURVE",
"581 706 OFFCURVE",
"576 700 CURVE SMOOTH",
"330 404 LINE",
"296 363 LINE",
"22 39 LINE SMOOTH",
"7 21 OFFCURVE",
"13 -5 OFFCURVE",
"40 -5 CURVE SMOOTH"
);
},
{
closed = 1;
nodes = (
"579 -5 OFFCURVE",
"596 15 OFFCURVE",
"581 37 CURVE SMOOTH",
"358 361 LINE",
"130 698 LINE SMOOTH",
"125 706 OFFCURVE",
"117 710 OFFCURVE",
"108 710 CURVE SMOOTH",
"90 710 OFFCURVE",
"71 690 OFFCURVE",
"86 668 CURVE SMOOTH",
"296 363 LINE",
"325 320 LINE",
"536 8 LINE SMOOTH",
"542 -1 OFFCURVE",
"550 -5 OFFCURVE",
"561 -5 CURVE SMOOTH"
);
}
);
};
layerId = "9E718F8A-2CEA-4931-B05D-987794BD97DA";
paths = (
{
closed = 1;
nodes = (
"325 320 LINE",
"358 361 LINE",
"616 668 LINE SMOOTH",
"640 697 OFFCURVE",
"598 726 OFFCURVE",
"576 700 CURVE SMOOTH",
"330 403 LINE",
"296 363 LINE",
"22 39 LINE SMOOTH",
"-4 8 OFFCURVE",
"38 -22 OFFCURVE",
"60 5 CURVE SMOOTH"
);
},
{
closed = 1;
nodes = (
"555 -21 OFFCURVE",
"604 3 OFFCURVE",
"581 37 CURVE SMOOTH",
"358 361 LINE",
"330 403 LINE",
"130 698 LINE SMOOTH",
"112 725 OFFCURVE",
"64 700 OFFCURVE",
"86 668 CURVE SMOOTH",
"296 363 LINE",
"325 320 LINE",
"536 8 LINE SMOOTH"
);
}
);
width = 635;
}
);
leftKerningGroup = X;
rightKerningGroup = X;
unicode = 0058;
userData = {
anchors = (
);
b = {
};
com.typemytype.robofont.layerData = {
b = {
anchors = (
);
components = (
);
contours = (
{
points = (
{
segmentType = curve;
smooth = 1;
x = 151;
y = 0;
},
{
smooth = 0;
x = 176;
y = 0;
},
{
smooth = 0;
x = 201;
y = 12;
},
{
segmentType = curve;
smooth = 1;
x = 222;
y = 41;
},
{
segmentType = line;
smooth = 0;
x = 641;
y = 616;
},
{
segmentType = line;
smooth = 0;
x = 746;
y = 734;
},
{
segmentType = line;
smooth = 1;
x = 1175;
y = 1310;
},
{
smooth = 0;
x = 1186;
y = 1325;
},
{
smooth = 0;
x = 1190;
y = 1338;
},
{
segmentType = curve;
smooth = 1;
x = 1190;
y = 1353;
},
{
smooth = 0;
x = 1190;
y = 1393;
},
{
smooth = 0;
x = 1153;
y = 1426;
},
{
segmentType = curve;
smooth = 1;
x = 1110;
y = 1426;
},
{
smooth = 0;
x = 1083;
y = 1426;
},
{
smooth = 0;
x = 1058;
y = 1414;
},
{
segmentType = curve;
smooth = 1;
x = 1037;
y = 1385;
},
{
segmentType = line;
smooth = 0;
x = 648;
y = 844;
},
{
segmentType = line;
smooth = 0;
x = 542;
y = 732;
},
{
segmentType = line;
smooth = 1;
x = 84;
y = 121;
},
{
smooth = 0;
x = 73;
y = 106;
},
{
smooth = 0;
x = 68;
y = 91;
},
{
segmentType = curve;
smooth = 1;
x = 68;
y = 76;
},
{
smooth = 0;
x = 68;
y = 35;
},
{
smooth = 0;
x = 108;
y = 0;
}
);
},
{
points = (
{
segmentType = curve;
smooth = 1;
x = 1104;
y = 0;
},
{
smooth = 0;
x = 1151;
y = 0;
},
{
smooth = 0;
x = 1200;
y = 40;
},
{
segmentType = curve;
smooth = 1;
x = 1200;
y = 85;
},
{
smooth = 0;
x = 1200;
y = 98;
},
{
smooth = 0;
x = 1195;
y = 113;
},
{
segmentType = curve;
smooth = 0;
x = 1186;
y = 126;
},
{
segmentType = line;
smooth = 0;
x = 272;
y = 1385;
},
{
smooth = 0;
x = 252;
y = 1414;
},
{
smooth = 0;
x = 225;
y = 1426;
},
{
segmentType = curve;
smooth = 1;
x = 197;
y = 1426;
},
{
smooth = 0;
x = 149;
y = 1426;
},
{
smooth = 0;
x = 100;
y = 1388;
},
{
segmentType = curve;
smooth = 1;
x = 100;
y = 1343;
},
{
smooth = 0;
x = 100;
y = 1328;
},
{
smooth = 0;
x = 105;
y = 1315;
},
{
segmentType = curve;
smooth = 0;
x = 114;
y = 1303;
},
{
segmentType = line;
smooth = 0;
x = 1033;
y = 40;
},
{
smooth = 0;
x = 1052;
y = 13;
},
{
smooth = 0;
x = 1076;
y = 0;
}
);
}
);
lib = {
};
name = X;
unicodes = (
);
width = 1274;
};
};
components = (
);
contours = (
);
lib = {
};
name = X;
unicodes = (
);
width = 1322;
};
},
{
glyphname = Y;
layers = (
{
anchors = (
{
name = bottom;
position = "{274, 0}";
},
{
name = top;
position = "{329, 705}";
},
{
name = topleft;
position = "{55, 705}";
}
);
background = {
paths = (
{
closed = 1;
nodes = (
"290 -5 OFFCURVE",
"302 5 OFFCURVE",
"303 20 CURVE SMOOTH",
"330 367 LINE",
"314 322 LINE",
"601 670 LINE SMOOTH",
"614 686 OFFCURVE",
"609 710 OFFCURVE",
"586 710 CURVE SMOOTH",
"576 710 OFFCURVE",
"567 705 OFFCURVE",
"558 694 CURVE SMOOTH",
"294 374 LINE",
"311 374 LINE",
"94 697 LINE SMOOTH",
"90 704 OFFCURVE",
"81 710 OFFCURVE",
"71 710 CURVE SMOOTH",
"50 710 OFFCURVE",
"38 690 OFFCURVE",
"52 669 CURVE SMOOTH",
"285 322 LINE",
"276 367 LINE",
"249 24 LINE SMOOTH",
"248 7 OFFCURVE",
"261 -5 OFFCURVE",
"276 -5 CURVE SMOOTH"
);
}
);
};
layerId = "9E718F8A-2CEA-4931-B05D-987794BD97DA";
paths = (
{
closed = 1;
nodes = (
"290 -5 OFFCURVE",
"302 5 OFFCURVE",
"303 20 CURVE SMOOTH",
"330 367 LINE",
"314 322 LINE",
"601 670 LINE SMOOTH",
"625 700 OFFCURVE",
"587 729 OFFCURVE",
"558 694 CURVE SMOOTH",
"294 374 LINE",
"311 374 LINE",
"94 697 LINE SMOOTH",
"78 724 OFFCURVE",
"28 705 OFFCURVE",
"52 669 CURVE SMOOTH",
"285 322 LINE",
"276 367 LINE",
"249 24 LINE SMOOTH",
"248 7 OFFCURVE",
"261 -5 OFFCURVE",
"276 -5 CURVE SMOOTH"
);
}
);
width = 587;
}
);
leftKerningGroup = Y;
rightKerningGroup = Y;
unicode = 0059;
userData = {
anchors = (
);
b = {
};
com.typemytype.robofont.guides = (
);
com.typemytype.robofont.layerData = {
b = {
anchors = (
);
components = (
);
contours = (
{
points = (
{
segmentType = curve;
smooth = 1;
x = 641;
y = 0;
},
{
smooth = 0;
x = 685;
y = 0;
},
{
smooth = 0;
x = 730;
y = 29;
},
{
segmentType = curve;
smooth = 1;
x = 730;
y = 85;
},
{
segmentType = line;
smooth = 0;
x = 730;
y = 1285;
},
{
segmentType = line;
smooth = 1;
x = 1115;
y = 1285;
},
{
smooth = 0;
x = 1164;
y = 1285;
},
{
smooth = 0;
x = 1190;
y = 1319;
},
{
segmentType = curve;
smooth = 1;
x = 1190;
y = 1355;
},
{
smooth = 0;
x = 1190;
y = 1392;
},
{
smooth = 0;
x = 1166;
y = 1426;
},
{
segmentType = curve;
smooth = 1;
x = 1115;
y = 1426;
},
{
segmentType = line;
smooth = 1;
x = 160;
y = 1426;
},
{
smooth = 0;
x = 111;
y = 1426;
},
{
smooth = 0;
x = 86;
y = 1392;
},
{
segmentType = curve;
smooth = 1;
x = 86;
y = 1355;
},
{
smooth = 0;
x = 86;
y = 1319;
},
{
smooth = 0;
x = 111;
y = 1285;
},
{
segmentType = curve;
smooth = 1;
x = 160;
y = 1285;
},
{
segmentType = line;
smooth = 0;
x = 552;
y = 1285;
},
{
segmentType = line;
smooth = 1;
x = 552;
y = 85;
},
{
smooth = 0;
x = 552;
y = 29;
},
{
smooth = 0;
x = 596;
y = 0;
}
);
}
);
lib = {
};
name = Y;
unicodes = (
);
width = 1278;
};
};
components = (
);
contours = (
);
lib = {
};
name = Y;
unicodes = (
);
width = 1321;
};
},
{
glyphname = Z;
layers = (
{
anchors = (
{
name = bottom;
position = "{279, 0}";
},
{
name = top;
position = "{326, 705}";
}
);
background = {
paths = (
{
closed = 1;
nodes = (
"526 0 LINE",
"530 48 LINE",
"66 48 LINE",
"64 7 LINE",
"568 665 LINE",
"571 705 LINE",
"80 705 LINE",
"76 657 LINE",
"530 657 LINE",
"532 698 LINE",
"27 40 LINE",
"24 0 LINE"
);
}
);
};
layerId = "9E718F8A-2CEA-4931-B05D-987794BD97DA";
paths = (
{
closed = 1;
nodes = (
"509 0 LINE SMOOTH",
"524 0 OFFCURVE",
"533 11 OFFCURVE",
"533 24 CURVE SMOOTH",
"533 37 OFFCURVE",
"524 48 OFFCURVE",
"509 48 CURVE SMOOTH",
"66 48 LINE",
"64 7 LINE",
"566 663 LINE SMOOTH",
"580 681 OFFCURVE",
"571 705 OFFCURVE",
"551 705 CURVE SMOOTH",
"97 705 LINE SMOOTH",
"82 705 OFFCURVE",
"73 694 OFFCURVE",
"73 681 CURVE SMOOTH",
"73 668 OFFCURVE",
"82 657 OFFCURVE",
"97 657 CURVE SMOOTH",
"530 657 LINE",
"532 698 LINE",
"29 42 LINE SMOOTH",
"15 23 OFFCURVE",
"26 0 OFFCURVE",
"46 0 CURVE SMOOTH"
);
}
);
width = 582;
}
);
leftKerningGroup = Z;
rightKerningGroup = Z;
unicode = 005A;
userData = {
anchors = (
);
b = {
};
com.typemytype.robofont.layerData = {
b = {
anchors = (
);
components = (
);
contours = (
{
points = (
{
segmentType = curve;
smooth = 1;
x = 266;
y = 0;
},
{
segmentType = line;
smooth = 1;
x = 1035;
y = 0;
},
{
smooth = 0;
x = 1084;
y = 0;
},
{
smooth = 0;
x = 1108;
y = 34;
},
{
segmentType = curve;
smooth = 1;
x = 1108;
y = 71;
},
{
smooth = 0;
x = 1108;
y = 107;
},
{
smooth = 0;
x = 1084;
y = 141;
},
{
segmentType = curve;
smooth = 1;
x = 1035;
y = 141;
},
{
segmentType = line;
smooth = 0;
x = 356;
y = 141;
},
{
segmentType = line;
smooth = 0;
x = 356;
y = 665;
},
{
segmentType = line;
smooth = 1;
x = 975;
y = 665;
},
{
smooth = 0;
x = 1024;
y = 665;
},
{
smooth = 0;
x = 1049;
y = 698;
},
{
segmentType = curve;
smooth = 1;
x = 1049;
y = 734;
},
{
smooth = 0;
x = 1049;
y = 770;
},
{
smooth = 0;
x = 1026;
y = 803;
},
{
segmentType = curve;
smooth = 1;
x = 975;
y = 803;
},
{
segmentType = line;
smooth = 0;
x = 356;
y = 803;
},
{
segmentType = line;
smooth = 0;
x = 356;
y = 1285;
},
{
segmentType = line;
smooth = 1;
x = 1007;
y = 1285;
},
{
smooth = 0;
x = 1056;
y = 1285;
},
{
smooth = 0;
x = 1080;
y = 1319;
},
{
segmentType = curve;
smooth = 1;
x = 1080;
y = 1356;
},
{
smooth = 0;
x = 1080;
y = 1392;
},
{
smooth = 0;
x = 1056;
y = 1426;
},
{
segmentType = curve;
smooth = 1;
x = 1007;
y = 1426;
},
{
segmentType = line;
smooth = 1;
x = 261;
y = 1426;
},
{
smooth = 0;
x = 213;
y = 1426;
},
{
smooth = 0;
x = 178;
y = 1383;
},
{
segmentType = curve;
smooth = 1;
x = 178;
y = 1340;
},
{
segmentType = line;
smooth = 1;
x = 178;
y = 86;
},
{
smooth = 0;
x = 178;
y = 41;
},
{
smooth = 0;
x = 222;
y = 0;
}
);
}
);
lib = {
};
name = Z;
unicodes = (
);
width = 1165;
};
};
components = (
);
contours = (
);
lib = {
};
name = Z;
unicodes = (
);
width = 1222;
};
},
{
glyphname = a;
layers = (
{
anchors = (
{
name = bottom;
position = "{250, 0}";
},
{
name = ogonek;
position = "{422, 10}";
},
{
name = top;
position = "{292, 490}";
}
);
background = {
anchors = (
{
name = bottom;
position = "{250, 0}";
},
{
name = ogonek;
position = "{422, 10}";
},
{
name = top;
position = "{292, 490}";
}
);
paths = (
{
closed = 1;
nodes = (
"297 -7 OFFCURVE",
"365 39 OFFCURVE",
"393 123 CURVE",
"381 129 LINE",
"373 24 LINE SMOOTH",
"372 7 OFFCURVE",
"382 -4 OFFCURVE",
"398 -4 CURVE SMOOTH",
"415 -4 OFFCURVE",
"426 7 OFFCURVE",
"427 24 CURVE SMOOTH",
"450 314 LINE SMOOTH",
"460 436 OFFCURVE",
"407 497 OFFCURVE",
"292 497 CURVE SMOOTH",
"237 497 OFFCURVE",
"176 482 OFFCURVE",
"127 454 CURVE SMOOTH",
"101 439 OFFCURVE",
"90 427 OFFCURVE",
"89 412 CURVE SMOOTH",
"88 399 OFFCURVE",
"97 389 OFFCURVE",
"108 389 CURVE SMOOTH",
"118 389 OFFCURVE",
"131 398 OFFCURVE",
"146 408 CURVE",
"175 425 OFFCURVE",
"226 448 OFFCURVE",
"293 448 CURVE SMOOTH",
"372 448 OFFCURVE",
"403 408 OFFCURVE",
"396 318 CURVE SMOOTH",
"387 202 LINE SMOOTH",
"380 109 OFFCURVE",
"311 42 OFFCURVE",
"222 42 CURVE SMOOTH",
"157 42 OFFCURVE",
"112 84 OFFCURVE",
"116 142 CURVE SMOOTH",
"122 216 OFFCURVE",
"177 236 OFFCURVE",
"371 236 CURVE SMOOTH",
"401 236 LINE",
"404 279 LINE",
"372 279 LINE SMOOTH",
"141 279 OFFCURVE",
"65 245 OFFCURVE",
"58 137 CURVE SMOOTH",
"52 55 OFFCURVE",
"121 -7 OFFCURVE",
"215 -7 CURVE SMOOTH"
);
}
);
};
layerId = "9E718F8A-2CEA-4931-B05D-987794BD97DA";
paths = (
{
closed = 1;
nodes = (
"307 -7 OFFCURVE",
"369 40 OFFCURVE",
"393 123 CURVE",
"379 100 LINE",
"374 24 LINE SMOOTH",
"373 7 OFFCURVE",
"384 -5 OFFCURVE",
"401 -5 CURVE SMOOTH",
"416 -5 OFFCURVE",
"426 4 OFFCURVE",
"427 20 CURVE SMOOTH",
"450 314 LINE SMOOTH",
"459 435 OFFCURVE",
"405 497 OFFCURVE",
"288 497 CURVE SMOOTH",
"224 497 OFFCURVE",
"149 474 OFFCURVE",
"101 439 CURVE SMOOTH",
"74 420 OFFCURVE",
"93 376 OFFCURVE",
"120 393 CURVE SMOOTH",
"178 430 OFFCURVE",
"233 448 OFFCURVE",
"287 448 CURVE SMOOTH",
"369 448 OFFCURVE",
"403 407 OFFCURVE",
"396 315 CURVE SMOOTH",
"387 199 LINE SMOOTH",
"380 107 OFFCURVE",
"315 42 OFFCURVE",
"230 42 CURVE SMOOTH",
"160 42 OFFCURVE",
"116 78 OFFCURVE",
"116 135 CURVE SMOOTH",
"116 212 OFFCURVE",
"174 236 OFFCURVE",
"361 236 CURVE SMOOTH",
"401 236 LINE",
"404 279 LINE",
"358 279 LINE SMOOTH",
"139 279 OFFCURVE",
"58 239 OFFCURVE",
"58 132 CURVE SMOOTH",
"58 50 OFFCURVE",
"126 -7 OFFCURVE",
"223 -7 CURVE SMOOTH"
);
}
);
width = 524;
}
);
leftKerningGroup = a;
rightKerningGroup = n;
unicode = 0061;
userData = {
anchors = (
);
b = {
};
com.typemytype.robofont.layerData = {
b = {
anchors = (
);
components = (
);
contours = (
);
lib = {
};
name = a;
unicodes = (
);
width = 1040;
};
};
components = (
);
contours = (
);
lib = {
};
name = a;
unicodes = (
);
width = 1101;
};
},
{
glyphname = aogonek;
layers = (
{
background = {
paths = (
{
closed = 1;
nodes = (
"301 -7 OFFCURVE",
"367 35 OFFCURVE",
"393 123 CURVE",
"379 100 LINE",
"374 24 LINE SMOOTH",
"373 4 OFFCURVE",
"387 -5 OFFCURVE",
"401 -5 CURVE SMOOTH",
"415 -5 OFFCURVE",
"426 3 OFFCURVE",
"427 20 CURVE SMOOTH",
"450 314 LINE SMOOTH",
"459 433 OFFCURVE",
"407 497 OFFCURVE",
"288 497 CURVE SMOOTH",
"224 497 OFFCURVE",
"149 474 OFFCURVE",
"101 439 CURVE SMOOTH",
"75 420 OFFCURVE",
"92 375 OFFCURVE",
"120 393 CURVE SMOOTH",
"178 430 OFFCURVE",
"233 448 OFFCURVE",
"287 448 CURVE SMOOTH",
"370 448 OFFCURVE",
"403 406 OFFCURVE",
"396 315 CURVE SMOOTH",
"387 199 LINE SMOOTH",
"380 106 OFFCURVE",
"314 42 OFFCURVE",
"230 42 CURVE SMOOTH",
"159 42 OFFCURVE",
"116 79 OFFCURVE",
"116 135 CURVE SMOOTH",
"116 205 OFFCURVE",
"155 236 OFFCURVE",
"361 236 CURVE SMOOTH",
"401 236 LINE",
"404 279 LINE",
"358 279 LINE SMOOTH",
"137 279 OFFCURVE",
"58 238 OFFCURVE",
"58 132 CURVE SMOOTH",
"58 50 OFFCURVE",
"126 -7 OFFCURVE",
"223 -7 CURVE SMOOTH"
);
},
{
closed = 1;
nodes = (
"402 -191 OFFCURVE",
"425 -186 OFFCURVE",
"447 -174 CURVE SMOOTH",
"472 -160 OFFCURVE",
"467 -119 OFFCURVE",
"434 -135 CURVE SMOOTH",
"416 -144 OFFCURVE",
"397 -148 OFFCURVE",
"385 -148 CURVE SMOOTH",
"346 -148 OFFCURVE",
"323 -127 OFFCURVE",
"323 -86 CURVE SMOOTH",
"323 -41 OFFCURVE",
"357 -2 OFFCURVE",
"422 10 CURVE",
"412 41 LINE",
"323 26 OFFCURVE",
"272 -26 OFFCURVE",
"272 -95 CURVE SMOOTH",
"272 -152 OFFCURVE",
"313 -191 OFFCURVE",
"377 -191 CURVE SMOOTH"
);
}
);
};
layerId = "9E718F8A-2CEA-4931-B05D-987794BD97DA";
paths = (
{
closed = 1;
nodes = (
"402 -191 OFFCURVE",
"425 -186 OFFCURVE",
"447 -174 CURVE SMOOTH",
"472 -160 OFFCURVE",
"467 -119 OFFCURVE",
"434 -135 CURVE SMOOTH",
"416 -144 OFFCURVE",
"397 -148 OFFCURVE",
"385 -148 CURVE SMOOTH",
"346 -148 OFFCURVE",
"323 -127 OFFCURVE",
"323 -86 CURVE SMOOTH",
"323 -32 OFFCURVE",
"367 -4 OFFCURVE",
"408 0 CURVE SMOOTH",
"417 1 OFFCURVE",
"426 6 OFFCURVE",
"427 21 CURVE SMOOTH",
"450 314 LINE SMOOTH",
"459 433 OFFCURVE",
"407 497 OFFCURVE",
"288 497 CURVE SMOOTH",
"224 497 OFFCURVE",
"150 473 OFFCURVE",
"101 439 CURVE SMOOTH",
"75 421 OFFCURVE",
"92 375 OFFCURVE",
"120 393 CURVE SMOOTH",
"178 430 OFFCURVE",
"233 448 OFFCURVE",
"287 448 CURVE SMOOTH",
"370 448 OFFCURVE",
"403 406 OFFCURVE",
"396 315 CURVE SMOOTH",
"387 199 LINE SMOOTH",
"380 106 OFFCURVE",
"314 42 OFFCURVE",
"230 42 CURVE SMOOTH",
"159 42 OFFCURVE",
"116 79 OFFCURVE",
"116 135 CURVE SMOOTH",
"116 205 OFFCURVE",
"155 236 OFFCURVE",
"361 236 CURVE SMOOTH",
"401 236 LINE",
"404 279 LINE",
"358 279 LINE SMOOTH",
"137 279 OFFCURVE",
"58 238 OFFCURVE",
"58 132 CURVE SMOOTH",
"58 50 OFFCURVE",
"126 -7 OFFCURVE",
"223 -7 CURVE SMOOTH",
"301 -7 OFFCURVE",
"367 35 OFFCURVE",
"393 123 CURVE",
"379 100 LINE",
"374 24 LINE SMOOTH",
"373 16 OFFCURVE",
"376 7 OFFCURVE",
"384 0 CURVE",
"412 36 LINE",
"323 25 OFFCURVE",
"272 -27 OFFCURVE",
"272 -95 CURVE SMOOTH",
"272 -152 OFFCURVE",
"313 -191 OFFCURVE",
"379 -191 CURVE SMOOTH"
);
}
);
width = 524;
}
);
leftKerningGroup = a;
rightKerningGroup = n;
unicode = 0105;
userData = {
com.typemytype.robofont.layerData = {
b = {
anchors = (
);
components = (
);
contours = (
);
lib = {
};
name = aogonek;
unicodes = (
);
width = 1040;
};
};
};
},
{
glyphname = aringacute;
layers = (
{
background = {
paths = (
{
closed = 1;
nodes = (
"297 -7 OFFCURVE",
"365 39 OFFCURVE",
"393 123 CURVE",
"381 129 LINE",
"373 24 LINE SMOOTH",
"372 7 OFFCURVE",
"382 -4 OFFCURVE",
"398 -4 CURVE SMOOTH",
"415 -4 OFFCURVE",
"426 7 OFFCURVE",
"427 24 CURVE SMOOTH",
"450 314 LINE SMOOTH",
"460 436 OFFCURVE",
"407 497 OFFCURVE",
"292 497 CURVE SMOOTH",
"237 497 OFFCURVE",
"176 482 OFFCURVE",
"127 454 CURVE SMOOTH",
"101 439 OFFCURVE",
"90 427 OFFCURVE",
"89 412 CURVE SMOOTH",
"88 399 OFFCURVE",
"97 389 OFFCURVE",
"108 389 CURVE SMOOTH",
"118 389 OFFCURVE",
"131 398 OFFCURVE",
"146 408 CURVE",
"175 425 OFFCURVE",
"226 448 OFFCURVE",
"293 448 CURVE SMOOTH",
"372 448 OFFCURVE",
"403 408 OFFCURVE",
"396 318 CURVE SMOOTH",
"387 202 LINE SMOOTH",
"380 109 OFFCURVE",
"311 42 OFFCURVE",
"222 42 CURVE SMOOTH",
"157 42 OFFCURVE",
"112 84 OFFCURVE",
"116 142 CURVE SMOOTH",
"122 216 OFFCURVE",
"177 236 OFFCURVE",
"371 236 CURVE SMOOTH",
"401 236 LINE",
"404 279 LINE",
"372 279 LINE SMOOTH",
"141 279 OFFCURVE",
"65 245 OFFCURVE",
"58 137 CURVE SMOOTH",
"52 55 OFFCURVE",
"121 -7 OFFCURVE",
"215 -7 CURVE SMOOTH"
);
},
{
closed = 1;
nodes = (
"351 555 OFFCURVE",
"398 597 OFFCURVE",
"403 651 CURVE SMOOTH",
"407 705 OFFCURVE",
"366 747 OFFCURVE",
"312 747 CURVE SMOOTH",
"258 747 OFFCURVE",
"211 705 OFFCURVE",
"207 651 CURVE SMOOTH",
"202 597 OFFCURVE",
"243 555 OFFCURVE",
"297 555 CURVE SMOOTH"
);
},
{
closed = 1;
nodes = (
"272 599 OFFCURVE",
"252 622 OFFCURVE",
"255 651 CURVE SMOOTH",
"257 680 OFFCURVE",
"280 703 OFFCURVE",
"309 703 CURVE SMOOTH",
"338 703 OFFCURVE",
"357 680 OFFCURVE",
"355 651 CURVE SMOOTH",
"352 622 OFFCURVE",
"330 599 OFFCURVE",
"301 599 CURVE SMOOTH"
);
},
{
closed = 1;
nodes = (
"510 791 LINE SMOOTH",
"557 825 OFFCURVE",
"506 880 OFFCURVE",
"469 839 CURVE SMOOTH",
"360 722 LINE SMOOTH",
"345 705 OFFCURVE",
"363 685 OFFCURVE",
"381 698 CURVE SMOOTH"
);
}
);
};
layerId = "9E718F8A-2CEA-4931-B05D-987794BD97DA";
paths = (
{
closed = 1;
nodes = (
"301 -7 OFFCURVE",
"367 35 OFFCURVE",
"393 123 CURVE",
"379 100 LINE",
"374 24 LINE SMOOTH",
"373 4 OFFCURVE",
"387 -5 OFFCURVE",
"401 -5 CURVE SMOOTH",
"415 -5 OFFCURVE",
"426 3 OFFCURVE",
"427 20 CURVE SMOOTH",
"450 314 LINE SMOOTH",
"459 433 OFFCURVE",
"407 497 OFFCURVE",
"288 497 CURVE SMOOTH",
"224 497 OFFCURVE",
"149 474 OFFCURVE",
"101 439 CURVE SMOOTH",
"75 421 OFFCURVE",
"92 375 OFFCURVE",
"120 393 CURVE SMOOTH",
"178 430 OFFCURVE",
"233 448 OFFCURVE",
"287 448 CURVE SMOOTH",
"370 448 OFFCURVE",
"403 406 OFFCURVE",
"396 315 CURVE SMOOTH",
"387 199 LINE SMOOTH",
"380 106 OFFCURVE",
"314 42 OFFCURVE",
"230 42 CURVE SMOOTH",
"159 42 OFFCURVE",
"116 79 OFFCURVE",
"116 135 CURVE SMOOTH",
"116 205 OFFCURVE",
"155 236 OFFCURVE",
"361 236 CURVE SMOOTH",
"401 236 LINE",
"404 279 LINE",
"358 279 LINE SMOOTH",
"137 279 OFFCURVE",
"58 238 OFFCURVE",
"58 132 CURVE SMOOTH",
"58 50 OFFCURVE",
"126 -7 OFFCURVE",
"223 -7 CURVE SMOOTH"
);
},
{
closed = 1;
nodes = (
"359 555 OFFCURVE",
"403 597 OFFCURVE",
"403 651 CURVE SMOOTH",
"403 705 OFFCURVE",
"359 747 OFFCURVE",
"305 747 CURVE SMOOTH",
"251 747 OFFCURVE",
"207 705 OFFCURVE",
"207 651 CURVE SMOOTH",
"207 597 OFFCURVE",
"251 555 OFFCURVE",
"305 555 CURVE SMOOTH"
);
},
{
closed = 1;
nodes = (
"276 599 OFFCURVE",
"255 622 OFFCURVE",
"255 651 CURVE SMOOTH",
"255 680 OFFCURVE",
"276 703 OFFCURVE",
"305 703 CURVE SMOOTH",
"334 703 OFFCURVE",
"355 680 OFFCURVE",
"355 651 CURVE SMOOTH",
"355 622 OFFCURVE",
"334 599 OFFCURVE",
"305 599 CURVE SMOOTH"
);
},
{
closed = 1;
nodes = (
"499 791 LINE SMOOTH",
"543 825 OFFCURVE",
"488 880 OFFCURVE",
"454 839 CURVE SMOOTH",
"355 722 LINE SMOOTH",
"341 705 OFFCURVE",
"361 685 OFFCURVE",
"378 698 CURVE SMOOTH"
);
}
);
width = 524;
}
);
leftKerningGroup = a;
rightKerningGroup = n;
unicode = 01FB;
},
{
glyphname = ae;
layers = (
{
anchors = (
{
name = bottom;
position = "{403, 0}";
},
{
name = top;
position = "{442, 490}";
}
);
background = {
anchors = (
{
name = bottom;
position = "{1303, 0}";
},
{
name = top;
position = "{1342, 490}";
}
);
paths = (
{
closed = 1;
nodes = (
"674 -7 OFFCURVE",
"750 19 OFFCURVE",
"786 53 CURVE SMOOTH",
"813 79 OFFCURVE",
"785 113 OFFCURVE",
"757 91 CURVE SMOOTH",
"719 61 OFFCURVE",
"664 42 OFFCURVE",
"607 42 CURVE SMOOTH",
"498 42 OFFCURVE",
"441 112 OFFCURVE",
"441 224 CURVE SMOOTH",
"441 365 OFFCURVE",
"505 451 OFFCURVE",
"624 451 CURVE SMOOTH",
"718 451 OFFCURVE",
"777 387 OFFCURVE",
"763 256 CURVE",
"785 279 LINE",
"435 279 LINE",
"433 236 LINE",
"782 236 LINE SMOOTH",
"801 236 OFFCURVE",
"816 248 OFFCURVE",
"816 274 CURVE SMOOTH",
"816 422 OFFCURVE",
"747 497 OFFCURVE",
"621 497 CURVE SMOOTH",
"475 497 OFFCURVE",
"384 388 OFFCURVE",
"384 227 CURVE SMOOTH",
"384 85 OFFCURVE",
"468 -7 OFFCURVE",
"606 -7 CURVE SMOOTH"
);
}
);
};
layerId = "9E718F8A-2CEA-4931-B05D-987794BD97DA";
paths = (
{
closed = 1;
nodes = (
"326 -7 OFFCURVE",
"405 62 OFFCURVE",
"425 171 CURVE",
"441 171 LINE",
"454 314 LINE",
"463 433 OFFCURVE",
"411 497 OFFCURVE",
"290 497 CURVE SMOOTH",
"224 497 OFFCURVE",
"149 474 OFFCURVE",
"101 439 CURVE SMOOTH",
"75 420 OFFCURVE",
"92 375 OFFCURVE",
"120 393 CURVE SMOOTH",
"177 430 OFFCURVE",
"233 448 OFFCURVE",
"290 448 CURVE SMOOTH",
"374 448 OFFCURVE",
"408 406 OFFCURVE",
"400 315 CURVE SMOOTH",
"391 208 LINE SMOOTH",
"383 110 OFFCURVE",
"315 42 OFFCURVE",
"227 42 CURVE SMOOTH",
"159 42 OFFCURVE",
"116 79 OFFCURVE",
"116 135 CURVE SMOOTH",
"116 205 OFFCURVE",
"155 236 OFFCURVE",
"361 236 CURVE SMOOTH",
"405 236 LINE",
"408 279 LINE",
"358 279 LINE SMOOTH",
"137 279 OFFCURVE",
"58 238 OFFCURVE",
"58 132 CURVE SMOOTH",
"58 50 OFFCURVE",
"126 -7 OFFCURVE",
"222 -7 CURVE SMOOTH"
);
},
{
closed = 1;
nodes = (
"674 -7 OFFCURVE",
"750 19 OFFCURVE",
"786 53 CURVE SMOOTH",
"813 79 OFFCURVE",
"785 113 OFFCURVE",
"757 91 CURVE SMOOTH",
"719 61 OFFCURVE",
"664 42 OFFCURVE",
"615 42 CURVE SMOOTH",
"505 42 OFFCURVE",
"448 112 OFFCURVE",
"448 224 CURVE SMOOTH",
"448 365 OFFCURVE",
"512 451 OFFCURVE",
"628 451 CURVE SMOOTH",
"718 451 OFFCURVE",
"777 387 OFFCURVE",
"763 256 CURVE",
"785 279 LINE",
"432 279 LINE",
"430 236 LINE",
"782 236 LINE SMOOTH",
"801 236 OFFCURVE",
"816 248 OFFCURVE",
"816 274 CURVE SMOOTH",
"816 422 OFFCURVE",
"747 497 OFFCURVE",
"625 497 CURVE SMOOTH",
"482 497 OFFCURVE",
"400 388 OFFCURVE",
"400 227 CURVE SMOOTH",
"400 85 OFFCURVE",
"475 -7 OFFCURVE",
"615 -7 CURVE SMOOTH"
);
}
);
width = 859;
}
);
leftKerningGroup = a;
rightKerningGroup = e;
unicode = 00E6;
userData = {
com.typemytype.robofont.layerData = {
b = {
anchors = (
);
components = (
);
contours = (
);
lib = {
};
name = ae;
unicodes = (
);
width = 1734;
};
};
};
},
{
glyphname = b;
layers = (
{
anchors = (
{
name = bottom;
position = "{282, 0}";
},
{
name = top;
position = "{324, 490}";
}
);
background = {
anchors = (
{
name = bottom;
position = "{282, 0}";
},
{
name = top;
position = "{324, 490}";
}
);
paths = (
{
closed = 1;
nodes = (
"413 -7 OFFCURVE",
"508 94 OFFCURVE",
"521 247 CURVE SMOOTH",
"533 399 OFFCURVE",
"454 497 OFFCURVE",
"324 497 CURVE SMOOTH",
"232 497 OFFCURVE",
"164 449 OFFCURVE",
"135 363 CURVE",
"145 355 LINE",
"171 682 LINE SMOOTH",
"173 699 OFFCURVE",
"163 710 OFFCURVE",
"146 710 CURVE SMOOTH",
"129 710 OFFCURVE",
"119 699 OFFCURVE",
"117 682 CURVE SMOOTH",
"65 24 LINE SMOOTH",
"64 7 OFFCURVE",
"73 -4 OFFCURVE",
"90 -4 CURVE SMOOTH",
"107 -4 OFFCURVE",
"118 7 OFFCURVE",
"119 24 CURVE SMOOTH",
"128 135 LINE",
"116 127 LINE",
"131 41 OFFCURVE",
"192 -7 OFFCURVE",
"284 -7 CURVE SMOOTH"
);
},
{
closed = 1;
nodes = (
"178 42 OFFCURVE",
"126 116 OFFCURVE",
"136 245 CURVE SMOOTH",
"147 374 OFFCURVE",
"211 448 OFFCURVE",
"315 448 CURVE SMOOTH",
"419 448 OFFCURVE",
"474 375 OFFCURVE",
"464 247 CURVE SMOOTH",
"453 118 OFFCURVE",
"386 42 OFFCURVE",
"283 42 CURVE SMOOTH"
);
}
);
};
layerId = "9E718F8A-2CEA-4931-B05D-987794BD97DA";
paths = (
{
closed = 1;
nodes = (
"429 -7 OFFCURVE",
"521 100 OFFCURVE",
"521 262 CURVE SMOOTH",
"521 405 OFFCURVE",
"437 497 OFFCURVE",
"314 497 CURVE SMOOTH",
"233 497 OFFCURVE",
"158 450 OFFCURVE",
"135 373 CURVE",
"145 355 LINE",
"171 686 LINE SMOOTH",
"172 704 OFFCURVE",
"160 711 OFFCURVE",
"146 711 CURVE SMOOTH",
"133 711 OFFCURVE",
"118 704 OFFCURVE",
"117 686 CURVE SMOOTH",
"64 23 LINE SMOOTH",
"62 2 OFFCURVE",
"75 -5 OFFCURVE",
"89 -5 CURVE SMOOTH",
"102 -5 OFFCURVE",
"116 2 OFFCURVE",
"118 23 CURVE SMOOTH",
"127 135 LINE",
"114 127 LINE",
"133 43 OFFCURVE",
"202 -7 OFFCURVE",
"294 -7 CURVE SMOOTH"
);
},
{
closed = 1;
nodes = (
"192 42 OFFCURVE",
"135 106 OFFCURVE",
"135 224 CURVE SMOOTH",
"135 363 OFFCURVE",
"199 448 OFFCURVE",
"305 448 CURVE SMOOTH",
"405 448 OFFCURVE",
"464 381 OFFCURVE",
"464 265 CURVE SMOOTH",
"464 126 OFFCURVE",
"400 42 OFFCURVE",
"295 42 CURVE SMOOTH"
);
}
);
width = 570;
}
);
leftKerningGroup = h;
rightKerningGroup = o;
unicode = 0062;
userData = {
anchors = (
);
b = {
};
com.typemytype.robofont.layerData = {
b = {
anchors = (
);
components = (
);
contours = (
{
points = (
{
segmentType = curve;
smooth = 1;
x = 238;
y = 1425;
},
{
smooth = 0;
x = 198;
y = 1425;
},
{
smooth = 0;
x = 158;
y = 1400;
},
{
segmentType = curve;
smooth = 1;
x = 158;
y = 1351;
},
{
segmentType = line;
smooth = 1;
x = 158;
y = 76;
},
{
smooth = 0;
x = 158;
y = 27;
},
{
smooth = 0;
x = 197;
y = 3;
},
{
segmentType = curve;
smooth = 1;
x = 237;
y = 3;
},
{
smooth = 0;
x = 297;
y = 3;
},
{
smooth = 0;
x = 318;
y = 38;
},
{
segmentType = curve;
smooth = 1;
x = 318;
y = 76;
},
{
segmentType = line;
smooth = 0;
x = 318;
y = 183;
},
{
smooth = 0;
x = 384;
y = 46;
},
{
smooth = 0;
x = 516;
y = "-20";
},
{
segmentType = curve;
smooth = 1;
x = 666;
y = "-20";
},
{
smooth = 0;
x = 957;
y = "-20";
},
{
smooth = 0;
x = 1095;
y = 225;
},
{
segmentType = curve;
smooth = 1;
x = 1095;
y = 502;
},
{
smooth = 0;
x = 1095;
y = 777;
},
{
smooth = 0;
x = 939;
y = 1013;
},
{
segmentType = curve;
smooth = 1;
x = 650;
y = 1013;
},
{
smooth = 0;
x = 503;
y = 1013;
},
{
smooth = 0;
x = 376;
y = 942;
},
{
segmentType = curve;
smooth = 0;
x = 318;
y = 814;
},
{
segmentType = line;
smooth = 1;
x = 318;
y = 1351;
},
{
smooth = 0;
x = 318;
y = 1400;
},
{
smooth = 0;
x = 278;
y = 1425;
}
);
},
{
points = (
{
segmentType = curve;
smooth = 1;
x = 632;
y = 903;
},
{
smooth = 0;
x = 859;
y = 903;
},
{
smooth = 0;
x = 935;
y = 685;
},
{
segmentType = curve;
smooth = 1;
x = 935;
y = 496;
},
{
smooth = 0;
x = 935;
y = 316;
},
{
smooth = 0;
x = 869;
y = 93;
},
{
segmentType = curve;
smooth = 0;
x = 645;
y = 90;
},
{
smooth = 0;
x = 395;
y = 90;
},
{
smooth = 0;
x = 319;
y = 279;
},
{
segmentType = curve;
smooth = 1;
x = 319;
y = 501;
},
{
smooth = 0;
x = 319;
y = 701;
},
{
smooth = 0;
x = 407;
y = 903;
}
);
}
);
lib = {
};
name = b;
unicodes = (
);
width = 1181;
};
};
components = (
);
contours = (
);
lib = {
};
name = b;
unicodes = (
);
width = 1203;
};
},
{
glyphname = c;
layers = (
{
anchors = (
{
name = bottom;
position = "{254, 0}";
},
{
name = top;
position = "{295, 490}";
}
);
background = {
anchors = (
{
name = bottom;
position = "{254, 0}";
},
{
name = top;
position = "{334, 490}";
}
);
paths = (
{
closed = 1;
nodes = (
"303 -7 OFFCURVE",
"360 10 OFFCURVE",
"398 36 CURVE SMOOTH",
"425 55 OFFCURVE",
"434 64 OFFCURVE",
"435 79 CURVE SMOOTH",
"436 91 OFFCURVE",
"428 101 OFFCURVE",
"417 101 CURVE SMOOTH",
"394 101 OFFCURVE",
"350 42 OFFCURVE",
"260 42 CURVE SMOOTH",
"154 42 OFFCURVE",
"97 116 OFFCURVE",
"107 243 CURVE SMOOTH",
"117 371 OFFCURVE",
"188 448 OFFCURVE",
"294 448 CURVE SMOOTH",
"384 448 OFFCURVE",
"413 389 OFFCURVE",
"437 389 CURVE SMOOTH",
"448 389 OFFCURVE",
"458 399 OFFCURVE",
"459 411 CURVE SMOOTH",
"460 426 OFFCURVE",
"453 438 OFFCURVE",
"428 457 CURVE SMOOTH",
"393 484 OFFCURVE",
"343 497 OFFCURVE",
"295 497 CURVE SMOOTH",
"161 497 OFFCURVE",
"62 395 OFFCURVE",
"50 243 CURVE SMOOTH",
"38 93 OFFCURVE",
"120 -7 OFFCURVE",
"253 -7 CURVE SMOOTH"
);
}
);
};
layerId = "9E718F8A-2CEA-4931-B05D-987794BD97DA";
paths = (
{
closed = 1;
nodes = (
"330 -7 OFFCURVE",
"391 18 OFFCURVE",
"431 58 CURVE SMOOTH",
"452 79 OFFCURVE",
"424 113 OFFCURVE",
"400 93 CURVE SMOOTH",
"363 62 OFFCURVE",
"323 42 OFFCURVE",
"270 42 CURVE SMOOTH",
"164 42 OFFCURVE",
"107 112 OFFCURVE",
"107 224 CURVE SMOOTH",
"107 363 OFFCURVE",
"171 448 OFFCURVE",
"286 448 CURVE SMOOTH",
"341 448 OFFCURVE",
"384 428 OFFCURVE",
"423 397 CURVE SMOOTH",
"448 377 OFFCURVE",
"477 416 OFFCURVE",
"450 442 CURVE SMOOTH",
"418 472 OFFCURVE",
"357 497 OFFCURVE",
"288 497 CURVE SMOOTH",
"141 497 OFFCURVE",
"50 389 OFFCURVE",
"50 227 CURVE SMOOTH",
"50 85 OFFCURVE",
"134 -7 OFFCURVE",
"264 -7 CURVE SMOOTH"
);
}
);
width = 473;
}
);
leftKerningGroup = o;
rightKerningGroup = c;
unicode = 0063;
userData = {
anchors = (
);
b = {
};
com.typemytype.robofont.layerData = {
b = {
anchors = (
);
components = (
);
contours = (
);
lib = {
};
name = c;
unicodes = (
);
width = 956.14099;
};
};
components = (
);
contours = (
);
lib = {
};
name = c;
unicodes = (
);
width = 992;
};
},
{
glyphname = d;
layers = (
{
anchors = (
{
name = bottom;
position = "{268, 0}";
},
{
name = center;
position = "{287, 245}";
},
{
name = top;
position = "{307, 490}";
},
{
name = topright;
position = "{564, 705}";
}
);
background = {
anchors = (
{
name = bottom;
position = "{268, 0}";
},
{
name = center;
position = "{287, 245}";
},
{
name = top;
position = "{307, 490}";
},
{
name = topright;
position = "{564, 705}";
}
);
paths = (
{
closed = 1;
nodes = (
"782 -7 OFFCURVE",
"874 100 OFFCURVE",
"874 262 CURVE SMOOTH",
"874 405 OFFCURVE",
"790 497 OFFCURVE",
"667 497 CURVE SMOOTH",
"586 497 OFFCURVE",
"511 450 OFFCURVE",
"488 373 CURVE",
"498 355 LINE",
"524 686 LINE SMOOTH",
"525 704 OFFCURVE",
"513 711 OFFCURVE",
"499 711 CURVE SMOOTH",
"486 711 OFFCURVE",
"471 704 OFFCURVE",
"470 686 CURVE SMOOTH",
"417 23 LINE SMOOTH",
"415 2 OFFCURVE",
"428 -5 OFFCURVE",
"442 -5 CURVE SMOOTH",
"455 -5 OFFCURVE",
"469 2 OFFCURVE",
"471 23 CURVE SMOOTH",
"480 135 LINE",
"467 127 LINE",
"486 43 OFFCURVE",
"555 -7 OFFCURVE",
"647 -7 CURVE SMOOTH"
);
},
{
closed = 1;
nodes = (
"545 42 OFFCURVE",
"488 106 OFFCURVE",
"488 224 CURVE SMOOTH",
"488 363 OFFCURVE",
"552 448 OFFCURVE",
"658 448 CURVE SMOOTH",
"758 448 OFFCURVE",
"817 381 OFFCURVE",
"817 265 CURVE SMOOTH",
"817 126 OFFCURVE",
"753 42 OFFCURVE",
"648 42 CURVE SMOOTH"
);
}
);
};
layerId = "9E718F8A-2CEA-4931-B05D-987794BD97DA";
paths = (
{
closed = 1;
nodes = (
"338 -7 OFFCURVE",
"413 40 OFFCURVE",
"436 117 CURVE",
"426 135 LINE",
"417 23 LINE SMOOTH",
"415 2 OFFCURVE",
"428 -5 OFFCURVE",
"442 -5 CURVE SMOOTH",
"455 -5 OFFCURVE",
"469 2 OFFCURVE",
"471 23 CURVE SMOOTH",
"523 686 LINE SMOOTH",
"524 704 OFFCURVE",
"512 711 OFFCURVE",
"498 711 CURVE SMOOTH",
"485 711 OFFCURVE",
"470 704 OFFCURVE",
"469 686 CURVE SMOOTH",
"443 355 LINE",
"457 363 LINE",
"438 447 OFFCURVE",
"369 497 OFFCURVE",
"277 497 CURVE SMOOTH",
"142 497 OFFCURVE",
"50 390 OFFCURVE",
"50 227 CURVE SMOOTH",
"50 85 OFFCURVE",
"134 -7 OFFCURVE",
"257 -7 CURVE SMOOTH"
);
},
{
closed = 1;
nodes = (
"166 42 OFFCURVE",
"107 109 OFFCURVE",
"107 227 CURVE SMOOTH",
"107 364 OFFCURVE",
"171 448 OFFCURVE",
"276 448 CURVE SMOOTH",
"379 448 OFFCURVE",
"436 384 OFFCURVE",
"436 266 CURVE SMOOTH",
"436 127 OFFCURVE",
"372 42 OFFCURVE",
"266 42 CURVE SMOOTH"
);
}
);
width = 570;
}
);
leftKerningGroup = o;
rightKerningGroup = l;
unicode = 0064;
userData = {
anchors = (
);
b = {
};
com.typemytype.robofont.layerData = {
b = {
anchors = (
);
components = (
);
contours = (
);
lib = {
};
name = d;
unicodes = (
);
width = 1181;
};
};
components = (
);
contours = (
);
lib = {
};
name = d;
unicodes = (
);
width = 1207;
};
},
{
glyphname = eth;
layers = (
{
background = {
paths = (
{
closed = 1;
nodes = (
"402 -7 OFFCURVE",
"500 91 OFFCURVE",
"500 322 CURVE SMOOTH",
"500 521 OFFCURVE",
"401 653 OFFCURVE",
"212 711 CURVE",
"194 670 LINE",
"381 612 OFFCURVE",
"465 472 OFFCURVE",
"448 291 CURVE",
"462 309 LINE",
"455 392 OFFCURVE",
"384 455 OFFCURVE",
"276 455 CURVE SMOOTH",
"139 455 OFFCURVE",
"48 356 OFFCURVE",
"48 208 CURVE SMOOTH",
"48 77 OFFCURVE",
"132 -7 OFFCURVE",
"262 -7 CURVE SMOOTH"
);
},
{
closed = 1;
nodes = (
"162 42 OFFCURVE",
"105 99 OFFCURVE",
"105 205 CURVE SMOOTH",
"105 330 OFFCURVE",
"169 406 OFFCURVE",
"275 406 CURVE SMOOTH",
"375 406 OFFCURVE",
"435 346 OFFCURVE",
"435 246 CURVE SMOOTH",
"435 117 OFFCURVE",
"370 42 OFFCURVE",
"265 42 CURVE SMOOTH"
);
},
{
closed = 1;
nodes = (
"524 631 LINE",
"512 672 LINE",
"191 548 LINE",
"203 507 LINE"
);
}
);
};
guideLines = (
{
angle = 90;
position = "{150, 496}";
},
{
angle = 90;
position = "{478, 496}";
}
);
layerId = "9E718F8A-2CEA-4931-B05D-987794BD97DA";
paths = (
{
closed = 1;
nodes = (
"402 -7 OFFCURVE",
"500 91 OFFCURVE",
"500 322 CURVE SMOOTH",
"500 514 OFFCURVE",
"407 644 OFFCURVE",
"229 708 CURVE SMOOTH",
"200 718 OFFCURVE",
"185 676 OFFCURVE",
"217 664 CURVE SMOOTH",
"380 603 OFFCURVE",
"465 472 OFFCURVE",
"448 291 CURVE",
"462 309 LINE",
"455 392 OFFCURVE",
"383 455 OFFCURVE",
"276 455 CURVE SMOOTH",
"139 455 OFFCURVE",
"48 356 OFFCURVE",
"48 208 CURVE SMOOTH",
"48 77 OFFCURVE",
"132 -7 OFFCURVE",
"262 -7 CURVE SMOOTH"
);
},
{
closed = 1;
nodes = (
"162 42 OFFCURVE",
"105 99 OFFCURVE",
"105 205 CURVE SMOOTH",
"105 330 OFFCURVE",
"169 406 OFFCURVE",
"275 406 CURVE SMOOTH",
"375 406 OFFCURVE",
"435 346 OFFCURVE",
"435 246 CURVE SMOOTH",
"435 117 OFFCURVE",
"370 42 OFFCURVE",
"265 42 CURVE SMOOTH"
);
},
{
closed = 1;
nodes = (
"510 626 LINE SMOOTH",
"537 636 OFFCURVE",
"521 676 OFFCURVE",
"495 666 CURVE SMOOTH",
"204 553 LINE SMOOTH",
"177 543 OFFCURVE",
"193 503 OFFCURVE",
"219 513 CURVE SMOOTH"
);
}
);
width = 545;
}
);
leftKerningGroup = o;
rightKerningGroup = o;
unicode = 00F0;
userData = {
com.typemytype.robofont.layerData = {
b = {
anchors = (
);
components = (
);
contours = (
);
lib = {
};
name = eth;
unicodes = (
);
width = 1230;
};
};
};
},
{
glyphname = dcaron;
layers = (
{
background = {
paths = (
{
closed = 1;
nodes = (
"619 705 LINE",
"560 705 LINE",
"546 516 LINE",
"579 516 LINE"
);
}
);
};
components = (
{
name = d;
}
);
layerId = "9E718F8A-2CEA-4931-B05D-987794BD97DA";
paths = (
{
closed = 1;
nodes = (
"614 673 LINE SMOOTH",
"625 720 OFFCURVE",
"563 725 OFFCURVE",
"559 678 CURVE SMOOTH",
"547 530 LINE SMOOTH",
"545 509 OFFCURVE",
"576 506 OFFCURVE",
"581 527 CURVE SMOOTH"
);
}
);
width = 570;
}
);
leftKerningGroup = o;
rightKerningGroup = lcaron;
unicode = 010F;
},
{
glyphname = dcroat;
layers = (
{
background = {
paths = (
{
closed = 1;
nodes = (
"338 -7 OFFCURVE",
"413 40 OFFCURVE",
"436 117 CURVE",
"426 135 LINE",
"415 0 LINE",
"469 0 LINE",
"524 705 LINE",
"470 705 LINE",
"443 355 LINE",
"457 363 LINE",
"438 447 OFFCURVE",
"369 497 OFFCURVE",
"277 497 CURVE SMOOTH",
"142 497 OFFCURVE",
"50 390 OFFCURVE",
"50 228 CURVE SMOOTH",
"50 85 OFFCURVE",
"134 -7 OFFCURVE",
"257 -7 CURVE SMOOTH"
);
},
{
closed = 1;
nodes = (
"166 42 OFFCURVE",
"107 109 OFFCURVE",
"107 225 CURVE SMOOTH",
"107 364 OFFCURVE",
"171 448 OFFCURVE",
"276 448 CURVE SMOOTH",
"379 448 OFFCURVE",
"436 384 OFFCURVE",
"436 266 CURVE SMOOTH",
"436 127 OFFCURVE",
"372 42 OFFCURVE",
"266 42 CURVE SMOOTH"
);
},
{
closed = 1;
nodes = (
"608 563 LINE",
"612 608 LINE",
"268 608 LINE",
"264 563 LINE"
);
}
);
};
layerId = "9E718F8A-2CEA-4931-B05D-987794BD97DA";
paths = (
{
closed = 1;
nodes = (
"338 -7 OFFCURVE",
"413 40 OFFCURVE",
"436 117 CURVE",
"426 135 LINE",
"417 23 LINE SMOOTH",
"415 2 OFFCURVE",
"428 -5 OFFCURVE",
"442 -5 CURVE SMOOTH",
"455 -5 OFFCURVE",
"469 2 OFFCURVE",
"471 23 CURVE SMOOTH",
"523 686 LINE SMOOTH",
"524 704 OFFCURVE",
"512 711 OFFCURVE",
"498 711 CURVE SMOOTH",
"485 711 OFFCURVE",
"470 704 OFFCURVE",
"469 686 CURVE SMOOTH",
"443 355 LINE",
"457 363 LINE",
"438 447 OFFCURVE",
"369 497 OFFCURVE",
"277 497 CURVE SMOOTH",
"142 497 OFFCURVE",
"50 390 OFFCURVE",
"50 227 CURVE SMOOTH",
"50 85 OFFCURVE",
"134 -7 OFFCURVE",
"257 -7 CURVE SMOOTH"
);
},
{
closed = 1;
nodes = (
"166 42 OFFCURVE",
"107 109 OFFCURVE",
"107 227 CURVE SMOOTH",
"107 364 OFFCURVE",
"171 448 OFFCURVE",
"276 448 CURVE SMOOTH",
"379 448 OFFCURVE",
"436 384 OFFCURVE",
"436 266 CURVE SMOOTH",
"436 127 OFFCURVE",
"372 42 OFFCURVE",
"266 42 CURVE SMOOTH"
);
},
{
closed = 1;
nodes = (
"592 563 LINE SMOOTH",
"606 563 OFFCURVE",
"615 573 OFFCURVE",
"615 585 CURVE SMOOTH",
"615 598 OFFCURVE",
"606 608 OFFCURVE",
"592 608 CURVE SMOOTH",
"284 608 LINE SMOOTH",
"270 608 OFFCURVE",
"261 598 OFFCURVE",
"261 586 CURVE SMOOTH",
"261 573 OFFCURVE",
"270 563 OFFCURVE",
"284 563 CURVE SMOOTH"
);
}
);
width = 570;
}
);
leftKerningGroup = o;
rightKerningGroup = l;
unicode = 0111;
userData = {
com.typemytype.robofont.layerData = {
b = {
anchors = (
);
components = (
);
contours = (
);
lib = {
};
name = dcroat;
unicodes = (
);
width = 1181;
};
};
};
},
{
glyphname = e;
layers = (
{
anchors = (
{
name = bottom;
position = "{268, 0}";
},
{
name = ogonek;
position = "{359, 10}";
},
{
name = top;
position = "{296, 490}";
}
);
background = {
paths = (
{
closed = 1;
nodes = (
"479 79 OFFCURVE",
"451 113 OFFCURVE",
"423 91 CURVE SMOOTH",
"385 61 OFFCURVE",
"330 42 OFFCURVE",
"273 42 CURVE SMOOTH",
"164 42 OFFCURVE",
"107 112 OFFCURVE",
"107 224 CURVE SMOOTH",
"107 365 OFFCURVE",
"171 451 OFFCURVE",
"290 451 CURVE SMOOTH",
"384 451 OFFCURVE",
"443 387 OFFCURVE",
"429 256 CURVE",
"451 279 LINE",
"101 279 LINE",
"99 236 LINE",
"479 236 LINE",
"497 413 OFFCURVE",
"417 497 OFFCURVE",
"287 497 CURVE SMOOTH",
"141 497 OFFCURVE",
"50 388 OFFCURVE",
"50 227 CURVE SMOOTH",
"50 85 OFFCURVE",
"134 -7 OFFCURVE",
"272 -7 CURVE SMOOTH",
"340 -7 OFFCURVE",
"416 19 OFFCURVE",
"452 53 CURVE SMOOTH"
);
}
);
};
guideLines = (
{
angle = 90;
position = "{411, 186}";
}
);
layerId = "9E718F8A-2CEA-4931-B05D-987794BD97DA";
paths = (
{
closed = 1;
nodes = (
"340 -7 OFFCURVE",
"416 19 OFFCURVE",
"452 53 CURVE SMOOTH",
"479 79 OFFCURVE",
"451 113 OFFCURVE",
"423 91 CURVE SMOOTH",
"385 61 OFFCURVE",
"330 42 OFFCURVE",
"273 42 CURVE SMOOTH",
"164 42 OFFCURVE",
"107 112 OFFCURVE",
"107 224 CURVE SMOOTH",
"107 365 OFFCURVE",
"171 451 OFFCURVE",
"290 451 CURVE SMOOTH",
"384 451 OFFCURVE",
"443 387 OFFCURVE",
"429 256 CURVE",
"451 279 LINE",
"101 279 LINE",
"99 236 LINE",
"448 236 LINE SMOOTH",
"467 236 OFFCURVE",
"482 248 OFFCURVE",
"482 274 CURVE SMOOTH",
"482 422 OFFCURVE",
"413 497 OFFCURVE",
"287 497 CURVE SMOOTH",
"141 497 OFFCURVE",
"50 388 OFFCURVE",
"50 227 CURVE SMOOTH",
"50 85 OFFCURVE",
"134 -7 OFFCURVE",
"272 -7 CURVE SMOOTH"
);
}
);
width = 525;
}
);
leftKerningGroup = o;
rightKerningGroup = e;
unicode = 0065;
userData = {
anchors = (
);
b = {
};
com.typemytype.robofont.layerData = {
b = {
anchors = (
);
components = (
);
contours = (
);
lib = {
};
name = e;
unicodes = (
);
width = 1132;
};
};
components = (
);
contours = (
);
lib = {
};
name = e;
unicodes = (
);
width = 1132;
};
},
{
glyphname = eogonek;
layers = (
{
anchors = (
{
name = top;
position = "{296, 490}";
}
);
background = {
anchors = (
{
name = top;
position = "{296, 490}";
}
);
paths = (
{
closed = 1;
nodes = (
"389 -191 OFFCURVE",
"420 -180 OFFCURVE",
"438 -168 CURVE",
"425 -129 LINE",
"403 -142 OFFCURVE",
"380 -148 OFFCURVE",
"364 -148 CURVE SMOOTH",
"325 -148 OFFCURVE",
"302 -127 OFFCURVE",
"302 -86 CURVE SMOOTH",
"302 -52 OFFCURVE",
"318 -14 OFFCURVE",
"401 21 CURVE SMOOTH",
"427 32 OFFCURVE",
"447 47 OFFCURVE",
"457 58 CURVE",
"438 101 LINE",
"389 60 OFFCURVE",
"332 42 OFFCURVE",
"273 42 CURVE SMOOTH",
"164 42 OFFCURVE",
"107 112 OFFCURVE",
"107 224 CURVE SMOOTH",
"107 386 OFFCURVE",
"188 451 OFFCURVE",
"290 451 CURVE SMOOTH",
"384 451 OFFCURVE",
"443 387 OFFCURVE",
"429 256 CURVE",
"451 279 LINE",
"101 279 LINE",
"99 236 LINE",
"479 236 LINE",
"497 413 OFFCURVE",
"415 497 OFFCURVE",
"287 497 CURVE SMOOTH",
"141 497 OFFCURVE",
"50 388 OFFCURVE",
"50 227 CURVE SMOOTH",
"50 85 OFFCURVE",
"134 -7 OFFCURVE",
"272 -7 CURVE SMOOTH",
"292 -7 OFFCURVE",
"307 -4 OFFCURVE",
"333 5 CURVE",
"321 13 LINE",
"280 -6 OFFCURVE",
"251 -43 OFFCURVE",
"251 -95 CURVE SMOOTH",
"251 -152 OFFCURVE",
"292 -191 OFFCURVE",
"358 -191 CURVE SMOOTH"
);
}
);
};
layerId = "9E718F8A-2CEA-4931-B05D-987794BD97DA";
paths = (
{
closed = 1;
nodes = (
"50 85 OFFCURVE",
"134 -7 OFFCURVE",
"272 -7 CURVE SMOOTH",
"292 -7 OFFCURVE",
"307 -4 OFFCURVE",
"333 5 CURVE",
"321 13 LINE",
"280 -6 OFFCURVE",
"251 -43 OFFCURVE",
"251 -95 CURVE SMOOTH",
"251 -152 OFFCURVE",
"292 -191 OFFCURVE",
"356 -191 CURVE SMOOTH",
"381 -191 OFFCURVE",
"404 -186 OFFCURVE",
"426 -174 CURVE SMOOTH",
"451 -160 OFFCURVE",
"446 -119 OFFCURVE",
"413 -135 CURVE SMOOTH",
"395 -144 OFFCURVE",
"376 -148 OFFCURVE",
"364 -148 CURVE SMOOTH",
"325 -148 OFFCURVE",
"302 -127 OFFCURVE",
"302 -86 CURVE SMOOTH",
"302 -52 OFFCURVE",
"319 -16 OFFCURVE",
"401 21 CURVE SMOOTH",
"419 29 OFFCURVE",
"437 39 OFFCURVE",
"452 53 CURVE SMOOTH",
"479 79 OFFCURVE",
"451 113 OFFCURVE",
"423 91 CURVE SMOOTH",
"385 61 OFFCURVE",
"330 42 OFFCURVE",
"273 42 CURVE SMOOTH",
"164 42 OFFCURVE",
"107 112 OFFCURVE",
"107 224 CURVE SMOOTH",
"107 365 OFFCURVE",
"171 451 OFFCURVE",
"290 451 CURVE SMOOTH",
"384 451 OFFCURVE",
"443 387 OFFCURVE",
"429 256 CURVE",
"451 279 LINE",
"101 279 LINE",
"99 236 LINE",
"448 236 LINE SMOOTH",
"467 236 OFFCURVE",
"482 248 OFFCURVE",
"482 274 CURVE SMOOTH",
"482 422 OFFCURVE",
"413 497 OFFCURVE",
"287 497 CURVE SMOOTH",
"141 497 OFFCURVE",
"50 388 OFFCURVE",
"50 227 CURVE SMOOTH"
);
}
);
width = 525;
}
);
leftKerningGroup = o;
rightKerningGroup = e;
unicode = 0119;
},
{
glyphname = schwa;
layers = (
{
background = {
paths = (
{
closed = 1;
nodes = (
"967 -7 OFFCURVE",
"1063 92 OFFCURVE",
"1076 246 CURVE SMOOTH",
"1089 402 OFFCURVE",
"1006 497 OFFCURVE",
"862 497 CURVE SMOOTH",
"813 497 OFFCURVE",
"760 484 OFFCURVE",
"708 454 CURVE SMOOTH",
"682 439 OFFCURVE",
"672 426 OFFCURVE",
"671 412 CURVE SMOOTH",
"670 399 OFFCURVE",
"678 389 OFFCURVE",
"689 389 CURVE SMOOTH",
"712 389 OFFCURVE",
"757 448 OFFCURVE",
"860 448 CURVE SMOOTH",
"972 448 OFFCURVE",
"1030 375 OFFCURVE",
"1019 244 CURVE SMOOTH",
"1008 113 OFFCURVE",
"942 39 OFFCURVE",
"837 39 CURVE SMOOTH",
"735 39 OFFCURVE",
"686 107 OFFCURVE",
"701 234 CURVE",
"676 211 LINE",
"1026 211 LINE",
"1028 254 LINE",
"682 254 LINE SMOOTH",
"659 254 OFFCURVE",
"648 244 OFFCURVE",
"646 219 CURVE SMOOTH",
"635 79 OFFCURVE",
"706 -7 OFFCURVE",
"832 -7 CURVE SMOOTH"
);
},
{
closed = 1;
nodes = (
"47 411 OFFCURVE",
"75 377 OFFCURVE",
"103 399 CURVE SMOOTH",
"141 429 OFFCURVE",
"196 448 OFFCURVE",
"253 448 CURVE SMOOTH",
"362 448 OFFCURVE",
"419 378 OFFCURVE",
"419 266 CURVE SMOOTH",
"419 125 OFFCURVE",
"355 39 OFFCURVE",
"236 39 CURVE SMOOTH",
"142 39 OFFCURVE",
"83 103 OFFCURVE",
"97 234 CURVE",
"75 211 LINE",
"425 211 LINE",
"427 254 LINE",
"78 254 LINE SMOOTH",
"59 254 OFFCURVE",
"44 242 OFFCURVE",
"44 216 CURVE SMOOTH",
"44 68 OFFCURVE",
"113 -7 OFFCURVE",
"239 -7 CURVE SMOOTH",
"385 -7 OFFCURVE",
"476 102 OFFCURVE",
"476 263 CURVE SMOOTH",
"476 405 OFFCURVE",
"392 497 OFFCURVE",
"254 497 CURVE SMOOTH",
"186 497 OFFCURVE",
"110 471 OFFCURVE",
"74 437 CURVE SMOOTH"
);
}
);
};
layerId = "9E718F8A-2CEA-4931-B05D-987794BD97DA";
paths = (
{
closed = 1;
nodes = (
"388 -7 OFFCURVE",
"476 102 OFFCURVE",
"476 263 CURVE SMOOTH",
"476 405 OFFCURVE",
"392 497 OFFCURVE",
"254 497 CURVE SMOOTH",
"185 497 OFFCURVE",
"110 471 OFFCURVE",
"74 437 CURVE SMOOTH",
"47 411 OFFCURVE",
"75 377 OFFCURVE",
"103 399 CURVE SMOOTH",
"141 429 OFFCURVE",
"196 448 OFFCURVE",
"253 448 CURVE SMOOTH",
"359 448 OFFCURVE",
"419 381 OFFCURVE",
"419 266 CURVE SMOOTH",
"419 125 OFFCURVE",
"355 39 OFFCURVE",
"246 39 CURVE SMOOTH",
"142 39 OFFCURVE",
"82 103 OFFCURVE",
"96 234 CURVE",
"73 211 LINE",
"426 211 LINE",
"428 254 LINE",
"78 254 LINE SMOOTH",
"59 254 OFFCURVE",
"44 242 OFFCURVE",
"44 207 CURVE SMOOTH",
"44 62 OFFCURVE",
"122 -7 OFFCURVE",
"249 -7 CURVE SMOOTH"
);
}
);
width = 525;
}
);
leftKerningGroup = o;
rightKerningGroup = o;
unicode = 0259;
},
{
glyphname = f;
layers = (
{
anchors = (
{
name = bottom;
position = "{112, 0}";
},
{
name = top;
position = "{151, 490}";
}
);
background = {
anchors = (
{
name = bottom;
position = "{112, 0}";
},
{
name = top;
position = "{151, 490}";
}
);
paths = (
{
closed = 1;
nodes = (
"127 -5 OFFCURVE",
"139 5 OFFCURVE",
"141 23 CURVE SMOOTH",
"181 523 LINE SMOOTH",
"188 614 OFFCURVE",
"234 653 OFFCURVE",
"309 659 CURVE SMOOTH",
"335 661 LINE SMOOTH",
"357 663 OFFCURVE",
"363 672 OFFCURVE",
"364 685 CURVE SMOOTH",
"366 702 OFFCURVE",
"354 708 OFFCURVE",
"331 706 CURVE SMOOTH",
"305 704 LINE SMOOTH",
"196 696 OFFCURVE",
"135 626 OFFCURVE",
"126 511 CURVE SMOOTH",
"87 23 LINE SMOOTH",
"85 5 OFFCURVE",
"96 -5 OFFCURVE",
"112 -5 CURVE SMOOTH"
);
},
{
closed = 1;
nodes = (
"300 440 LINE SMOOTH",
"314 440 OFFCURVE",
"324 449 OFFCURVE",
"325 462 CURVE SMOOTH",
"326 475 OFFCURVE",
"318 485 OFFCURVE",
"304 485 CURVE SMOOTH",
"46 485 LINE SMOOTH",
"32 485 OFFCURVE",
"22 475 OFFCURVE",
"21 462 CURVE SMOOTH",
"20 449 OFFCURVE",
"28 440 OFFCURVE",
"42 440 CURVE SMOOTH"
);
}
);
};
layerId = "9E718F8A-2CEA-4931-B05D-987794BD97DA";
paths = (
{
closed = 1;
nodes = (
"127 -5 OFFCURVE",
"140 3 OFFCURVE",
"141 22 CURVE SMOOTH",
"180 518 LINE SMOOTH",
"187 610 OFFCURVE",
"226 653 OFFCURVE",
"312 659 CURVE SMOOTH",
"341 661 LINE SMOOTH",
"357 662 OFFCURVE",
"365 673 OFFCURVE",
"365 684 CURVE SMOOTH",
"365 696 OFFCURVE",
"357 707 OFFCURVE",
"339 706 CURVE SMOOTH",
"322 705 LINE SMOOTH",
"196 698 OFFCURVE",
"135 640 OFFCURVE",
"125 511 CURVE SMOOTH",
"87 22 LINE SMOOTH",
"86 3 OFFCURVE",
"100 -5 OFFCURVE",
"114 -5 CURVE SMOOTH"
);
},
{
closed = 1;
nodes = (
"302 440 LINE SMOOTH",
"316 440 OFFCURVE",
"324 450 OFFCURVE",
"324 463 CURVE SMOOTH",
"324 475 OFFCURVE",
"316 485 OFFCURVE",
"302 485 CURVE SMOOTH",
"43 485 LINE SMOOTH",
"29 485 OFFCURVE",
"21 475 OFFCURVE",
"21 463 CURVE SMOOTH",
"21 450 OFFCURVE",
"29 440 OFFCURVE",
"43 440 CURVE SMOOTH"
);
}
);
width = 310;
}
);
leftKerningGroup = f;
rightKerningGroup = f;
unicode = 0066;
userData = {
anchors = (
);
b = {
};
com.typemytype.robofont.layerData = {
b = {
anchors = (
);
components = (
);
contours = (
);
lib = {
};
name = f;
unicodes = (
);
width = 696;
};
};
components = (
);
contours = (
);
lib = {
};
name = f;
unicodes = (
);
width = 723;
};
},
{
glyphname = g;
layers = (
{
anchors = (
{
name = bottom;
position = "{270, 0}";
},
{
name = top;
position = "{309, 490}";
}
);
background = {
anchors = (
{
name = bottom;
position = "{270, 0}";
},
{
name = top;
position = "{309, 490}";
}
);
paths = (
{
closed = 1;
nodes = (
"989 -187 OFFCURVE",
"1064 -115 OFFCURVE",
"1075 26 CURVE SMOOTH",
"1110 467 LINE SMOOTH",
"1111 484 OFFCURVE",
"1101 495 OFFCURVE",
"1085 495 CURVE SMOOTH",
"1068 495 OFFCURVE",
"1057 484 OFFCURVE",
"1056 467 CURVE SMOOTH",
"1049 380 LINE",
"1059 363 LINE",
"1044 449 OFFCURVE",
"982 497 OFFCURVE",
"888 497 CURVE SMOOTH",
"758 497 OFFCURVE",
"663 400 OFFCURVE",
"651 256 CURVE SMOOTH",
"639 112 OFFCURVE",
"720 15 OFFCURVE",
"850 15 CURVE SMOOTH",
"944 15 OFFCURVE",
"1013 63 OFFCURVE",
"1042 149 CURVE",
"1031 133 LINE",
"1022 20 LINE SMOOTH",
"1014 -83 OFFCURVE",
"958 -138 OFFCURVE",
"860 -138 CURVE SMOOTH",
"740 -138 OFFCURVE",
"697 -79 OFFCURVE",
"674 -79 CURVE SMOOTH",
"662 -79 OFFCURVE",
"652 -89 OFFCURVE",
"651 -102 CURVE SMOOTH",
"650 -116 OFFCURVE",
"660 -129 OFFCURVE",
"684 -144 CURVE SMOOTH",
"731 -174 OFFCURVE",
"783 -187 OFFCURVE",
"855 -187 CURVE SMOOTH"
);
},
{
closed = 1;
nodes = (
"756 64 OFFCURVE",
"699 136 OFFCURVE",
"708 256 CURVE SMOOTH",
"717 376 OFFCURVE",
"787 448 OFFCURVE",
"890 448 CURVE SMOOTH",
"994 448 OFFCURVE",
"1049 375 OFFCURVE",
"1039 256 CURVE SMOOTH",
"1029 137 OFFCURVE",
"963 64 OFFCURVE",
"859 64 CURVE SMOOTH"
);
},
{
closed = 1;
nodes = (
"145 497 OFFCURVE",
"53 390 OFFCURVE",
"53 228 CURVE SMOOTH",
"53 85 OFFCURVE",
"137 -7 OFFCURVE",
"260 -7 CURVE SMOOTH",
"341 -7 OFFCURVE",
"416 40 OFFCURVE",
"439 117 CURVE",
"429 135 LINE",
"403 -196 LINE SMOOTH",
"402 -214 OFFCURVE",
"414 -221 OFFCURVE",
"428 -221 CURVE SMOOTH",
"441 -221 OFFCURVE",
"456 -214 OFFCURVE",
"457 -196 CURVE SMOOTH",
"510 467 LINE SMOOTH",
"512 488 OFFCURVE",
"499 495 OFFCURVE",
"485 495 CURVE SMOOTH",
"472 495 OFFCURVE",
"458 488 OFFCURVE",
"456 467 CURVE SMOOTH",
"447 355 LINE",
"460 363 LINE",
"441 447 OFFCURVE",
"372 497 OFFCURVE",
"280 497 CURVE SMOOTH"
);
},
{
closed = 1;
nodes = (
"382 448 OFFCURVE",
"439 384 OFFCURVE",
"439 266 CURVE SMOOTH",
"439 127 OFFCURVE",
"375 42 OFFCURVE",
"269 42 CURVE SMOOTH",
"169 42 OFFCURVE",
"110 109 OFFCURVE",
"110 225 CURVE SMOOTH",
"110 364 OFFCURVE",
"174 448 OFFCURVE",
"279 448 CURVE SMOOTH"
);
}
);
};
layerId = "9E718F8A-2CEA-4931-B05D-987794BD97DA";
paths = (
{
closed = 1;
nodes = (
"392 -187 OFFCURVE",
"464 -116 OFFCURVE",
"475 26 CURVE SMOOTH",
"510 467 LINE SMOOTH",
"512 488 OFFCURVE",
"499 495 OFFCURVE",
"485 495 CURVE SMOOTH",
"472 495 OFFCURVE",
"458 488 OFFCURVE",
"456 467 CURVE SMOOTH",
"449 380 LINE",
"461 363 LINE",
"442 447 OFFCURVE",
"373 497 OFFCURVE",
"279 497 CURVE SMOOTH",
"141 497 OFFCURVE",
"51 394 OFFCURVE",
"51 239 CURVE SMOOTH",
"51 103 OFFCURVE",
"134 15 OFFCURVE",
"262 15 CURVE SMOOTH",
"345 15 OFFCURVE",
"420 62 OFFCURVE",
"442 143 CURVE",
"431 135 LINE",
"422 24 LINE SMOOTH",
"414 -81 OFFCURVE",
"362 -138 OFFCURVE",
"260 -138 CURVE SMOOTH",
"190 -138 OFFCURVE",
"144 -122 OFFCURVE",
"87 -83 CURVE SMOOTH",
"64 -66 OFFCURVE",
"34 -104 OFFCURVE",
"66 -129 CURVE SMOOTH",
"113 -165 OFFCURVE",
"180 -187 OFFCURVE",
"260 -187 CURVE SMOOTH"
);
},
{
closed = 1;
nodes = (
"165 64 OFFCURVE",
"108 125 OFFCURVE",
"108 236 CURVE SMOOTH",
"108 368 OFFCURVE",
"172 448 OFFCURVE",
"279 448 CURVE SMOOTH",
"381 448 OFFCURVE",
"440 385 OFFCURVE",
"440 275 CURVE SMOOTH",
"440 143 OFFCURVE",
"376 64 OFFCURVE",
"269 64 CURVE SMOOTH"
);
}
);
width = 574;
}
);
leftKerningGroup = o;
rightKerningGroup = u;
unicode = 0067;
userData = {
anchors = (
);
b = {
};
com.typemytype.robofont.layerData = {
b = {
anchors = (
);
components = (
);
contours = (
);
lib = {
};
name = g;
unicodes = (
);
width = 1167;
};
};
components = (
);
contours = (
);
lib = {
};
name = g;
unicodes = (
);
width = 1207;
};
},
{
glyphname = h;
layers = (
{
anchors = (
{
name = bottom;
position = "{260, 0}";
},
{
name = center;
position = "{279, 245}";
},
{
name = top;
position = "{145, 705}";
}
);
background = {
anchors = (
{
name = bottom;
position = "{260, 0}";
},
{
name = center;
position = "{279, 245}";
},
{
name = top;
position = "{145, 705}";
}
);
paths = (
{
closed = 1;
nodes = (
"707 -5 OFFCURVE",
"718 6 OFFCURVE",
"719 23 CURVE SMOOTH",
"739 281 LINE SMOOTH",
"747 383 OFFCURVE",
"817 448 OFFCURVE",
"916 448 CURVE SMOOTH",
"1003 448 OFFCURVE",
"1037 404 OFFCURVE",
"1029 306 CURVE SMOOTH",
"1007 23 LINE SMOOTH",
"1006 6 OFFCURVE",
"1015 -5 OFFCURVE",
"1032 -5 CURVE SMOOTH",
"1048 -5 OFFCURVE",
"1060 6 OFFCURVE",
"1061 23 CURVE SMOOTH",
"1084 310 LINE SMOOTH",
"1094 434 OFFCURVE",
"1038 497 OFFCURVE",
"922 497 CURVE SMOOTH",
"838 497 OFFCURVE",
"766 454 OFFCURVE",
"735 373 CURVE",
"747 382 LINE",
"771 682 LINE SMOOTH",
"772 699 OFFCURVE",
"763 710 OFFCURVE",
"746 710 CURVE SMOOTH",
"730 710 OFFCURVE",
"718 699 OFFCURVE",
"717 682 CURVE SMOOTH",
"665 23 LINE SMOOTH",
"664 6 OFFCURVE",
"674 -5 OFFCURVE",
"690 -5 CURVE SMOOTH"
);
},
{
closed = 1;
nodes = (
"772 -7 OFFCURVE",
"864 100 OFFCURVE",
"864 262 CURVE SMOOTH",
"864 405 OFFCURVE",
"780 497 OFFCURVE",
"657 497 CURVE SMOOTH",
"576 497 OFFCURVE",
"501 450 OFFCURVE",
"478 373 CURVE",
"488 355 LINE",
"514 686 LINE SMOOTH",
"515 704 OFFCURVE",
"503 711 OFFCURVE",
"489 711 CURVE SMOOTH",
"476 711 OFFCURVE",
"461 704 OFFCURVE",
"460 686 CURVE SMOOTH",
"407 23 LINE SMOOTH",
"405 2 OFFCURVE",
"418 -5 OFFCURVE",
"432 -5 CURVE SMOOTH",
"445 -5 OFFCURVE",
"459 2 OFFCURVE",
"461 23 CURVE SMOOTH",
"470 135 LINE",
"457 127 LINE",
"476 43 OFFCURVE",
"545 -7 OFFCURVE",
"637 -7 CURVE SMOOTH"
);
},
{
closed = 1;
nodes = (
"535 42 OFFCURVE",
"478 106 OFFCURVE",
"478 224 CURVE SMOOTH",
"478 363 OFFCURVE",
"542 448 OFFCURVE",
"648 448 CURVE SMOOTH",
"748 448 OFFCURVE",
"807 381 OFFCURVE",
"807 265 CURVE SMOOTH",
"807 126 OFFCURVE",
"743 42 OFFCURVE",
"638 42 CURVE SMOOTH"
);
}
);
};
layerId = "9E718F8A-2CEA-4931-B05D-987794BD97DA";
paths = (
{
closed = 1;
nodes = (
"102 -5 OFFCURVE",
"116 2 OFFCURVE",
"118 23 CURVE SMOOTH",
"139 281 LINE SMOOTH",
"147 385 OFFCURVE",
"209 448 OFFCURVE",
"311 448 CURVE SMOOTH",
"397 448 OFFCURVE",
"437 402 OFFCURVE",
"429 304 CURVE SMOOTH",
"407 23 LINE SMOOTH",
"405 2 OFFCURVE",
"418 -5 OFFCURVE",
"432 -5 CURVE SMOOTH",
"445 -5 OFFCURVE",
"459 2 OFFCURVE",
"461 23 CURVE SMOOTH",
"483 308 LINE SMOOTH",
"493 433 OFFCURVE",
"433 497 OFFCURVE",
"316 497 CURVE SMOOTH",
"230 497 OFFCURVE",
"161 452 OFFCURVE",
"134 373 CURVE",
"147 387 LINE",
"171 686 LINE SMOOTH",
"172 704 OFFCURVE",
"160 711 OFFCURVE",
"146 711 CURVE SMOOTH",
"133 711 OFFCURVE",
"118 704 OFFCURVE",
"117 686 CURVE SMOOTH",
"64 23 LINE SMOOTH",
"62 2 OFFCURVE",
"75 -5 OFFCURVE",
"89 -5 CURVE SMOOTH"
);
}
);
width = 558;
}
);
leftKerningGroup = h;
rightKerningGroup = n;
unicode = 0068;
userData = {
anchors = (
);
b = {
};
com.typemytype.robofont.layerData = {
b = {
anchors = (
);
components = (
);
contours = (
);
lib = {
};
name = h;
unicodes = (
);
width = 1148;
};
};
components = (
);
contours = {
};
lib = {
};
name = h;
points = {
};
segmentType = curve;
unicodes = (
);
width = 1195;
x = 137;
y = 113;
};
},
{
glyphname = hbar;
layers = (
{
background = {
paths = (
{
closed = 1;
nodes = (
"117 0 LINE",
"139 281 LINE SMOOTH",
"147 385 OFFCURVE",
"209 448 OFFCURVE",
"311 448 CURVE SMOOTH",
"397 448 OFFCURVE",
"437 402 OFFCURVE",
"429 304 CURVE SMOOTH",
"405 0 LINE",
"459 0 LINE",
"483 308 LINE SMOOTH",
"493 433 OFFCURVE",
"433 497 OFFCURVE",
"316 497 CURVE SMOOTH",
"230 497 OFFCURVE",
"161 452 OFFCURVE",
"134 373 CURVE",
"147 387 LINE",
"172 705 LINE",
"118 705 LINE",
"63 0 LINE"
);
},
{
closed = 1;
nodes = (
"356 563 LINE",
"360 608 LINE",
"16 608 LINE",
"12 563 LINE"
);
}
);
};
layerId = "9E718F8A-2CEA-4931-B05D-987794BD97DA";
paths = (
{
closed = 1;
nodes = (
"102 -5 OFFCURVE",
"116 2 OFFCURVE",
"118 23 CURVE SMOOTH",
"139 281 LINE SMOOTH",
"147 385 OFFCURVE",
"209 448 OFFCURVE",
"311 448 CURVE SMOOTH",
"397 448 OFFCURVE",
"437 402 OFFCURVE",
"429 304 CURVE SMOOTH",
"407 23 LINE SMOOTH",
"405 2 OFFCURVE",
"418 -5 OFFCURVE",
"432 -5 CURVE SMOOTH",
"445 -5 OFFCURVE",
"459 2 OFFCURVE",
"461 23 CURVE SMOOTH",
"483 308 LINE SMOOTH",
"493 433 OFFCURVE",
"433 497 OFFCURVE",
"316 497 CURVE SMOOTH",
"230 497 OFFCURVE",
"161 452 OFFCURVE",
"134 373 CURVE",
"147 387 LINE",
"171 686 LINE SMOOTH",
"172 704 OFFCURVE",
"160 711 OFFCURVE",
"146 711 CURVE SMOOTH",
"133 711 OFFCURVE",
"118 704 OFFCURVE",
"117 686 CURVE SMOOTH",
"64 23 LINE SMOOTH",
"62 2 OFFCURVE",
"75 -5 OFFCURVE",
"89 -5 CURVE SMOOTH"
);
},
{
closed = 1;
nodes = (
"340 563 LINE SMOOTH",
"354 563 OFFCURVE",
"363 573 OFFCURVE",
"363 585 CURVE SMOOTH",
"363 598 OFFCURVE",
"354 608 OFFCURVE",
"340 608 CURVE SMOOTH",
"32 608 LINE SMOOTH",
"18 608 OFFCURVE",
"9 598 OFFCURVE",
"9 586 CURVE SMOOTH",
"9 573 OFFCURVE",
"18 563 OFFCURVE",
"32 563 CURVE SMOOTH"
);
}
);
width = 558;
}
);
leftKerningGroup = h;
rightKerningGroup = n;
unicode = 0127;
},
{
glyphname = idotless;
layers = (
{
anchors = (
{
name = bottom;
position = "{90, 0}";
},
{
name = ogonek;
position = "{115, 10}";
},
{
name = top;
position = "{129, 490}";
}
);
background = {
anchors = (
{
name = bottom;
position = "{90, 0}";
},
{
name = ogonek;
position = "{115, 10}";
},
{
name = top;
position = "{129, 490}";
}
);
paths = (
{
closed = 1;
nodes = (
"-94 -5 OFFCURVE",
"-82 5 OFFCURVE",
"-81 23 CURVE SMOOTH",
"-46 467 LINE SMOOTH",
"-45 485 OFFCURVE",
"-55 495 OFFCURVE",
"-71 495 CURVE SMOOTH",
"-87 495 OFFCURVE",
"-99 485 OFFCURVE",
"-100 467 CURVE SMOOTH",
"-135 23 LINE SMOOTH",
"-136 5 OFFCURVE",
"-126 -5 OFFCURVE",
"-110 -5 CURVE SMOOTH"
);
},
{
closed = 1;
nodes = (
"62 2 OFFCURVE",
"75 -5 OFFCURVE",
"89 -5 CURVE SMOOTH",
"102 -5 OFFCURVE",
"116 2 OFFCURVE",
"118 23 CURVE",
"154 470 LINE SMOOTH",
"155 488 OFFCURVE",
"143 495 OFFCURVE",
"129 495 CURVE SMOOTH",
"116 495 OFFCURVE",
"101 488 OFFCURVE",
"100 470 CURVE SMOOTH",
"64 23 LINE SMOOTH"
);
}
);
};
layerId = "9E718F8A-2CEA-4931-B05D-987794BD97DA";
paths = (
{
closed = 1;
nodes = (
"102 -5 OFFCURVE",
"116 2 OFFCURVE",
"118 23 CURVE SMOOTH",
"154 470 LINE SMOOTH",
"155 488 OFFCURVE",
"143 495 OFFCURVE",
"129 495 CURVE SMOOTH",
"116 495 OFFCURVE",
"101 488 OFFCURVE",
"100 470 CURVE SMOOTH",
"64 23 LINE SMOOTH",
"62 2 OFFCURVE",
"75 -5 OFFCURVE",
"89 -5 CURVE SMOOTH"
);
}
);
width = 218;
}
);
leftKerningGroup = n;
rightKerningGroup = u;
unicode = 0131;
},
{
glyphname = iogonek;
layers = (
{
background = {
paths = (
{
closed = 1;
nodes = (
"102 -5 OFFCURVE",
"116 2 OFFCURVE",
"118 23 CURVE SMOOTH",
"154 470 LINE SMOOTH",
"155 488 OFFCURVE",
"143 495 OFFCURVE",
"129 495 CURVE SMOOTH",
"116 495 OFFCURVE",
"101 488 OFFCURVE",
"100 470 CURVE SMOOTH",
"64 23 LINE SMOOTH",
"62 2 OFFCURVE",
"75 -5 OFFCURVE",
"89 -5 CURVE SMOOTH"
);
}
);
};
layerId = "9E718F8A-2CEA-4931-B05D-987794BD97DA";
paths = (
{
closed = 1;
nodes = (
"93 -191 OFFCURVE",
"116 -186 OFFCURVE",
"138 -174 CURVE SMOOTH",
"163 -160 OFFCURVE",
"158 -119 OFFCURVE",
"125 -135 CURVE SMOOTH",
"107 -144 OFFCURVE",
"88 -148 OFFCURVE",
"76 -148 CURVE SMOOTH",
"37 -148 OFFCURVE",
"14 -127 OFFCURVE",
"14 -86 CURVE SMOOTH",
"14 -41 OFFCURVE",
"40 -8 OFFCURVE",
"89 -5 CURVE SMOOTH",
"105 -4 OFFCURVE",
"117 5 OFFCURVE",
"118 23 CURVE SMOOTH",
"154 470 LINE SMOOTH",
"155 488 OFFCURVE",
"143 495 OFFCURVE",
"129 495 CURVE SMOOTH",
"116 495 OFFCURVE",
"101 488 OFFCURVE",
"100 470 CURVE SMOOTH",
"64 23 LINE SMOOTH",
"63 15 OFFCURVE",
"65 5 OFFCURVE",
"72 0 CURVE",
"95 36 LINE",
"14 31 OFFCURVE",
"-37 -21 OFFCURVE",
"-37 -95 CURVE SMOOTH",
"-37 -152 OFFCURVE",
"4 -191 OFFCURVE",
"68 -191 CURVE SMOOTH"
);
},
{
closed = 1;
nodes = (
"164 610 OFFCURVE",
"182 626 OFFCURVE",
"182 651 CURVE SMOOTH",
"182 676 OFFCURVE",
"164 692 OFFCURVE",
"140 692 CURVE SMOOTH",
"116 692 OFFCURVE",
"98 676 OFFCURVE",
"98 651 CURVE SMOOTH",
"98 626 OFFCURVE",
"116 610 OFFCURVE",
"140 610 CURVE SMOOTH"
);
}
);
width = 218;
}
);
leftKerningGroup = h;
rightKerningGroup = l;
unicode = 012F;
},
{
glyphname = jdotless;
layers = (
{
anchors = (
{
name = bottom;
position = "{90, 0}";
},
{
name = top;
position = "{129, 490}";
}
);
background = {
paths = (
{
closed = 1;
nodes = (
"101 485 LINE",
"62 -8 LINE SMOOTH",
"56 -91 OFFCURVE",
"17 -129 OFFCURVE",
"-63 -135 CURVE SMOOTH",
"-106 -138 LINE",
"-104 -183 LINE",
"-60 -180 LINE SMOOTH",
"50 -173 OFFCURVE",
"108 -118 OFFCURVE",
"117 -1 CURVE SMOOTH",
"155 485 LINE"
);
}
);
};
layerId = "9E718F8A-2CEA-4931-B05D-987794BD97DA";
paths = (
{
closed = 1;
nodes = (
"-79 -182 LINE SMOOTH",
"47 -175 OFFCURVE",
"108 -117 OFFCURVE",
"118 12 CURVE SMOOTH",
"154 468 LINE SMOOTH",
"156 487 OFFCURVE",
"141 495 OFFCURVE",
"127 495 CURVE SMOOTH",
"114 495 OFFCURVE",
"102 487 OFFCURVE",
"100 468 CURVE SMOOTH",
"63 5 LINE SMOOTH",
"56 -87 OFFCURVE",
"17 -130 OFFCURVE",
"-69 -136 CURVE SMOOTH",
"-98 -138 LINE SMOOTH",
"-114 -139 OFFCURVE",
"-122 -150 OFFCURVE",
"-122 -161 CURVE SMOOTH",
"-122 -173 OFFCURVE",
"-114 -184 OFFCURVE",
"-97 -183 CURVE SMOOTH"
);
}
);
width = 218;
}
);
leftKerningGroup = n;
rightKerningGroup = l;
unicode = 0237;
},
{
glyphname = k;
layers = (
{
anchors = (
{
name = bottom;
position = "{220, 0}";
},
{
name = top;
position = "{259, 490}";
}
);
background = {
paths = (
{
closed = 1;
nodes = (
"437 26 OFFCURVE",
"434 32 OFFCURVE",
"429 37 CURVE",
"178 271 LINE",
"175 229 LINE",
"437 448 LINE SMOOTH",
"443 453 OFFCURVE",
"446 459 OFFCURVE",
"446 466 CURVE SMOOTH",
"446 479 OFFCURVE",
"435 490 OFFCURVE",
"422 490 CURVE SMOOTH",
"416 490 OFFCURVE",
"411 488 OFFCURVE",
"407 484 CURVE",
"124 248 LINE",
"397 2 LINE",
"401 -2 OFFCURVE",
"407 -5 OFFCURVE",
"413 -5 CURVE SMOOTH",
"426 -5 OFFCURVE",
"437 6 OFFCURVE",
"437 19 CURVE SMOOTH"
);
},
{
closed = 1;
nodes = (
"107 -5 OFFCURVE",
"118 4 OFFCURVE",
"119 20 CURVE SMOOTH",
"171 681 LINE SMOOTH",
"172 699 OFFCURVE",
"163 710 OFFCURVE",
"146 710 CURVE SMOOTH",
"133 710 OFFCURVE",
"118 701 OFFCURVE",
"117 685 CURVE SMOOTH",
"65 24 LINE SMOOTH",
"64 6 OFFCURVE",
"77 -5 OFFCURVE",
"92 -5 CURVE SMOOTH"
);
}
);
};
guideLines = (
{
position = "{113, 240}";
}
);
layerId = "9E718F8A-2CEA-4931-B05D-987794BD97DA";
paths = (
{
closed = 1;
nodes = (
"421 -20 OFFCURVE",
"453 15 OFFCURVE",
"429 37 CURVE SMOOTH",
"178 271 LINE",
"175 229 LINE",
"437 448 LINE SMOOTH",
"462 469 OFFCURVE",
"432 505 OFFCURVE",
"407 484 CURVE SMOOTH",
"124 248 LINE",
"397 2 LINE SMOOTH"
);
},
{
closed = 1;
nodes = (
"107 -5 OFFCURVE",
"118 4 OFFCURVE",
"119 20 CURVE SMOOTH",
"171 681 LINE SMOOTH",
"172 699 OFFCURVE",
"163 710 OFFCURVE",
"146 710 CURVE SMOOTH",
"133 710 OFFCURVE",
"118 701 OFFCURVE",
"117 685 CURVE SMOOTH",
"65 24 LINE SMOOTH",
"64 6 OFFCURVE",
"77 -5 OFFCURVE",
"92 -5 CURVE SMOOTH"
);
}
);
width = 478;
}
);
leftKerningGroup = h;
rightKerningGroup = k;
unicode = 006B;
userData = {
com.typemytype.robofont.layerData = {
b = {
anchors = (
);
components = (
);
contours = (
{
points = (
{
segmentType = line;
smooth = 0;
x = 318;
y = 536;
},
{
segmentType = line;
smooth = 1;
x = 793;
y = 27;
},
{
smooth = 0;
x = 809;
y = 9;
},
{
smooth = 0;
x = 828;
y = 1;
},
{
segmentType = curve;
smooth = 1;
x = 845;
y = 1;
},
{
smooth = 0;
x = 883;
y = 1;
},
{
smooth = 0;
x = 922;
y = 33;
},
{
segmentType = curve;
smooth = 1;
x = 922;
y = 71;
},
{
smooth = 0;
x = 922;
y = 84;
},
{
smooth = 0;
x = 918;
y = 99;
},
{
segmentType = curve;
smooth = 1;
x = 906;
y = 112;
},
{
segmentType = line;
smooth = 0;
x = 492;
y = 554;
},
{
segmentType = line;
smooth = 1;
x = 873;
y = 889;
},
{
smooth = 0;
x = 888;
y = 902;
},
{
smooth = 0;
x = 894;
y = 918;
},
{
segmentType = curve;
smooth = 1;
x = 894;
y = 933;
},
{
smooth = 0;
x = 894;
y = 968;
},
{
smooth = 0;
x = 858;
y = 1002;
},
{
segmentType = curve;
smooth = 1;
x = 821;
y = 1002;
},
{
smooth = 0;
x = 802;
y = 1002;
},
{
smooth = 0;
x = 785;
y = 994;
},
{
segmentType = curve;
smooth = 0;
x = 770;
y = 979;
},
{
segmentType = line;
smooth = 0;
x = 318;
y = 574;
}
);
}
);
lib = {
};
name = k;
unicodes = (
);
width = 984;
};
};
};
},
{
glyphname = kgreenlandic;
layers = (
{
anchors = (
{
name = bottom;
position = "{220, 0}";
},
{
name = top;
position = "{259, 490}";
}
);
background = {
anchors = (
{
name = bottom;
position = "{220, 0}";
},
{
name = top;
position = "{259, 490}";
}
);
paths = (
{
closed = 1;
nodes = (
"420 -22 OFFCURVE",
"455 17 OFFCURVE",
"426 43 CURVE SMOOTH",
"178 271 LINE",
"175 229 LINE",
"438 446 LINE SMOOTH",
"469 471 OFFCURVE",
"439 510 OFFCURVE",
"409 485 CURVE SMOOTH",
"124 248 LINE",
"393 3 LINE SMOOTH"
);
},
{
closed = 1;
nodes = (
"105 -5 OFFCURVE",
"117 5 OFFCURVE",
"119 23 CURVE SMOOTH",
"154 467 LINE SMOOTH",
"156 485 OFFCURVE",
"144 495 OFFCURVE",
"129 495 CURVE SMOOTH",
"113 495 OFFCURVE",
"102 485 OFFCURVE",
"100 467 CURVE SMOOTH",
"65 23 LINE SMOOTH",
"63 5 OFFCURVE",
"74 -5 OFFCURVE",
"90 -5 CURVE SMOOTH"
);
}
);
};
layerId = "9E718F8A-2CEA-4931-B05D-987794BD97DA";
paths = (
{
closed = 1;
nodes = (
"421 -20 OFFCURVE",
"453 15 OFFCURVE",
"429 37 CURVE SMOOTH",
"178 271 LINE",
"175 229 LINE",
"437 448 LINE SMOOTH",
"462 469 OFFCURVE",
"432 505 OFFCURVE",
"407 484 CURVE SMOOTH",
"124 248 LINE",
"397 2 LINE SMOOTH"
);
},
{
closed = 1;
nodes = (
"102 -5 OFFCURVE",
"116 2 OFFCURVE",
"118 23 CURVE SMOOTH",
"154 470 LINE SMOOTH",
"155 488 OFFCURVE",
"143 495 OFFCURVE",
"129 495 CURVE SMOOTH",
"116 495 OFFCURVE",
"101 488 OFFCURVE",
"100 470 CURVE SMOOTH",
"64 23 LINE SMOOTH",
"62 2 OFFCURVE",
"75 -5 OFFCURVE",
"89 -5 CURVE SMOOTH"
);
}
);
width = 478;
}
);
leftKerningGroup = n;
rightKerningGroup = k;
unicode = 0138;
userData = {
com.typemytype.robofont.layerData = {
b = {
anchors = (
);
components = (
);
contours = (
);
lib = {
};
name = kgreenlandic;
unicodes = (
);
width = 1047;
};
};
};
},
{
glyphname = l;
layers = (
{
anchors = (
{
name = bottom;
position = "{90, 0}";
},
{
name = center;
position = "{109, 245}";
},
{
name = top;
position = "{145, 705}";
},
{
name = topright;
position = "{212, 705}";
}
);
background = {
anchors = (
{
name = bottom;
position = "{90, 0}";
},
{
name = center;
position = "{109, 245}";
},
{
name = top;
position = "{145, 705}";
},
{
name = topright;
position = "{212, 705}";
}
);
paths = (
{
closed = 1;
nodes = (
"105 -5 OFFCURVE",
"117 5 OFFCURVE",
"119 23 CURVE SMOOTH",
"171 682 LINE SMOOTH",
"173 700 OFFCURVE",
"161 710 OFFCURVE",
"146 710 CURVE SMOOTH",
"130 710 OFFCURVE",
"119 700 OFFCURVE",
"117 682 CURVE SMOOTH",
"65 23 LINE SMOOTH",
"63 5 OFFCURVE",
"74 -5 OFFCURVE",
"90 -5 CURVE SMOOTH"
);
}
);
};
layerId = "9E718F8A-2CEA-4931-B05D-987794BD97DA";
paths = (
{
closed = 1;
nodes = (
"102 -5 OFFCURVE",
"116 2 OFFCURVE",
"118 23 CURVE SMOOTH",
"171 686 LINE SMOOTH",
"172 704 OFFCURVE",
"160 711 OFFCURVE",
"146 711 CURVE SMOOTH",
"133 711 OFFCURVE",
"118 704 OFFCURVE",
"117 686 CURVE SMOOTH",
"64 23 LINE SMOOTH",
"62 2 OFFCURVE",
"75 -5 OFFCURVE",
"89 -5 CURVE SMOOTH"
);
}
);
width = 218;
}
);
leftKerningGroup = h;
rightKerningGroup = l;
unicode = 006C;
userData = {
com.typemytype.robofont.layerData = {
b = {
anchors = (
);
components = (
);
contours = (
);
lib = {
};
name = l;
unicodes = (
);
width = 511;
};
};
};
},
{
glyphname = lcaron;
layers = (
{
background = {
components = (
{
name = l;
}
);
paths = (
{
closed = 1;
nodes = (
"266 673 LINE SMOOTH",
"277 720 OFFCURVE",
"214 725 OFFCURVE",
"210 678 CURVE SMOOTH",
"198 530 LINE SMOOTH",
"196 508 OFFCURVE",
"228 505 OFFCURVE",
"233 527 CURVE SMOOTH"
);
}
);
};
components = (
{
name = l;
}
);
layerId = "9E718F8A-2CEA-4931-B05D-987794BD97DA";
paths = (
{
closed = 1;
nodes = (
"265 673 LINE SMOOTH",
"276 720 OFFCURVE",
"214 725 OFFCURVE",
"210 678 CURVE SMOOTH",
"198 530 LINE SMOOTH",
"196 509 OFFCURVE",
"227 506 OFFCURVE",
"232 527 CURVE SMOOTH"
);
}
);
width = 218;
}
);
leftKerningGroup = h;
rightKerningGroup = lcaron;
unicode = 013E;
},
{
glyphname = lslash;
layers = (
{
background = {
paths = (
{
closed = 1;
nodes = (
"254 396 LINE SMOOTH",
"285 413 OFFCURVE",
"265 454 OFFCURVE",
"234 437 CURVE SMOOTH",
"20 319 LINE SMOOTH",
"-9 303 OFFCURVE",
"10 260 OFFCURVE",
"41 278 CURVE SMOOTH"
);
},
{
closed = 1;
nodes = (
"124 -5 OFFCURVE",
"136 5 OFFCURVE",
"138 23 CURVE SMOOTH",
"190 682 LINE SMOOTH",
"192 700 OFFCURVE",
"180 710 OFFCURVE",
"165 710 CURVE SMOOTH",
"149 710 OFFCURVE",
"138 700 OFFCURVE",
"136 682 CURVE SMOOTH",
"84 23 LINE SMOOTH",
"82 5 OFFCURVE",
"93 -5 OFFCURVE",
"109 -5 CURVE SMOOTH"
);
}
);
};
layerId = "9E718F8A-2CEA-4931-B05D-987794BD97DA";
paths = (
{
closed = 1;
nodes = (
"122 -5 OFFCURVE",
"136 2 OFFCURVE",
"138 23 CURVE SMOOTH",
"191 686 LINE SMOOTH",
"192 704 OFFCURVE",
"180 711 OFFCURVE",
"166 711 CURVE SMOOTH",
"153 711 OFFCURVE",
"138 704 OFFCURVE",
"137 686 CURVE SMOOTH",
"84 23 LINE SMOOTH",
"82 2 OFFCURVE",
"95 -5 OFFCURVE",
"109 -5 CURVE SMOOTH"
);
},
{
closed = 1;
nodes = (
"258 398 LINE SMOOTH",
"285 413 OFFCURVE",
"261 452 OFFCURVE",
"236 438 CURVE SMOOTH",
"16 317 LINE SMOOTH",
"-13 301 OFFCURVE",
"16 265 OFFCURVE",
"38 277 CURVE SMOOTH"
);
}
);
width = 256;
}
);
leftKerningGroup = l;
rightKerningGroup = l;
unicode = 0142;
},
{
glyphname = m;
layers = (
{
anchors = (
{
name = bottom;
position = "{402, 0}";
},
{
name = top;
position = "{441, 490}";
}
);
background = {
anchors = (
{
name = bottom;
position = "{402, 0}";
},
{
name = top;
position = "{441, 490}";
}
);
paths = (
{
closed = 1;
nodes = (
"375 2 OFFCURVE",
"388 -5 OFFCURVE",
"402 -5 CURVE SMOOTH",
"415 -5 OFFCURVE",
"429 2 OFFCURVE",
"431 23 CURVE SMOOTH",
"467 470 LINE SMOOTH",
"468 488 OFFCURVE",
"456 495 OFFCURVE",
"442 495 CURVE SMOOTH",
"429 495 OFFCURVE",
"414 488 OFFCURVE",
"413 470 CURVE SMOOTH",
"377 23 LINE SMOOTH"
);
},
{
closed = 1;
nodes = (
"687 2 OFFCURVE",
"700 -5 OFFCURVE",
"714 -5 CURVE SMOOTH",
"727 -5 OFFCURVE",
"741 2 OFFCURVE",
"743 23 CURVE SMOOTH",
"779 470 LINE SMOOTH",
"780 488 OFFCURVE",
"768 495 OFFCURVE",
"754 495 CURVE SMOOTH",
"741 495 OFFCURVE",
"726 488 OFFCURVE",
"725 470 CURVE SMOOTH",
"689 23 LINE SMOOTH"
);
}
);
};
layerId = "9E718F8A-2CEA-4931-B05D-987794BD97DA";
paths = (
{
closed = 1;
nodes = (
"102 -5 OFFCURVE",
"116 2 OFFCURVE",
"118 23 CURVE SMOOTH",
"139 281 LINE SMOOTH",
"148 387 OFFCURVE",
"203 448 OFFCURVE",
"294 448 CURVE SMOOTH",
"374 448 OFFCURVE",
"407 403 OFFCURVE",
"399 304 CURVE SMOOTH",
"377 23 LINE SMOOTH",
"375 2 OFFCURVE",
"389 -5 OFFCURVE",
"402 -5 CURVE SMOOTH",
"415 -5 OFFCURVE",
"429 2 OFFCURVE",
"431 23 CURVE SMOOTH",
"451 281 LINE SMOOTH",
"459 387 OFFCURVE",
"515 448 OFFCURVE",
"606 448 CURVE SMOOTH",
"686 448 OFFCURVE",
"719 403 OFFCURVE",
"711 304 CURVE SMOOTH",
"689 23 LINE SMOOTH",
"687 2 OFFCURVE",
"700 -5 OFFCURVE",
"714 -5 CURVE SMOOTH",
"727 -5 OFFCURVE",
"741 2 OFFCURVE",
"743 23 CURVE SMOOTH",
"765 308 LINE SMOOTH",
"775 432 OFFCURVE",
"723 497 OFFCURVE",
"614 497 CURVE SMOOTH",
"524 497 OFFCURVE",
"455 446 OFFCURVE",
"432 363 CURVE",
"456 354 LINE",
"450 449 OFFCURVE",
"398 497 OFFCURVE",
"302 497 CURVE SMOOTH",
"219 497 OFFCURVE",
"161 454 OFFCURVE",
"134 373 CURVE",
"146 382 LINE",
"153 470 LINE SMOOTH",
"154 488 OFFCURVE",
"143 495 OFFCURVE",
"129 495 CURVE SMOOTH",
"116 495 OFFCURVE",
"101 488 OFFCURVE",
"100 470 CURVE SMOOTH",
"64 23 LINE SMOOTH",
"62 2 OFFCURVE",
"75 -5 OFFCURVE",
"89 -5 CURVE SMOOTH"
);
}
);
width = 840;
}
);
leftKerningGroup = n;
rightKerningGroup = n;
unicode = 006D;
userData = {
anchors = (
);
b = {
};
com.typemytype.robofont.layerData = {
b = {
anchors = (
);
components = (
);
contours = (
);
lib = {
};
name = m;
unicodes = (
);
width = 1838;
};
};
components = (
);
contours = (
);
lib = {
};
name = m;
unicodes = (
);
width = 1877;
};
},
{
glyphname = n;
layers = (
{
anchors = (
{
name = bottom;
position = "{260, 0}";
},
{
name = top;
position = "{299, 490}";
}
);
background = {
anchors = (
{
name = bottom;
position = "{260, 0}";
},
{
name = top;
position = "{299, 490}";
}
);
paths = (
{
closed = 1;
nodes = (
"707 -5 OFFCURVE",
"718 6 OFFCURVE",
"719 23 CURVE SMOOTH",
"739 281 LINE SMOOTH",
"747 383 OFFCURVE",
"817 448 OFFCURVE",
"916 448 CURVE SMOOTH",
"1003 448 OFFCURVE",
"1037 404 OFFCURVE",
"1029 306 CURVE SMOOTH",
"1007 23 LINE SMOOTH",
"1006 6 OFFCURVE",
"1015 -5 OFFCURVE",
"1032 -5 CURVE SMOOTH",
"1049 -5 OFFCURVE",
"1060 6 OFFCURVE",
"1061 23 CURVE SMOOTH",
"1084 310 LINE SMOOTH",
"1094 434 OFFCURVE",
"1039 497 OFFCURVE",
"922 497 CURVE SMOOTH",
"838 497 OFFCURVE",
"766 454 OFFCURVE",
"735 373 CURVE",
"746 382 LINE",
"753 467 LINE SMOOTH",
"754 484 OFFCURVE",
"745 495 OFFCURVE",
"729 495 CURVE SMOOTH",
"712 495 OFFCURVE",
"701 484 OFFCURVE",
"700 467 CURVE SMOOTH",
"665 23 LINE SMOOTH",
"664 6 OFFCURVE",
"673 -5 OFFCURVE",
"690 -5 CURVE SMOOTH"
);
},
{
closed = 1;
nodes = (
"62 2 OFFCURVE",
"75 -5 OFFCURVE",
"89 -5 CURVE SMOOTH",
"102 -5 OFFCURVE",
"116 2 OFFCURVE",
"118 23 CURVE SMOOTH",
"154 470 LINE SMOOTH",
"155 488 OFFCURVE",
"143 495 OFFCURVE",
"129 495 CURVE SMOOTH",
"116 495 OFFCURVE",
"101 488 OFFCURVE",
"100 470 CURVE SMOOTH",
"64 23 LINE SMOOTH"
);
},
{
closed = 1;
nodes = (
"405 2 OFFCURVE",
"418 -5 OFFCURVE",
"432 -5 CURVE SMOOTH",
"445 -5 OFFCURVE",
"459 2 OFFCURVE",
"461 23 CURVE SMOOTH",
"497 470 LINE SMOOTH",
"498 488 OFFCURVE",
"486 495 OFFCURVE",
"472 495 CURVE SMOOTH",
"459 495 OFFCURVE",
"444 488 OFFCURVE",
"443 470 CURVE SMOOTH",
"407 23 LINE SMOOTH"
);
}
);
};
layerId = "9E718F8A-2CEA-4931-B05D-987794BD97DA";
paths = (
{
closed = 1;
nodes = (
"102 -5 OFFCURVE",
"116 2 OFFCURVE",
"118 23 CURVE SMOOTH",
"139 281 LINE SMOOTH",
"147 385 OFFCURVE",
"209 448 OFFCURVE",
"311 448 CURVE SMOOTH",
"397 448 OFFCURVE",
"437 402 OFFCURVE",
"429 304 CURVE SMOOTH",
"407 23 LINE SMOOTH",
"405 2 OFFCURVE",
"418 -5 OFFCURVE",
"432 -5 CURVE SMOOTH",
"445 -5 OFFCURVE",
"459 2 OFFCURVE",
"461 23 CURVE SMOOTH",
"483 308 LINE SMOOTH",
"493 433 OFFCURVE",
"433 497 OFFCURVE",
"316 497 CURVE SMOOTH",
"230 497 OFFCURVE",
"161 452 OFFCURVE",
"134 373 CURVE",
"146 385 LINE",
"153 470 LINE SMOOTH",
"154 488 OFFCURVE",
"143 495 OFFCURVE",
"129 495 CURVE SMOOTH",
"116 495 OFFCURVE",
"101 488 OFFCURVE",
"100 470 CURVE SMOOTH",
"64 23 LINE SMOOTH",
"62 2 OFFCURVE",
"75 -5 OFFCURVE",
"89 -5 CURVE SMOOTH"
);
}
);
width = 558;
}
);
leftKerningGroup = n;
rightKerningGroup = n;
unicode = 006E;
userData = {
anchors = (
);
b = {
};
com.typemytype.robofont.layerData = {
b = {
anchors = (
);
components = (
);
contours = (
);
lib = {
};
name = n;
unicodes = (
);
width = 1152;
};
};
components = (
);
contours = {
};
lib = {
};
name = n;
points = {
};
segmentType = curve;
unicodes = (
);
width = 1195;
x = 137;
y = 113;
};
},
{
glyphname = eng;
layers = (
{
background = {
paths = (
{
closed = 1;
nodes = (
"229 497 OFFCURVE",
"161 451 OFFCURVE",
"134 373 CURVE",
"146 385 LINE",
"154 485 LINE",
"101 485 LINE",
"63 0 LINE",
"117 0 LINE",
"139 281 LINE SMOOTH",
"147 387 OFFCURVE",
"210 448 OFFCURVE",
"311 448 CURVE SMOOTH",
"398 448 OFFCURVE",
"437 401 OFFCURVE",
"429 304 CURVE SMOOTH",
"405 -5 LINE SMOOTH",
"399 -86 OFFCURVE",
"357 -130 OFFCURVE",
"279 -135 CURVE SMOOTH",
"236 -138 LINE",
"238 -183 LINE",
"282 -180 LINE SMOOTH",
"391 -172 OFFCURVE",
"450 -112 OFFCURVE",
"459 -1 CURVE SMOOTH",
"483 308 LINE SMOOTH",
"493 431 OFFCURVE",
"435 497 OFFCURVE",
"316 497 CURVE SMOOTH"
);
}
);
};
layerId = "9E718F8A-2CEA-4931-B05D-987794BD97DA";
paths = (
{
closed = 1;
nodes = (
"263 -182 LINE SMOOTH",
"389 -175 OFFCURVE",
"450 -117 OFFCURVE",
"460 12 CURVE SMOOTH",
"483 308 LINE SMOOTH",
"493 434 OFFCURVE",
"433 497 OFFCURVE",
"316 497 CURVE SMOOTH",
"230 497 OFFCURVE",
"161 452 OFFCURVE",
"134 373 CURVE",
"146 385 LINE",
"153 470 LINE SMOOTH",
"154 488 OFFCURVE",
"143 495 OFFCURVE",
"129 495 CURVE SMOOTH",
"116 495 OFFCURVE",
"101 488 OFFCURVE",
"100 470 CURVE SMOOTH",
"64 23 LINE SMOOTH",
"62 2 OFFCURVE",
"75 -5 OFFCURVE",
"89 -5 CURVE SMOOTH",
"102 -5 OFFCURVE",
"116 2 OFFCURVE",
"118 23 CURVE SMOOTH",
"139 281 LINE SMOOTH",
"147 385 OFFCURVE",
"209 448 OFFCURVE",
"311 448 CURVE SMOOTH",
"397 448 OFFCURVE",
"437 403 OFFCURVE",
"429 304 CURVE SMOOTH",
"405 5 LINE SMOOTH",
"397 -87 OFFCURVE",
"359 -130 OFFCURVE",
"273 -136 CURVE SMOOTH",
"244 -138 LINE SMOOTH",
"228 -139 OFFCURVE",
"220 -150 OFFCURVE",
"220 -161 CURVE SMOOTH",
"220 -173 OFFCURVE",
"228 -184 OFFCURVE",
"245 -183 CURVE SMOOTH"
);
}
);
width = 558;
}
);
leftKerningGroup = n;
rightKerningGroup = n;
unicode = 014B;
},
{
glyphname = o;
layers = (
{
anchors = (
{
name = bottom;
position = "{252, 0}";
},
{
name = center;
position = "{271, 245}";
},
{
name = ogonek;
position = "{336, 10}";
},
{
name = top;
position = "{291, 490}";
},
{
name = topright;
position = "{340, 490}";
}
);
background = {
paths = (
{
closed = 1;
nodes = (
"384 -7 OFFCURVE",
"480 92 OFFCURVE",
"492 245 CURVE SMOOTH",
"505 398 OFFCURVE",
"424 497 OFFCURVE",
"291 497 CURVE SMOOTH",
"158 497 OFFCURVE",
"63 398 OFFCURVE",
"50 245 CURVE SMOOTH",
"38 92 OFFCURVE",
"118 -7 OFFCURVE",
"251 -7 CURVE SMOOTH"
);
},
{
closed = 1;
nodes = (
"150 42 OFFCURVE",
"97 114 OFFCURVE",
"107 245 CURVE SMOOTH",
"118 373 OFFCURVE",
"185 448 OFFCURVE",
"288 448 CURVE SMOOTH",
"391 448 OFFCURVE",
"446 373 OFFCURVE",
"435 245 CURVE SMOOTH",
"425 114 OFFCURVE",
"360 42 OFFCURVE",
"254 42 CURVE SMOOTH"
);
}
);
};
layerId = "9E718F8A-2CEA-4931-B05D-987794BD97DA";
paths = (
{
closed = 1;
nodes = (
"401 -7 OFFCURVE",
"493 100 OFFCURVE",
"493 262 CURVE SMOOTH",
"493 405 OFFCURVE",
"409 497 OFFCURVE",
"278 497 CURVE SMOOTH",
"141 497 OFFCURVE",
"50 389 OFFCURVE",
"50 227 CURVE SMOOTH",
"50 85 OFFCURVE",
"134 -7 OFFCURVE",
"264 -7 CURVE SMOOTH"
);
},
{
closed = 1;
nodes = (
"164 42 OFFCURVE",
"107 106 OFFCURVE",
"107 224 CURVE SMOOTH",
"107 363 OFFCURVE",
"171 448 OFFCURVE",
"277 448 CURVE SMOOTH",
"377 448 OFFCURVE",
"436 381 OFFCURVE",
"436 265 CURVE SMOOTH",
"436 126 OFFCURVE",
"372 42 OFFCURVE",
"267 42 CURVE SMOOTH"
);
}
);
width = 542;
}
);
leftKerningGroup = o;
rightKerningGroup = o;
unicode = 006F;
userData = {
anchors = (
);
b = {
};
com.typemytype.robofont.guides = (
);
com.typemytype.robofont.layerData = {
b = {
anchors = (
);
components = (
);
contours = (
);
lib = {
};
name = o;
unicodes = (
);
width = 1144;
};
};
components = (
);
contours = (
);
lib = {
};
name = o;
unicodes = (
);
width = 1199;
};
},
{
glyphname = ohorn;
layers = (
{
anchors = (
{
name = bottom;
position = "{252, 0}";
},
{
name = top;
position = "{291, 490}";
}
);
background = {
anchors = (
{
name = bottom;
position = "{252, 0}";
},
{
name = top;
position = "{291, 490}";
}
);
paths = (
{
closed = 1;
nodes = (
"384 -7 OFFCURVE",
"480 92 OFFCURVE",
"492 245 CURVE SMOOTH",
"501 352 OFFCURVE",
"464 435 OFFCURVE",
"392 474 CURVE",
"359 450 LINE",
"451 455 OFFCURVE",
"508 506 OFFCURVE",
"515 588 CURVE SMOOTH",
"516 610 OFFCURVE",
"509 620 OFFCURVE",
"492 620 CURVE SMOOTH",
"476 620 OFFCURVE",
"467 611 OFFCURVE",
"464 593 CURVE SMOOTH",
"455 522 OFFCURVE",
"425 493 OFFCURVE",
"359 493 CURVE SMOOTH",
"343 493 OFFCURVE",
"315 497 OFFCURVE",
"291 497 CURVE SMOOTH",
"158 497 OFFCURVE",
"63 398 OFFCURVE",
"50 245 CURVE SMOOTH",
"38 92 OFFCURVE",
"118 -7 OFFCURVE",
"251 -7 CURVE SMOOTH"
);
},
{
closed = 1;
nodes = (
"150 42 OFFCURVE",
"97 114 OFFCURVE",
"107 245 CURVE SMOOTH",
"118 373 OFFCURVE",
"185 448 OFFCURVE",
"288 448 CURVE SMOOTH",
"391 448 OFFCURVE",
"446 373 OFFCURVE",
"435 245 CURVE SMOOTH",
"425 114 OFFCURVE",
"360 42 OFFCURVE",
"254 42 CURVE SMOOTH"
);
}
);
};
layerId = "9E718F8A-2CEA-4931-B05D-987794BD97DA";
paths = (
{
closed = 1;
nodes = (
"401 -7 OFFCURVE",
"493 100 OFFCURVE",
"493 262 CURVE SMOOTH",
"493 349 OFFCURVE",
"458 433 OFFCURVE",
"384 472 CURVE",
"358 448 LINE",
"457 451 OFFCURVE",
"515 511 OFFCURVE",
"515 594 CURVE SMOOTH",
"515 617 OFFCURVE",
"501 620 OFFCURVE",
"492 620 CURVE SMOOTH",
"476 620 OFFCURVE",
"467 612 OFFCURVE",
"464 593 CURVE SMOOTH",
"456 524 OFFCURVE",
"428 491 OFFCURVE",
"359 491 CURVE SMOOTH",
"343 491 OFFCURVE",
"318 497 OFFCURVE",
"279 497 CURVE SMOOTH",
"141 497 OFFCURVE",
"50 389 OFFCURVE",
"50 227 CURVE SMOOTH",
"50 85 OFFCURVE",
"134 -7 OFFCURVE",
"264 -7 CURVE SMOOTH"
);
},
{
closed = 1;
nodes = (
"164 42 OFFCURVE",
"107 106 OFFCURVE",
"107 224 CURVE SMOOTH",
"107 363 OFFCURVE",
"171 448 OFFCURVE",
"277 448 CURVE SMOOTH",
"377 448 OFFCURVE",
"436 381 OFFCURVE",
"436 265 CURVE SMOOTH",
"436 126 OFFCURVE",
"372 42 OFFCURVE",
"267 42 CURVE SMOOTH"
);
}
);
width = 542;
}
);
leftKerningGroup = o;
rightKerningGroup = o;
unicode = 01A1;
},
{
glyphname = oogonek;
layers = (
{
anchors = (
{
name = top;
position = "{291, 490}";
}
);
background = {
anchors = (
{
name = top;
position = "{291, 490}";
}
);
paths = (
{
closed = 1;
nodes = (
"316 -191 OFFCURVE",
"339 -186 OFFCURVE",
"361 -174 CURVE SMOOTH",
"386 -160 OFFCURVE",
"381 -119 OFFCURVE",
"348 -135 CURVE SMOOTH",
"330 -144 OFFCURVE",
"311 -148 OFFCURVE",
"299 -148 CURVE SMOOTH",
"260 -148 OFFCURVE",
"237 -127 OFFCURVE",
"237 -86 CURVE SMOOTH",
"237 -41 OFFCURVE",
"271 -2 OFFCURVE",
"336 10 CURVE",
"326 41 LINE",
"237 26 OFFCURVE",
"186 -26 OFFCURVE",
"186 -95 CURVE SMOOTH",
"186 -152 OFFCURVE",
"227 -191 OFFCURVE",
"291 -191 CURVE SMOOTH"
);
}
);
};
layerId = "9E718F8A-2CEA-4931-B05D-987794BD97DA";
paths = (
{
closed = 1;
nodes = (
"316 -191 OFFCURVE",
"339 -186 OFFCURVE",
"361 -174 CURVE SMOOTH",
"386 -160 OFFCURVE",
"381 -119 OFFCURVE",
"348 -135 CURVE SMOOTH",
"330 -144 OFFCURVE",
"311 -148 OFFCURVE",
"299 -148 CURVE SMOOTH",
"260 -148 OFFCURVE",
"237 -127 OFFCURVE",
"237 -86 CURVE SMOOTH",
"237 -42 OFFCURVE",
"266 -17 OFFCURVE",
"333 4 CURVE SMOOTH",
"417 30 OFFCURVE",
"493 110 OFFCURVE",
"493 262 CURVE SMOOTH",
"493 405 OFFCURVE",
"409 497 OFFCURVE",
"278 497 CURVE SMOOTH",
"141 497 OFFCURVE",
"50 389 OFFCURVE",
"50 227 CURVE SMOOTH",
"50 85 OFFCURVE",
"134 -5 OFFCURVE",
"256 -7 CURVE",
"256 13 LINE",
"214 -7 OFFCURVE",
"186 -42 OFFCURVE",
"186 -95 CURVE SMOOTH",
"186 -152 OFFCURVE",
"227 -191 OFFCURVE",
"293 -191 CURVE SMOOTH"
);
},
{
closed = 1;
nodes = (
"164 42 OFFCURVE",
"107 106 OFFCURVE",
"107 224 CURVE SMOOTH",
"107 363 OFFCURVE",
"171 448 OFFCURVE",
"277 448 CURVE SMOOTH",
"377 448 OFFCURVE",
"436 381 OFFCURVE",
"436 265 CURVE SMOOTH",
"436 126 OFFCURVE",
"372 42 OFFCURVE",
"267 42 CURVE SMOOTH"
);
}
);
width = 542;
}
);
leftKerningGroup = o;
rightKerningGroup = o;
unicode = 01EB;
},
{
glyphname = oslash;
layers = (
{
anchors = (
{
name = top;
position = "{291, 490}";
}
);
background = {
anchors = (
{
name = top;
position = "{291, 490}";
}
);
paths = (
{
closed = 1;
nodes = (
"384 -7 OFFCURVE",
"480 92 OFFCURVE",
"492 245 CURVE SMOOTH",
"505 398 OFFCURVE",
"424 497 OFFCURVE",
"291 497 CURVE SMOOTH",
"158 497 OFFCURVE",
"63 398 OFFCURVE",
"50 245 CURVE SMOOTH",
"38 92 OFFCURVE",
"118 -7 OFFCURVE",
"251 -7 CURVE SMOOTH"
);
},
{
closed = 1;
nodes = (
"460 488 LINE SMOOTH",
"478 515 OFFCURVE",
"440 538 OFFCURVE",
"422 511 CURVE SMOOTH",
"84 2 LINE SMOOTH",
"66 -25 OFFCURVE",
"104 -48 OFFCURVE",
"122 -21 CURVE SMOOTH"
);
},
{
closed = 1;
nodes = (
"150 42 OFFCURVE",
"97 114 OFFCURVE",
"107 245 CURVE SMOOTH",
"118 373 OFFCURVE",
"185 448 OFFCURVE",
"288 448 CURVE SMOOTH",
"391 448 OFFCURVE",
"446 373 OFFCURVE",
"435 245 CURVE SMOOTH",
"425 114 OFFCURVE",
"360 42 OFFCURVE",
"254 42 CURVE SMOOTH"
);
}
);
};
layerId = "9E718F8A-2CEA-4931-B05D-987794BD97DA";
paths = (
{
closed = 1;
nodes = (
"401 -7 OFFCURVE",
"493 100 OFFCURVE",
"493 262 CURVE SMOOTH",
"493 405 OFFCURVE",
"409 497 OFFCURVE",
"278 497 CURVE SMOOTH",
"141 497 OFFCURVE",
"50 389 OFFCURVE",
"50 227 CURVE SMOOTH",
"50 85 OFFCURVE",
"134 -7 OFFCURVE",
"264 -7 CURVE SMOOTH"
);
},
{
closed = 1;
nodes = (
"455 484 LINE SMOOTH",
"475 514 OFFCURVE",
"439 539 OFFCURVE",
"419 509 CURVE SMOOTH",
"88 6 LINE SMOOTH",
"68 -24 OFFCURVE",
"104 -49 OFFCURVE",
"124 -19 CURVE SMOOTH"
);
},
{
closed = 1;
nodes = (
"164 42 OFFCURVE",
"107 106 OFFCURVE",
"107 224 CURVE SMOOTH",
"107 363 OFFCURVE",
"171 448 OFFCURVE",
"277 448 CURVE SMOOTH",
"377 448 OFFCURVE",
"436 381 OFFCURVE",
"436 265 CURVE SMOOTH",
"436 126 OFFCURVE",
"372 42 OFFCURVE",
"267 42 CURVE SMOOTH"
);
}
);
width = 542;
}
);
leftKerningGroup = o;
rightKerningGroup = o;
unicode = 00F8;
},
{
glyphname = oe;
layers = (
{
anchors = (
{
name = bottom;
position = "{445, 0}";
},
{
name = top;
position = "{484, 490}";
}
);
background = {
paths = (
{
closed = 1;
nodes = (
"401 -7 OFFCURVE",
"484 106 OFFCURVE",
"484 245 CURVE SMOOTH",
"484 413 OFFCURVE",
"409 497 OFFCURVE",
"279 497 CURVE SMOOTH",
"141 497 OFFCURVE",
"50 389 OFFCURVE",
"50 227 CURVE SMOOTH",
"50 85 OFFCURVE",
"134 -7 OFFCURVE",
"264 -7 CURVE SMOOTH"
);
},
{
closed = 1;
nodes = (
"164 42 OFFCURVE",
"107 106 OFFCURVE",
"107 224 CURVE SMOOTH",
"107 363 OFFCURVE",
"171 448 OFFCURVE",
"277 448 CURVE SMOOTH",
"377 448 OFFCURVE",
"436 381 OFFCURVE",
"436 265 CURVE SMOOTH",
"436 126 OFFCURVE",
"372 42 OFFCURVE",
"267 42 CURVE SMOOTH"
);
},
{
closed = 1;
nodes = (
"721 -7 OFFCURVE",
"798 18 OFFCURVE",
"838 58 CURVE",
"819 101 LINE",
"770 60 OFFCURVE",
"711 42 OFFCURVE",
"661 42 CURVE SMOOTH",
"548 42 OFFCURVE",
"491 112 OFFCURVE",
"491 224 CURVE SMOOTH",
"491 365 OFFCURVE",
"555 451 OFFCURVE",
"674 451 CURVE SMOOTH",
"765 451 OFFCURVE",
"824 387 OFFCURVE",
"810 256 CURVE",
"832 279 LINE",
"475 279 LINE",
"473 236 LINE",
"860 236 LINE",
"878 413 OFFCURVE",
"798 497 OFFCURVE",
"671 497 CURVE SMOOTH",
"525 497 OFFCURVE",
"443 388 OFFCURVE",
"443 227 CURVE SMOOTH",
"443 85 OFFCURVE",
"518 -7 OFFCURVE",
"661 -7 CURVE SMOOTH"
);
}
);
};
layerId = "9E718F8A-2CEA-4931-B05D-987794BD97DA";
paths = (
{
closed = 1;
nodes = (
"401 -7 OFFCURVE",
"484 106 OFFCURVE",
"484 245 CURVE SMOOTH",
"484 413 OFFCURVE",
"409 497 OFFCURVE",
"279 497 CURVE SMOOTH",
"141 497 OFFCURVE",
"50 389 OFFCURVE",
"50 227 CURVE SMOOTH",
"50 85 OFFCURVE",
"134 -7 OFFCURVE",
"264 -7 CURVE SMOOTH"
);
},
{
closed = 1;
nodes = (
"164 42 OFFCURVE",
"107 106 OFFCURVE",
"107 224 CURVE SMOOTH",
"107 363 OFFCURVE",
"171 448 OFFCURVE",
"277 448 CURVE SMOOTH",
"377 448 OFFCURVE",
"436 381 OFFCURVE",
"436 265 CURVE SMOOTH",
"436 126 OFFCURVE",
"372 42 OFFCURVE",
"267 42 CURVE SMOOTH"
);
},
{
closed = 1;
nodes = (
"721 -7 OFFCURVE",
"797 19 OFFCURVE",
"833 53 CURVE SMOOTH",
"860 79 OFFCURVE",
"832 113 OFFCURVE",
"804 91 CURVE SMOOTH",
"766 61 OFFCURVE",
"711 42 OFFCURVE",
"660 42 CURVE SMOOTH",
"548 42 OFFCURVE",
"491 112 OFFCURVE",
"491 224 CURVE SMOOTH",
"491 365 OFFCURVE",
"555 451 OFFCURVE",
"673 451 CURVE SMOOTH",
"765 451 OFFCURVE",
"824 387 OFFCURVE",
"810 256 CURVE",
"832 279 LINE",
"475 279 LINE",
"473 236 LINE",
"829 236 LINE SMOOTH",
"848 236 OFFCURVE",
"863 248 OFFCURVE",
"863 274 CURVE SMOOTH",
"863 422 OFFCURVE",
"794 497 OFFCURVE",
"670 497 CURVE SMOOTH",
"525 497 OFFCURVE",
"443 388 OFFCURVE",
"443 227 CURVE SMOOTH",
"443 85 OFFCURVE",
"518 -7 OFFCURVE",
"660 -7 CURVE SMOOTH"
);
}
);
width = 906;
}
);
leftKerningGroup = o;
rightKerningGroup = e;
unicode = 0153;
},
{
glyphname = p;
layers = (
{
anchors = (
{
name = bottom;
position = "{265, 0}";
},
{
name = top;
position = "{304, 490}";
}
);
background = {
paths = (
{
closed = 1;
nodes = (
"103 -180 LINE",
"128 135 LINE",
"114 127 LINE",
"133 43 OFFCURVE",
"202 -7 OFFCURVE",
"294 -7 CURVE SMOOTH",
"429 -7 OFFCURVE",
"521 100 OFFCURVE",
"521 262 CURVE SMOOTH",
"521 405 OFFCURVE",
"437 497 OFFCURVE",
"314 497 CURVE SMOOTH",
"233 497 OFFCURVE",
"158 450 OFFCURVE",
"135 373 CURVE",
"145 355 LINE",
"155 485 LINE",
"101 485 LINE",
"49 -180 LINE"
);
},
{
closed = 1;
nodes = (
"192 42 OFFCURVE",
"135 106 OFFCURVE",
"135 224 CURVE SMOOTH",
"135 363 OFFCURVE",
"199 448 OFFCURVE",
"305 448 CURVE SMOOTH",
"405 448 OFFCURVE",
"464 381 OFFCURVE",
"464 265 CURVE SMOOTH",
"464 126 OFFCURVE",
"400 42 OFFCURVE",
"295 42 CURVE SMOOTH"
);
}
);
};
layerId = "9E718F8A-2CEA-4931-B05D-987794BD97DA";
paths = (
{
closed = 1;
nodes = (
"233 497 OFFCURVE",
"158 450 OFFCURVE",
"135 373 CURVE",
"145 355 LINE",
"154 467 LINE SMOOTH",
"156 488 OFFCURVE",
"143 495 OFFCURVE",
"129 495 CURVE SMOOTH",
"116 495 OFFCURVE",
"102 488 OFFCURVE",
"100 467 CURVE SMOOTH",
"50 -160 LINE SMOOTH",
"49 -178 OFFCURVE",
"61 -185 OFFCURVE",
"75 -185 CURVE SMOOTH",
"88 -185 OFFCURVE",
"103 -178 OFFCURVE",
"104 -160 CURVE SMOOTH",
"127 135 LINE",
"114 127 LINE",
"133 43 OFFCURVE",
"202 -7 OFFCURVE",
"294 -7 CURVE SMOOTH",
"429 -7 OFFCURVE",
"521 100 OFFCURVE",
"521 263 CURVE SMOOTH",
"521 405 OFFCURVE",
"437 497 OFFCURVE",
"314 497 CURVE SMOOTH"
);
},
{
closed = 1;
nodes = (
"405 448 OFFCURVE",
"464 381 OFFCURVE",
"464 263 CURVE SMOOTH",
"464 126 OFFCURVE",
"400 42 OFFCURVE",
"295 42 CURVE SMOOTH",
"192 42 OFFCURVE",
"135 106 OFFCURVE",
"135 224 CURVE SMOOTH",
"135 363 OFFCURVE",
"199 448 OFFCURVE",
"305 448 CURVE SMOOTH"
);
}
);
width = 570;
}
);
leftKerningGroup = n;
rightKerningGroup = o;
unicode = 0070;
userData = {
anchors = (
);
b = {
};
com.typemytype.robofont.layerData = {
b = {
anchors = (
);
components = (
);
contours = (
);
lib = {
};
name = p;
unicodes = (
);
width = 1181;
};
};
components = (
);
contours = (
);
lib = {
};
name = p;
unicodes = (
);
width = 1207;
};
},
{
glyphname = thorn;
layers = (
{
anchors = (
{
name = bottom;
position = "{265, 0}";
},
{
name = top;
position = "{304, 490}";
}
);
background = {
anchors = (
{
name = bottom;
position = "{265, 0}";
},
{
name = top;
position = "{304, 490}";
}
);
paths = (
{
closed = 1;
nodes = (
"91 -185 OFFCURVE",
"103 -175 OFFCURVE",
"105 -157 CURVE SMOOTH",
"128 135 LINE",
"116 127 LINE",
"131 41 OFFCURVE",
"192 -7 OFFCURVE",
"284 -7 CURVE SMOOTH",
"408 -7 OFFCURVE",
"508 84 OFFCURVE",
"520 243 CURVE SMOOTH",
"533 402 OFFCURVE",
"448 497 OFFCURVE",
"324 497 CURVE SMOOTH",
"232 497 OFFCURVE",
"164 449 OFFCURVE",
"135 364 CURVE",
"145 355 LINE",
"171 682 LINE SMOOTH",
"173 700 OFFCURVE",
"162 710 OFFCURVE",
"146 710 CURVE SMOOTH",
"130 710 OFFCURVE",
"119 700 OFFCURVE",
"117 682 CURVE SMOOTH",
"51 -157 LINE SMOOTH",
"49 -175 OFFCURVE",
"59 -185 OFFCURVE",
"75 -185 CURVE SMOOTH"
);
},
{
closed = 1;
nodes = (
"178 42 OFFCURVE",
"126 116 OFFCURVE",
"136 245 CURVE SMOOTH",
"147 375 OFFCURVE",
"211 448 OFFCURVE",
"316 448 CURVE SMOOTH",
"422 448 OFFCURVE",
"473 368 OFFCURVE",
"463 243 CURVE SMOOTH",
"453 118 OFFCURVE",
"389 42 OFFCURVE",
"282 42 CURVE SMOOTH"
);
}
);
};
layerId = "9E718F8A-2CEA-4931-B05D-987794BD97DA";
paths = (
{
closed = 1;
nodes = (
"233 497 OFFCURVE",
"158 450 OFFCURVE",
"135 373 CURVE",
"146 355 LINE",
"172 682 LINE SMOOTH",
"174 703 OFFCURVE",
"160 710 OFFCURVE",
"146 710 CURVE SMOOTH",
"133 710 OFFCURVE",
"119 703 OFFCURVE",
"117 682 CURVE SMOOTH",
"50 -160 LINE SMOOTH",
"49 -178 OFFCURVE",
"61 -185 OFFCURVE",
"75 -185 CURVE SMOOTH",
"88 -185 OFFCURVE",
"103 -178 OFFCURVE",
"104 -160 CURVE SMOOTH",
"127 135 LINE",
"114 127 LINE",
"133 43 OFFCURVE",
"202 -7 OFFCURVE",
"294 -7 CURVE SMOOTH",
"429 -7 OFFCURVE",
"521 100 OFFCURVE",
"521 263 CURVE SMOOTH",
"521 405 OFFCURVE",
"437 497 OFFCURVE",
"314 497 CURVE SMOOTH"
);
},
{
closed = 1;
nodes = (
"405 448 OFFCURVE",
"464 381 OFFCURVE",
"464 263 CURVE SMOOTH",
"464 126 OFFCURVE",
"400 42 OFFCURVE",
"295 42 CURVE SMOOTH",
"192 42 OFFCURVE",
"135 106 OFFCURVE",
"135 224 CURVE SMOOTH",
"135 363 OFFCURVE",
"199 448 OFFCURVE",
"305 448 CURVE SMOOTH"
);
}
);
width = 570;
}
);
leftKerningGroup = h;
rightKerningGroup = o;
unicode = 00FE;
},
{
glyphname = q;
layers = (
{
anchors = (
{
name = bottom;
position = "{264, 0}";
},
{
name = top;
position = "{303, 490}";
}
);
background = {
paths = (
{
closed = 1;
nodes = (
"454 -180 LINE",
"507 485 LINE",
"453 485 LINE",
"443 355 LINE",
"456 363 LINE",
"437 447 OFFCURVE",
"368 497 OFFCURVE",
"276 497 CURVE SMOOTH",
"141 497 OFFCURVE",
"49 390 OFFCURVE",
"49 228 CURVE SMOOTH",
"49 85 OFFCURVE",
"133 -7 OFFCURVE",
"256 -7 CURVE SMOOTH",
"337 -7 OFFCURVE",
"412 40 OFFCURVE",
"435 117 CURVE",
"425 135 LINE",
"400 -180 LINE"
);
},
{
closed = 1;
nodes = (
"165 42 OFFCURVE",
"106 109 OFFCURVE",
"106 225 CURVE SMOOTH",
"106 364 OFFCURVE",
"170 448 OFFCURVE",
"275 448 CURVE SMOOTH",
"378 448 OFFCURVE",
"435 384 OFFCURVE",
"435 266 CURVE SMOOTH",
"435 127 OFFCURVE",
"371 42 OFFCURVE",
"265 42 CURVE SMOOTH"
);
}
);
};
layerId = "9E718F8A-2CEA-4931-B05D-987794BD97DA";
paths = (
{
closed = 1;
nodes = (
"141 497 OFFCURVE",
"49 390 OFFCURVE",
"49 228 CURVE SMOOTH",
"49 85 OFFCURVE",
"133 -7 OFFCURVE",
"256 -7 CURVE SMOOTH",
"337 -7 OFFCURVE",
"412 40 OFFCURVE",
"435 117 CURVE",
"425 135 LINE",
"402 -160 LINE SMOOTH",
"401 -178 OFFCURVE",
"413 -185 OFFCURVE",
"427 -185 CURVE SMOOTH",
"440 -185 OFFCURVE",
"455 -178 OFFCURVE",
"456 -160 CURVE SMOOTH",
"506 467 LINE SMOOTH",
"508 488 OFFCURVE",
"495 495 OFFCURVE",
"481 495 CURVE SMOOTH",
"468 495 OFFCURVE",
"454 488 OFFCURVE",
"452 467 CURVE SMOOTH",
"443 355 LINE",
"456 363 LINE",
"437 447 OFFCURVE",
"368 497 OFFCURVE",
"276 497 CURVE SMOOTH"
);
},
{
closed = 1;
nodes = (
"378 448 OFFCURVE",
"435 384 OFFCURVE",
"435 266 CURVE SMOOTH",
"435 127 OFFCURVE",
"371 42 OFFCURVE",
"265 42 CURVE SMOOTH",
"165 42 OFFCURVE",
"106 109 OFFCURVE",
"106 225 CURVE SMOOTH",
"106 364 OFFCURVE",
"170 448 OFFCURVE",
"275 448 CURVE SMOOTH"
);
}
);
width = 570;
}
);
leftKerningGroup = o;
rightKerningGroup = q;
unicode = 0071;
userData = {
anchors = (
);
b = {
};
com.typemytype.robofont.layerData = {
b = {
anchors = (
);
components = (
);
contours = (
);
lib = {
};
name = p;
unicodes = (
);
width = 1181;
};
};
components = (
);
contours = (
);
lib = {
};
name = p;
unicodes = (
);
width = 1207;
};
},
{
glyphname = r;
layers = (
{
anchors = (
{
name = bottom;
position = "{90, 0}";
},
{
name = top;
position = "{227, 490}";
}
);
background = {
anchors = (
{
name = bottom;
position = "{90, 0}";
},
{
name = top;
position = "{227, 490}";
}
);
paths = (
{
closed = 1;
nodes = (
"106 -5 OFFCURVE",
"118 5 OFFCURVE",
"119 23 CURVE SMOOTH",
"140 287 LINE SMOOTH",
"146 358 OFFCURVE",
"191 434 OFFCURVE",
"294 444 CURVE SMOOTH",
"325 447 LINE SMOOTH",
"346 449 OFFCURVE",
"352 459 OFFCURVE",
"353 472 CURVE SMOOTH",
"354 489 OFFCURVE",
"346 497 OFFCURVE",
"323 495 CURVE SMOOTH",
"309 494 LINE SMOOTH",
"231 488 OFFCURVE",
"169 454 OFFCURVE",
"135 373 CURVE",
"144 353 LINE",
"153 467 LINE SMOOTH",
"154 485 OFFCURVE",
"143 495 OFFCURVE",
"129 495 CURVE SMOOTH",
"113 495 OFFCURVE",
"101 485 OFFCURVE",
"100 467 CURVE SMOOTH",
"65 23 LINE SMOOTH",
"64 5 OFFCURVE",
"74 -5 OFFCURVE",
"90 -5 CURVE SMOOTH"
);
}
);
};
layerId = "9E718F8A-2CEA-4931-B05D-987794BD97DA";
paths = (
{
closed = 1;
nodes = (
"102 -5 OFFCURVE",
"116 2 OFFCURVE",
"118 23 CURVE SMOOTH",
"139 286 LINE SMOOTH",
"147 381 OFFCURVE",
"200 435 OFFCURVE",
"304 445 CURVE SMOOTH",
"331 448 LINE SMOOTH",
"346 449 OFFCURVE",
"354 462 OFFCURVE",
"354 473 CURVE SMOOTH",
"354 486 OFFCURVE",
"345 498 OFFCURVE",
"326 496 CURVE SMOOTH",
"315 495 LINE SMOOTH",
"222 487 OFFCURVE",
"166 453 OFFCURVE",
"134 373 CURVE",
"144 353 LINE",
"153 470 LINE SMOOTH",
"154 488 OFFCURVE",
"143 495 OFFCURVE",
"129 495 CURVE SMOOTH",
"116 495 OFFCURVE",
"101 488 OFFCURVE",
"100 470 CURVE SMOOTH",
"64 23 LINE SMOOTH",
"62 2 OFFCURVE",
"75 -5 OFFCURVE",
"89 -5 CURVE SMOOTH"
);
}
);
width = 334;
}
);
leftKerningGroup = n;
rightKerningGroup = r;
unicode = 0072;
userData = {
anchors = (
);
b = {
};
com.typemytype.robofont.layerData = {
b = {
anchors = (
);
components = (
);
contours = (
);
lib = {
};
name = r;
unicodes = (
);
width = 715;
};
};
components = (
);
contours = (
);
lib = {
};
name = r;
unicodes = (
);
width = 763;
};
},
